<mxfile host="app.diagrams.net" agent="Mozilla/5.0 (Windows NT 10.0; Win64; x64) AppleWebKit/537.36 (KHTML, like Gecko) Chrome/135.0.0.0 Safari/537.36" version="26.2.14">
  <diagram name="Page-1" id="Gyn2QWcHXlTJsw4li5mC">
    <mxGraphModel dx="1228" dy="554" grid="1" gridSize="10" guides="1" tooltips="1" connect="1" arrows="1" fold="1" page="1" pageScale="1" pageWidth="850" pageHeight="1100" math="0" shadow="0">
      <root>
        <mxCell id="0" />
        <mxCell id="1" parent="0" />
        <mxCell id="2oa_gsqTVaDUyXThO_L6-1" value="" style="rounded=0;whiteSpace=wrap;html=1;fillColor=none;dashed=1;strokeColor=light-dark(#9a9898, #ededed);" parent="1" vertex="1">
          <mxGeometry x="49.06" y="40" width="120" height="540" as="geometry" />
        </mxCell>
        <mxCell id="2oa_gsqTVaDUyXThO_L6-2" value="&lt;font style=&quot;font-size: 24px;&quot;&gt;Data warehouse&lt;/font&gt;" style="rounded=0;whiteSpace=wrap;html=1;strokeColor=none;" parent="1" vertex="1">
          <mxGeometry x="430" y="30" width="120" height="30" as="geometry" />
        </mxCell>
        <mxCell id="2oa_gsqTVaDUyXThO_L6-3" value="" style="rounded=0;whiteSpace=wrap;html=1;fillColor=none;dashed=1;strokeColor=light-dark(#747272, #ededed);" parent="1" vertex="1">
          <mxGeometry x="230" y="70" width="580" height="520" as="geometry" />
        </mxCell>
        <mxCell id="2oa_gsqTVaDUyXThO_L6-4" value="&lt;font style=&quot;font-size: 24px;&quot;&gt;Sources&lt;/font&gt;" style="rounded=0;whiteSpace=wrap;html=1;strokeColor=none;" parent="1" vertex="1">
          <mxGeometry x="49.06" y="40" width="120" height="30" as="geometry" />
        </mxCell>
        <mxCell id="2oa_gsqTVaDUyXThO_L6-5" value="" style="rounded=0;whiteSpace=wrap;html=1;fillColor=none;dashed=1;strokeColor=light-dark(#c4c3c0, #996500);" parent="1" vertex="1">
          <mxGeometry x="850" y="70" width="120" height="510" as="geometry" />
        </mxCell>
        <mxCell id="2oa_gsqTVaDUyXThO_L6-6" value="&lt;font style=&quot;font-size: 24px;&quot;&gt;Consume&lt;/font&gt;" style="rounded=0;whiteSpace=wrap;html=1;strokeColor=none;" parent="1" vertex="1">
          <mxGeometry x="850" y="20" width="120" height="30" as="geometry" />
        </mxCell>
        <mxCell id="2oa_gsqTVaDUyXThO_L6-7" value="Bronze layer" style="rounded=0;whiteSpace=wrap;html=1;fillColor=#ffe6cc;strokeColor=#d79b00;" parent="1" vertex="1">
          <mxGeometry x="275" y="100" width="90" height="30" as="geometry" />
        </mxCell>
        <mxCell id="2oa_gsqTVaDUyXThO_L6-8" value="" style="rounded=0;whiteSpace=wrap;html=1;fillColor=none;strokeColor=#d79b00;" parent="1" vertex="1">
          <mxGeometry x="250" y="140" width="140" height="410" as="geometry" />
        </mxCell>
        <mxCell id="2oa_gsqTVaDUyXThO_L6-9" value="Silver layer" style="rounded=0;whiteSpace=wrap;html=1;fillColor=light-dark(#d1d1d1, #1a1a1a);strokeColor=#666666;fontColor=#333333;" parent="1" vertex="1">
          <mxGeometry x="452.5" y="100" width="105" height="30" as="geometry" />
        </mxCell>
        <mxCell id="2oa_gsqTVaDUyXThO_L6-10" value="" style="rounded=0;whiteSpace=wrap;html=1;fillColor=none;strokeColor=light-dark(#b7b3b3, #996500);" parent="1" vertex="1">
          <mxGeometry x="445" y="143.96" width="150" height="420" as="geometry" />
        </mxCell>
        <mxCell id="2oa_gsqTVaDUyXThO_L6-11" value="Gold&amp;nbsp; layer" style="rounded=0;whiteSpace=wrap;html=1;fillColor=#fff2cc;strokeColor=#d6b656;" parent="1" vertex="1">
          <mxGeometry x="664.5" y="100" width="95" height="30" as="geometry" />
        </mxCell>
        <mxCell id="2oa_gsqTVaDUyXThO_L6-12" value="" style="rounded=0;whiteSpace=wrap;html=1;fillColor=none;strokeColor=light-dark(#f3da91, #6d5100);" parent="1" vertex="1">
          <mxGeometry x="650" y="140" width="140" height="420" as="geometry" />
        </mxCell>
        <mxCell id="2oa_gsqTVaDUyXThO_L6-13" value="" style="image;aspect=fixed;html=1;points=[];align=center;fontSize=12;image=img/lib/azure2/general/Folder_Blank.svg;" parent="1" vertex="1">
          <mxGeometry x="90" y="143.96" width="40.66" height="33" as="geometry" />
        </mxCell>
        <mxCell id="2oa_gsqTVaDUyXThO_L6-16" value="" style="image;aspect=fixed;html=1;points=[];align=center;fontSize=12;image=img/lib/azure2/general/File.svg;" parent="1" vertex="1">
          <mxGeometry x="109.06" y="163.04" width="21.88" height="26.96" as="geometry" />
        </mxCell>
        <mxCell id="2oa_gsqTVaDUyXThO_L6-17" value="CRM" style="rounded=0;whiteSpace=wrap;html=1;strokeColor=none;" parent="1" vertex="1">
          <mxGeometry x="92.25" y="190" width="36.16" height="13.04" as="geometry" />
        </mxCell>
        <mxCell id="2oa_gsqTVaDUyXThO_L6-18" value="" style="image;aspect=fixed;html=1;points=[];align=center;fontSize=12;image=img/lib/azure2/general/Folder_Blank.svg;" parent="1" vertex="1">
          <mxGeometry x="92.25" y="210" width="40.66" height="33" as="geometry" />
        </mxCell>
        <mxCell id="2oa_gsqTVaDUyXThO_L6-19" value="" style="image;aspect=fixed;html=1;points=[];align=center;fontSize=12;image=img/lib/azure2/general/File.svg;" parent="1" vertex="1">
          <mxGeometry x="111.03" y="216.04" width="21.88" height="26.96" as="geometry" />
        </mxCell>
        <mxCell id="2oa_gsqTVaDUyXThO_L6-20" value="ERP" style="rounded=0;whiteSpace=wrap;html=1;strokeColor=none;" parent="1" vertex="1">
          <mxGeometry x="93.84" y="246.92000000000004" width="36.16" height="13.04" as="geometry" />
        </mxCell>
        <mxCell id="2oa_gsqTVaDUyXThO_L6-21" value="" style="endArrow=none;html=1;rounded=0;strokeColor=light-dark(#9a9898, #ededed);" parent="1" edge="1">
          <mxGeometry width="50" height="50" relative="1" as="geometry">
            <mxPoint x="60" y="310.55" as="sourcePoint" />
            <mxPoint x="150" y="310.55" as="targetPoint" />
            <Array as="points">
              <mxPoint x="60" y="310.55" />
            </Array>
          </mxGeometry>
        </mxCell>
        <mxCell id="2oa_gsqTVaDUyXThO_L6-23" value="object type -CSV files" style="rounded=0;whiteSpace=wrap;html=1;strokeColor=none;" parent="1" vertex="1">
          <mxGeometry x="69.06" y="320" width="100" height="30" as="geometry" />
        </mxCell>
        <mxCell id="2oa_gsqTVaDUyXThO_L6-24" value="Interface - files in folders" style="rounded=0;whiteSpace=wrap;html=1;strokeColor=none;" parent="1" vertex="1">
          <mxGeometry x="61.92" y="370" width="100" height="30" as="geometry" />
        </mxCell>
        <mxCell id="2oa_gsqTVaDUyXThO_L6-25" value="" style="html=1;verticalLabelPosition=bottom;align=center;labelBackgroundColor=#ffffff;verticalAlign=top;strokeWidth=2;strokeColor=#d79b00;shadow=0;dashed=0;shape=mxgraph.ios7.icons.data;fillColor=#ffe6cc;" parent="1" vertex="1">
          <mxGeometry x="310" y="199.48" width="24" height="29.099999999999998" as="geometry" />
        </mxCell>
        <mxCell id="2oa_gsqTVaDUyXThO_L6-26" value="" style="html=1;verticalLabelPosition=bottom;align=center;labelBackgroundColor=#ffffff;verticalAlign=top;strokeWidth=2;strokeColor=#666666;shadow=0;dashed=0;shape=mxgraph.ios7.icons.data;fillColor=#f5f5f5;fontColor=#333333;" parent="1" vertex="1">
          <mxGeometry x="508" y="190" width="24" height="29.099999999999998" as="geometry" />
        </mxCell>
        <mxCell id="2oa_gsqTVaDUyXThO_L6-27" value="" style="html=1;verticalLabelPosition=bottom;align=center;labelBackgroundColor=#ffffff;verticalAlign=top;strokeWidth=2;strokeColor=#d6b656;shadow=0;dashed=0;shape=mxgraph.ios7.icons.data;fillColor=#fff2cc;" parent="1" vertex="1">
          <mxGeometry x="700" y="192.49999999999997" width="24" height="29.099999999999998" as="geometry" />
        </mxCell>
        <mxCell id="2oa_gsqTVaDUyXThO_L6-28" value="" style="shape=flexArrow;endArrow=classic;html=1;rounded=0;exitX=1.038;exitY=0.522;exitDx=0;exitDy=0;entryX=0.002;entryY=0.484;entryDx=0;entryDy=0;exitPerimeter=0;entryPerimeter=0;" parent="1" source="2oa_gsqTVaDUyXThO_L6-1" target="2oa_gsqTVaDUyXThO_L6-3" edge="1">
          <mxGeometry width="50" height="50" relative="1" as="geometry">
            <mxPoint x="400" y="310" as="sourcePoint" />
            <mxPoint x="270" y="250" as="targetPoint" />
            <Array as="points" />
          </mxGeometry>
        </mxCell>
        <mxCell id="2oa_gsqTVaDUyXThO_L6-30" value="" style="shape=flexArrow;endArrow=classic;html=1;rounded=0;exitX=1;exitY=0.5;exitDx=0;exitDy=0;entryX=-0.004;entryY=0.47;entryDx=0;entryDy=0;entryPerimeter=0;" parent="1" edge="1">
          <mxGeometry width="50" height="50" relative="1" as="geometry">
            <mxPoint x="392" y="310.55" as="sourcePoint" />
            <mxPoint x="440" y="310.55" as="targetPoint" />
            <Array as="points" />
          </mxGeometry>
        </mxCell>
        <mxCell id="2oa_gsqTVaDUyXThO_L6-31" value="" style="shape=flexArrow;endArrow=classic;html=1;rounded=0;exitX=1;exitY=0.5;exitDx=0;exitDy=0;entryX=-0.004;entryY=0.47;entryDx=0;entryDy=0;entryPerimeter=0;" parent="1" edge="1">
          <mxGeometry width="50" height="50" relative="1" as="geometry">
            <mxPoint x="600" y="324.5" as="sourcePoint" />
            <mxPoint x="648" y="324.5" as="targetPoint" />
            <Array as="points">
              <mxPoint x="660" y="324.5" />
            </Array>
          </mxGeometry>
        </mxCell>
        <mxCell id="C1_RdyR0-82RKuUjunUg-1" value="Raw data" style="text;html=1;align=center;verticalAlign=middle;whiteSpace=wrap;rounded=0;" vertex="1" parent="1">
          <mxGeometry x="293" y="235.10000000000002" width="58" height="17.9" as="geometry" />
        </mxCell>
        <mxCell id="C1_RdyR0-82RKuUjunUg-2" value="Cleaned standardized data" style="text;html=1;align=center;verticalAlign=middle;whiteSpace=wrap;rounded=0;" vertex="1" parent="1">
          <mxGeometry x="460" y="228.58" width="120" height="30.94" as="geometry" />
        </mxCell>
        <mxCell id="C1_RdyR0-82RKuUjunUg-3" value="Buisness ready data" style="text;html=1;align=center;verticalAlign=middle;whiteSpace=wrap;rounded=0;" vertex="1" parent="1">
          <mxGeometry x="650" y="235.1" width="120" height="17.9" as="geometry" />
        </mxCell>
        <mxCell id="C1_RdyR0-82RKuUjunUg-4" value="" style="endArrow=none;html=1;rounded=0;strokeColor=#d79b00;fillColor=#ffe6cc;" edge="1" parent="1">
          <mxGeometry width="50" height="50" relative="1" as="geometry">
            <mxPoint x="317" y="280" as="sourcePoint" />
            <mxPoint x="367" y="280" as="targetPoint" />
            <Array as="points">
              <mxPoint x="307" y="280" />
              <mxPoint x="277" y="280" />
              <mxPoint x="367" y="280" />
              <mxPoint x="347" y="280" />
            </Array>
          </mxGeometry>
        </mxCell>
        <mxCell id="C1_RdyR0-82RKuUjunUg-5" value="" style="endArrow=none;html=1;rounded=0;strokeColor=light-dark(#9a9898, #ededed);" edge="1" parent="1">
          <mxGeometry width="50" height="50" relative="1" as="geometry">
            <mxPoint x="480" y="280" as="sourcePoint" />
            <mxPoint x="550" y="280" as="targetPoint" />
            <Array as="points">
              <mxPoint x="500" y="280" />
              <mxPoint x="480" y="280" />
            </Array>
          </mxGeometry>
        </mxCell>
        <mxCell id="C1_RdyR0-82RKuUjunUg-8" value="object type - table&amp;nbsp;&lt;div&gt;&lt;span style=&quot;background-color: transparent; color: light-dark(rgb(0, 0, 0), rgb(255, 255, 255));&quot;&gt;&lt;br&gt;&lt;/span&gt;&lt;/div&gt;&lt;div&gt;&lt;span style=&quot;background-color: transparent; color: light-dark(rgb(0, 0, 0), rgb(255, 255, 255));&quot;&gt;Load -&amp;nbsp;&lt;/span&gt;&lt;div&gt;&lt;ol&gt;&lt;li&gt;Batch processing&amp;nbsp;&lt;/li&gt;&lt;li&gt;Full Load (Trunc , insert)&lt;/li&gt;&lt;/ol&gt;&lt;/div&gt;&lt;div&gt;no transformations&amp;nbsp;&lt;/div&gt;&lt;div&gt;&lt;br&gt;&lt;/div&gt;&lt;div&gt;Data Model - None As-is&lt;/div&gt;&lt;/div&gt;" style="text;html=1;align=left;verticalAlign=middle;whiteSpace=wrap;rounded=0;fontSize=11;labelPosition=center;verticalLabelPosition=middle;spacingTop=-9;spacing=14;" vertex="1" parent="1">
          <mxGeometry x="250" y="300" width="130" height="200" as="geometry" />
        </mxCell>
        <mxCell id="C1_RdyR0-82RKuUjunUg-16" value="" style="endArrow=none;html=1;rounded=0;strokeColor=#d6b656;fillColor=#fff2cc;" edge="1" parent="1">
          <mxGeometry width="50" height="50" relative="1" as="geometry">
            <mxPoint x="689.5" y="267.05" as="sourcePoint" />
            <mxPoint x="759.5" y="267.05" as="targetPoint" />
            <Array as="points">
              <mxPoint x="709.5" y="267.05" />
              <mxPoint x="689.5" y="267.05" />
              <mxPoint x="725.75" y="267.05" />
            </Array>
          </mxGeometry>
        </mxCell>
        <mxCell id="C1_RdyR0-82RKuUjunUg-17" value="object type - table&amp;nbsp;&lt;div&gt;&lt;span style=&quot;background-color: transparent; color: light-dark(rgb(0, 0, 0), rgb(255, 255, 255));&quot;&gt;&lt;br&gt;&lt;/span&gt;&lt;/div&gt;&lt;div&gt;&lt;span style=&quot;background-color: transparent; color: light-dark(rgb(0, 0, 0), rgb(255, 255, 255));&quot;&gt;Load -&amp;nbsp;&lt;/span&gt;&lt;div&gt;&lt;ol&gt;&lt;li&gt;Batch processing&amp;nbsp;&lt;/li&gt;&lt;li&gt;Full Load&lt;/li&gt;&lt;li&gt;&amp;nbsp;Truncate , insert&lt;/li&gt;&lt;/ol&gt;&lt;/div&gt;&lt;/div&gt;&lt;div&gt;&lt;div&gt;&amp;nbsp;Transformations&amp;nbsp;&lt;/div&gt;&lt;/div&gt;&lt;div&gt;&lt;ul&gt;&lt;li&gt;Data cleansing&lt;/li&gt;&lt;li&gt;Data Standardization&lt;/li&gt;&lt;li&gt;Data Normalization&lt;/li&gt;&lt;li&gt;Derived columns&lt;/li&gt;&lt;li&gt;Data enrichment&lt;/li&gt;&lt;/ul&gt;&lt;/div&gt;&lt;div&gt;&lt;span style=&quot;background-color: transparent; color: light-dark(rgb(0, 0, 0), rgb(255, 255, 255));&quot;&gt;Data Model - None As-is&lt;/span&gt;&lt;/div&gt;" style="text;html=1;align=left;verticalAlign=middle;whiteSpace=wrap;rounded=0;fontSize=11;labelPosition=center;verticalLabelPosition=middle;spacingTop=-9;spacing=6;" vertex="1" parent="1">
          <mxGeometry x="445" y="280" width="150" height="245" as="geometry" />
        </mxCell>
        <mxCell id="C1_RdyR0-82RKuUjunUg-18" value="object type - Views&amp;nbsp;&lt;div&gt;&lt;span style=&quot;background-color: transparent; color: light-dark(rgb(0, 0, 0), rgb(255, 255, 255));&quot;&gt;&lt;br&gt;&lt;/span&gt;&lt;/div&gt;&lt;div&gt;&lt;span style=&quot;background-color: transparent; color: light-dark(rgb(0, 0, 0), rgb(255, 255, 255));&quot;&gt;No Load&amp;nbsp;&lt;/span&gt;&lt;/div&gt;&lt;div&gt;&lt;br&gt;&lt;/div&gt;&lt;div&gt;Transformations&amp;nbsp;&lt;/div&gt;&lt;div&gt;&lt;ul&gt;&lt;li&gt;Data Integrations&amp;nbsp;&lt;/li&gt;&lt;li&gt;Aggregations&lt;/li&gt;&lt;li&gt;Business Logics&amp;nbsp;&amp;nbsp;&lt;/li&gt;&lt;/ul&gt;&lt;/div&gt;&lt;div&gt;&lt;div&gt;Data Model&amp;nbsp;&lt;/div&gt;&lt;/div&gt;&lt;div&gt;&lt;ul&gt;&lt;li&gt;Star Schema&lt;/li&gt;&lt;li&gt;Flat Table&amp;nbsp;&lt;/li&gt;&lt;li&gt;Aggregated Table&amp;nbsp;&lt;/li&gt;&lt;/ul&gt;&lt;/div&gt;" style="text;html=1;align=left;verticalAlign=middle;whiteSpace=wrap;rounded=0;fontSize=11;labelPosition=center;verticalLabelPosition=middle;spacingTop=-9;spacing=14;" vertex="1" parent="1">
          <mxGeometry x="658" y="280" width="132" height="250" as="geometry" />
        </mxCell>
        <mxCell id="C1_RdyR0-82RKuUjunUg-19" value="" style="image;aspect=fixed;html=1;points=[];align=center;fontSize=12;image=img/lib/azure2/analytics/Power_BI_Embedded.svg;" vertex="1" parent="1">
          <mxGeometry x="870" y="136.67" width="40" height="53.33" as="geometry" />
        </mxCell>
        <mxCell id="C1_RdyR0-82RKuUjunUg-20" value="BI &amp;amp; Reporting" style="text;html=1;align=center;verticalAlign=middle;whiteSpace=wrap;rounded=0;" vertex="1" parent="1">
          <mxGeometry x="860" y="198.58" width="60" height="30" as="geometry" />
        </mxCell>
        <mxCell id="C1_RdyR0-82RKuUjunUg-21" value="Ad-Hoc SQL Queries" style="text;html=1;align=center;verticalAlign=middle;whiteSpace=wrap;rounded=0;" vertex="1" parent="1">
          <mxGeometry x="870" y="290" width="60" height="40" as="geometry" />
        </mxCell>
        <mxCell id="C1_RdyR0-82RKuUjunUg-22" value="Machine learning" style="text;html=1;align=center;verticalAlign=middle;whiteSpace=wrap;rounded=0;" vertex="1" parent="1">
          <mxGeometry x="870" y="450" width="60" height="30" as="geometry" />
        </mxCell>
        <mxCell id="C1_RdyR0-82RKuUjunUg-23" value="" style="shape=image;verticalLabelPosition=bottom;labelBackgroundColor=default;verticalAlign=top;aspect=fixed;imageAspect=0;image=data:image/png,iVBORw0KGgoAAAANSUhEUgAAAgAAAAIACAYAAAD0eNT6AAAAAXNSR0IArs4c6QAAIABJREFUeAHsnQm8JEWR/2d21/tcb9cT75vV8dbV1vc6flE988bz6coK3v5dj0VdXVzXVbzBe8VjRYWF9QJFVPBYQFFUBAREuRQQBOQY7mOQG/4vntljTU/36+rKyOqq6h+fD5/p112VGfHNyMyqzMiIVav4HwmQAAmQAAmQAAmQAAmQAAmQAAmQAAmQAAmQAAmQAAmQAAmQAAmQAAmQAAmQAAmQAAmQAAmQAAmQAAmQAAmQAAmQAAmQAAmQAAmQAAmQAAmQAAmQAAmQAAmQAAmQAAmQAAmQAAmQAAmQAAmQAAmQAAmQAAmQAAmQAAmQAAmQAAmQAAmQAAmQAAmQAAmQAAmQAAmQAAmQAAmQAAmQAAmQAAmQAAmQAAmQAAmQAAmQAAmQAAmQAAmQAAmQAAmQAAmQAAmQAAmQAAmQAAmQAAmQAAmQAAmQAAmQAAmQAAmQAAmQAAmQAAmQAAmQAAmQAAmQAAmQAAmQAAmQAAmQAAmQAAmQAAmQAAmQAAmQAAmQAAmQAAmQAAmQAAmQAAmQAAmQAAlMgcDCwsItsyx7tIi8EMB/quqHVfVzIvJVVf0OgH1V9Uv2HYCdRORtqvrcLMsetri4eNMpiMwqSYAESIAESIAEJiUwNzd3P1V9hU3qAP4A4AYAN5b8/zoAvwWwq6q+qNfr3W1SeXg9CZAACZAACZBAIgIAHg5gZwCnlZzoCz8giMhvALx9fn7+3onUYbEkQAIkQAIkQAKjCHQ6nVuLyBsAHJl60h9R/vUAfqSqL16zZs1NRsnJ70mABEiABEiABBwIZFl2WwA7ALhgxMRc+G3e8X7bath+cXHxFg4qsggSIAESIAESIIE+AXPmA/AeAJc5TtzeDwtnq+prFxcX/7ovN/8lARIgARIgARIoSUBEFgCcWuOJf/BB4leq+qSS6vI2EiABEiABEphtAuZ1D+DbDZr48w8C5iPwWRG51Wy3IrUnARIgARIggQkIAHgGgLMbOvnnHwR+q6qPmkB1XkoCJEACJEACs0fA9s9VdUcAdgY/P5E2+fOV5iQ4e61JjUmABEiABEigAIEsy24G4BstmvgHH1p22XHHHf+qAApeQgIkQAIkQAKzQaDT6dwewCEtnvz7DwP7dDqdm89Gq1JLEiABEiABEliBAIC7hwh7/Umy7f8eQOfAFQyCP5EACZAACbSfwPz8/O0A/GoG3vwHH2oOsi2P9rcwNSQBEiABEiCBAQIWOW9Glv0HJ//+31+hT8CAUfBPEiABEiCBdhMwb/8Kz/jbiYJjAOxl0QRF5NUi8o8WYEhEng1gGxH555AO+JsAflfVioSlJ253S1M7EiABEiABEsgRAPDuxJPshRaIZ2l74VnmYJirutDHEIRoGwBfFpE/pZTVHkYKCcWLSIAESIAESKDJBFR1DoBFyusvhbv9q6o/A/A8z/11S0Ckqq8AcHwKmQFc2u12H9jkNqXsJEACJEACJLAigfBmfU6CifSQLMuevmLlkT/afr2qPhfACQnkP5rHAyMbiLeTAAmQAAnUlwCAfZ0nz3MBbLtq1arVVWm9Zs2amwD4NwAbPXURkQ9UpQPrIQESIAESIIHKCABQzwkTwEG2olCZAgMVqep9ARzuqNPV8/PzDx2ohn+SAAmQAAmQQHMJhCN/Xil9bxCR/6jyrX8UeVu2B/B5x4eAg0bVxe9JgARIgARIoHEEQoIfD2e/a1T1xXUD4Kjfjaq6WDf9KA8JkAAJkAAJTEwgxPm/xOEt+Ro7uz+xABXdAOCNDjraQ9JxDBBUUaOxGhIgARIggXQEbLneYWK8AcDL0knpUzKA9znoaqsAz/GRiKWQAAmQAAmQwBQIWNIbAOfFToqq+o4piF+mytWq+qVYfQEcWaZy3kMCJEACJEACtSCgqq91mAy/36Ql8U6nc2uPWAEi8sxaNCKFIAESIAESIIFJCTgck9uQZdmdJ6132ter6qMAXBP58LPHtPVg/SRAAiRAAiQwMYFer/egyAnwRhF5ycQV1+QGEflQpP4bbTWhJupQDBIgARIgARIoRgDA+2MmQIvrX4ez/sW03fKqsBVwZiSD2h153FJTfkMCJEACJEACOQIATo6Z/AA8I1dcIz8CeF0kg283UnEKTQIkQAIkMJsERORekRPfYW0gFyIFnhXB4pLFxcW/bgML6kACJEACJDADBGzvPmLSs73/F7YFk4i8K5LFE9rCgnqQAAmQAAm0nACAPSImPXvrvUVbEIWkQRbIqFQoZBF5W1tYUA8SIAESIIGWEwBwStkJD8CubcNjDo0RPPZvGw/qQwIkQAIk0EICWZbdDMB1ZSc8VX1u27BYJMOyPOxhqm08qA8JkAAJkEALCYjIIyImu+sXFhbu1DYsIvLkCCbXmTNh25hQHxIgARIggZYRAPC8iMnu+JbhWFZnzZo1NwFwVQSXh7eRC3UiARIgARJoEQEAO0RMdPu0CMVmqlia3wguz9qsMP5BAiRAAiRAAnUjAGCniInu/XXTx0seEflmWS6q+lIvOVgOCZAACZAACSQhAOBTERPda5MIVYNCVfWTZbmIyBtqoAJFIAESIAESIIHRBCJjAGw3uuRm/xKZG+Htzdae0pMACZAACbSeAIB9yr7ptvEIYL/BLaBPBJcP9svhvyRAAiRAAiRQSwKq+vWyE52IPL+WSjkIJSL/UZYLgPc5iMAiSIAESIAESCAdAQC7l53o2uzsFukcuUO6FmPJJEACJEACJOBAIMbZTVX/xUGEWhYhIp8u+2BkaYVrqRSFIgESIAESIIE+ARH5QMRE99F+OW37F8D3Irhs2zYe1IcESIAESKBlBETkTRETXWsT38QkSBKRrGVmQnVIgARIgATaRgDA2ogHgNPaxsP0EZFbxSRIyrLs/m3kQp1IgARIgARaRKDb7T4w4gHgxl6vd58W4VhWBYBGMLm60+n8TduYUB8SIAESIIGWEVhcXPzrmMQ3bTwJICIfingAaGWCpJaZPdUhARIgARIwAiLym4gJ7xttowjghAgee7eNB/UhARIgARJoKYGYfAC2Vz43N3fHtqDpdruPjZj8b+QRwLZYAvUgARIggRkgoKrvipn0sizbpS2YYuIiGMMsyx7WFhbUgwRIgARIoIUEbO9fRF4I4KiYyT/c2wrHN1vJAHB5BI9zV61atbqF5kKVSIAESIAEmk5gYWHhlrZMraq/j5jobKl7s/9F5B1NZxOZAdB47Nl0BpSfBEiABEigZQQWFhbuJCK21H/+4OTt9Pd5nU7n5k3Ftm7dunsAuCyGBQMANbX1KTcJkAAJtJCAiGwFYBcAV8RMbgXvfWdTEQL4WkEdN1v5yN2zgef/m9r6lJsESIAEWkQAwGNE5KsArs1NUqMmL6/vrwTw8KZhjIyGuMxOVT/WNL0pLwmQAAmQQIsIdLtdAXBghZP+4MPD8RZKtylIReReDtsiN6jqo5qiM+UkARIgARJoCYEdd9zxr0RkAcDhU5z4Nz0IqOqXmuANbz4LAH4ey0xEvtsSU6IaJEACJEACTSBgb9oi8moAJ8VOYgnu37nODO0YpKp+3UPvbrf7lDrrStlIgARIgARaQiDLsjsDeA+ACzwmsIRlvL2OyEP+gy966K2qP6yjjpSJBEiABEigRQQszSyAz4jInzwmryrKCM5xtQmOY8v+IvJNJ91vEJEnt8jEqAoJkAAJkECdCIT49HvH5Kh3mvA27fNPWN435ufnbzdtpsHh79AJZV9J5y9OWyfWTwIkQAIk0EICqvpUAPs5TlgrTWapfzvNHmSm1UzBSdJty8RWYWwrZlr6sF4SIAESIIGWEeh79KvqL1sy8ecfLGzJ/Gfr16+/a1XNlmXZPQHY6kleDq/Pn7H2qkoX1kMCJEACJNBCAp1O59YAtgdweqLJatJJ7zwA7wNwbAJ5rgOws+mcqint7VxEPhCZ3KcIs68tLi7eNJUeLJcESIAESKClBETkLqq6I4ALE0y0RSawwWtOtQcRSxpkyFX1wQknUdP5/SLyEK/mFZEniMinKwp93Gf3gyYFP/JizXJIgARIgARKEJibm7ufiPxXjTz6jwaw3bB49iLyT6kfTsKWx3tUtZNl2c2KIg0rJ2sBfBTA71LLOap8EfkFgDsUlZvXkQAJkAAJzBgBi9FvaWPr4tGvqj8zB7lxzaCqHxw1+SX43vIXWHCj/VX1cwB2UtV3WDZDVf0wgM8DOADAHwDckKD+/pv9pP8eZ1kFx7Hk7yRAAiRAAjNEoGYe/deYY9yEXvmrReQLNZpsJ52cq7reTjs8cIZMm6qSAAmQAAkMElizZs1NbFk9kSNdmQntctt2mJ+fv/egrEX+DhH09uFDwNgTBRtspacIU15DAiRAAiTQIgI5j/4zajJZbgiOhtF71CGBzr410avMQ1BV99jDVrdFZk1VSIAESIAERhGom0e/qv7ePPoXFxdvMUrmMt+HlYDd+RAwdiXgKhF5fhnGvIcESIAESKABBCxGf808+o+yrQebqBPhWw2AqwDFggtZzINXJmoHFksCJEACJDANAiKypkYe/eYNf2ARj/5YVqr6Ly1++78igW7WNv8Wy533kwAJkAAJTJeAecMv2GSbYKIosz9tHv12rPDhVWAJDz1X1UT3MrxWuufbc3NzdwTw8RT62SrRqlWrapMZsQp7YR0kQAIk0HgCFu41ePQfl2JyKFHmske/ZbirCm5wbvxtCVlXmnTr8JslCbJl+k2TM4AdEum5x7BgS1W1IeshARIgARIoSGD9+vW3CTH6z0w0IUw6AS579K9du/ZvC6rgdhmAL9eEwaTMRl1vS/N7jsrqB+D1AK5PoPO37DSFW8OwIBIgARIgAT8Cc3Nzdw1H5y5KMAGMmpBW+v6UFB79RYkBeE1NOKzEaJLfDrC8AeP0D2GQbZtlkrKLXHtwlmW3HVc/fycBEiABEqiIAIAH2F7t0hLwlQkG/SITw+A1Ryb26B9LVkQeUaOcBYN8Jv37wCzLnjhW6dwFACzXQArnwCNHrT7kqudHEiABEiCBlARCqF7LG2/HtiadVLyvt6Xp/QDMp9S5SNmW5Q7ACU5MLMXwxU5lTcL8rJBDoLSjpK0WLG0JmK/AJPUWufbEspEZi7QfryEBEiABEhhCYMcdd/yr4NH/8wQDe5HBf/Caq8Oe9MOGiDuVrwDs4cTmYlW9r+19q+qiqn490YTaZ2o+G7upKrziIdhJCxH5oxOPvpz279m9Xu+RU2lgVkoCJEACs0Qg59Hv9WabH8zLfL7Mth2yLLtnndoBwMucJrsbVPU5g7rZA1i32/17VX2ziHwTwIkAJt5vD9sTxwD4ivkq9Hq9Bw3W5fW3iGwF4GQnLnlbuVBVn+QlJ8shARIgARLIEeh79Cd6i8sP5kU/n2uOhtPw6M9hGfrRJlEAlzlNdJ8YWsmQL+2InGXTC/vu24jIq+1Inoi811iJyFvsOxF5YbfblV6vd5/88b0hRbp/1ev17gbgV05s8ray0VYs3AVmgSRAAiQwqwRswA4e/dPYf84P8P3P9ga5fV2PgoWEP/ZG3Zc35l9zdLtZ22yv0+ncHsBPnRjl+do20Avaxov6kAAJkEClBOxNsk4e/ar6M9v/9tqTTgUTwK5OE9vlKZfjU+lftNyFhYVbish3nVjlHwKus1WOonLwOhIgARIggUAgePSbF7150+cH1ml8tkAy+4nIk5vQQPb26chsmyboHCOjbVmYs6Ejs7yN7hQjG+8lARIggZkgkPPoPzTRYJwfmIt8Xvbon5+ff2hTGsBiIAC41InfZ5uit4Oclh3xo07cNrMtVf2k2baDjCyCBEiABNpFwPaXQ4x+8yDfbPCc0t+X2rbDunXr7tEk0oGjpRH2YHjs4uLiLZqkv4esqfIHiMj/rlmz5iYeMrIMEiABEmg8AQujGmL0n+U0acVOfOeYo6E5hzURLoBdnDhubNKqh3dbicg/J8ofsN8sPlR5tw/LIwESaDABAHcPHv2XOE1YURO/iPzGHLaa7OkuIusc/SW2a7B5uYhuMQ8ApEiZ/JP5+fnbuQjJQkiABEigKQRU9VEh7/3EgWJSPCiYR79FEaz6DLp3e1k6YQAXOjHazVu+ppYnIs90jKOQf0g9ttvt/l1TuVBuEpglAqstUImIdC3fOIB/A/Bui0uuqp+zvWIR+YDtHarqawE8zxKvNPlt0rtx6+jR35aIbbavDMArDPLvLNCSd/s3uTxVfRyA850ervIPAaeaw2aT2VB2EmgdAUshKyL/aJN7iBRWNoPYdar6ewD7quq/2ENB0980J2nsvke/iPwiweCZH0iLfrbl3D1F5CGT6FH3awF8xImvZU7cuu76TkO+LMseBsDyEhS1taLXnUPm02hR1kkCOQKq+mAA7wNwXIJOnh8MNtgk5JncJKdGLT7mPPp/m5hlnutKn5c9+tu45CoimeO+/ytrYUA1FcJWAQH8LoFNX9Ttdp9SU7UpFgm0k4AtddqS/RTfUM8SkQ+1JcqaOTYFj/6zEwySK03wo377g23LtNXhypIOOS5N79XOXu6rla0OAjg6gX1fYQ9zvtKyNBIggS0IhKNnOzg6TY2agIp+vxxlzvYatxC2AV9YetgQqndjgoGxKMP8db+2mAJtPnNtYYhV9YdOvE+2PtEAU6uFiJ1O59YADnRin7fbq23rsRZKUggSaBuBMPHvDODyBJ0335HLfraQt/s3Jae47V0Gj/5r68CzLR79RfodgPc7MTe/iMcUqZPX/IVA2Ob6hlMb5MeLG0TkTX+piZ9IgASiCdhRLwBnJOiw+c7r9flae6Ou61tZHT36ReQJ0UbSkAIAPAPAdU62/PqGqF07MW0VRkS+4NQOg2MH8wfUrsUpUOMIZFl2/0TLdYMd1v1vy3dvwUjqAL3v0Q/g8EQD3qT8lj36zXmzDnyqkiHsQbv4WKjqd2bpVEqiNlptfjyJ+sSnmD8gUaux2PYTCJG86pI7ftIJLn/9npaydBotlvPoT+H9nNex6Gc7j72TRRKcBo9p1mmTAYADnCab0wHcYZr6tKnukD8gRdbKL7fZl6VNNkBdakLAJq3glFZ0UmnCdUd3u90HVoV4YWHhTiFUb4oAKGV4n2YnDETkVlUxqFs9S8f93uk0+V/TliBIdWojEXkJgBT+MAeZ42GddKUsJFBLAnNzc3cEcJjTQFlmokp5j8XNf0ZK8CKyVXh4Khv8yFv/Y8yj3/K1p9S77mWLyNMc9/3/te76NlW+pcBhz1paDbCASt794HAb25rKhXKTQHICFujFkrok6HzenTmmPDsq9EJvmN1u9+/p0e9N1ae8LMvubP4gTnb9Pe77+7TLqFJUtQPgUqf2yo8VxzctPfUoRvyeBFwJJAzVme+Adfl8vQUw8gBYR49+AI/30K0lZaw2Zz2nyeRM29ppCZdaq9Htdh8L4DyndsuPO6dVuRVYa8gUjgSMwNzc3P0AuHhGJ+iw+c7r+dkcjkqFbs159B9RE32XPfrbEhHRs1cG5zIPu7nWHvY8ZWNZKxOwnBMAzNnSo/3yZZxrK3Yr185fSWAGCNjyaKL43PkOV9fPdhb8eUWb2RzoQqheC5FbB53OM0dD7m0Ob0FbCQFwtVNbvX14Lfw2JYGE25J2uukfUsrOskmg1gRCZL8UcblHTY72NG8hQD8lIu8SkbeIyKtDpr+3haxs+4SEQl4D9yhZlr8XkT+NGwjsISl49F/gNJmsKFOBOiwN6vbTOtpYa6MOwq1du/ZvAdjJh1jWdv+PLGhNE/Ruo4x23BLAoU5tmbeHq1T1uW1kRp1IYCwBAClCceY7mHnd7y4i/zTpuXOb3ADMi8gHAKTOirdhWKY72xqpmUf/r+jRP9as7YLVlkLaacI4d1LbLSQhL5qIgK2+LR29/D+nNs2PUdeJyMsnEoYXk0DTCQB4fYLO1O9Yh1hSjk6nc3MvTlmWPVFVPwfA9rv79Xj+e3D/LS/LskfX1KPfC2erywHwRicbuV5Euq2G1SDlFhcXbwpgb6e2zY8dlj/gLQ1CQVFJoDwBS16SaCK15f2k+2r2pq6qH0shv6ruDmC/BANMfrAp+rnRGQ7LW2fcnSKyxss2bNsnThre7U3AHtLDi0DRfjTJdcwf4N1gLK9eBMJT9InOk9wZVe+l2VGeREuCkwwYKa693LYd5ufn710vy6m/NCHNrFfI5Z/0V4Tqr/nMSWhHO3d0HsP6fXn3WQ+aNXPWNEsKA3i7Z8dR1S+tX7/+NtNiqKqvCI58/Q7c1H+XPfoZX768JQH4spNtn8eAMeXboao7zXkYgK2Ueff5fT23L6viwXpIYEUCqnpfAF4ham0v/lUrVljRj71e75ENPsp4kqr+Pw44ccYC4DVOE4HtBy/EScO7qyKgqi9eeqm5xqntNz1IqOoPp/liUxU/1jNDBAB8y6mjXKaqc3VCZxHaANQlMM+mgWQF3pYW+HlMVxpvRSLyCMdVIO4DxzdJpSXYA5tj++f77hGM/FhpU7KyVASCc1TeuMt+vtjKSiVnTLlhD/jgFSbdsjp73WfRB/fPsuzpMXry3r8QCMGZTnBq88OZOvYvbJv0yfrU0ukPO3bs1Vf75ZwgIvdqEgvKSgJbEBCRb8Z2DnvKtqxqWxReoy9CcKOjYnV1vt+WKPewN9UaoWqFKMbVqa0usi2yVkCZUSWsfy1tS57lZA/9BwD79w+q+uAZxUq1m04gJPqJdZaxt9fCYXOnyazX690NwJkJBoL8oFDk87JHP98g0ljDUpz4lzm1se37PzuNlCy1SgIhr8kpTnaR7+MXWiySKnVhXSTgQgDAbrEdws7euwhTUSHdbvcpAK6N1bvk/RvCMaU7VKTuzFVjiY8AXFayffIDu33++MwBbLHCFrkRwK+dbCNvK/ZAz8BQLbad1qkW9kgvj+kMqvrLJu6Neh95LMDQQha/Msuym7XOkGqkkJ2YAHBMgfbID96jPh/J9qpR4zqJYrkgVPVnTjaSt52rROT5TmKyGBJIS8Bix0d2Ats6aGR+eQvoISK/idQ/3/lHfT7UlpDp0Z/WlvulA/i8U5texhTKfart+zfkE/m+k63k+75lEa3FEej2tRo1ciUQsu/ljXeizyLyaVeBKi5MVTsJBgBjeIOqfoc54qttUAAvcGzPbaqVnrVVTcAin4rIVx1tpj9+mk/UDlXrw/pIoDABEblLTKQs8/o3h7rCFdb0QgBnOA4AlqZ4N3OsrKm6rRULwAMAXOrUlp9pLSgqNkjAskN+3Mlu+g8Ay/9a2G7LPjlYIf8mgakTEJEXRhr9LlNXwkEAJ2/xS0XkQ8PSBjuIyCLGELB9egBexzuPXVxcvMWYKvlzywjYG3vkeLjZ5J8raw/mD2iZsbRBHRH575yRjjLeUd/fkGXZ/dvAwXQAcH4EiyvMqagtLJqoB4BPRbRf3sY3zs/PP7SJDChzPIGlceB1MauiK9jgt/lQGd8+LMGRAICTVjDY/KA47PNPHEWZelGq+uYIFjdmWfboqSsxowJYqFfzuYhpv9y9280oRqodCCyNi9ukyB8A4GALREbQJDB1AiEYzrCJveh3r5y6Eo4CWExvVY1JGrK9ozgsqiABS4sM4MLcBF7Ufodd98WC1fKylhMAsNYxMVre1o4036uW46N6dScA4Bkxg2Yb06EC+GlZJradUvc2b5t8FnsCwKFl22zgvt8xu1vbLCROHxF5AoALBuwkP5mX+qyqv2/T9mkcZd49FQKR6VFPnIrQiSsF8O6Izn5wYvFY/AABAB+NaK/84H0lgK0HiuefJGC+QQ8XkT862Vne5s62NOVETAJTIWCheyOMetepCJ24UkthHMHk7MTisfgcAVXtOe77t2o7K4eJHx0IWBKoSH+p/MSf/2wJpp7kICKLIIHJCFja2bKTnYi8abLamnF1iBGe76ATfeYScjXtnGXZPSNPbeTbda9qpGYtTSYwNzd3VwC/KjtmrnDfRlVFk9lQ9gYSiNk7tbevBqpcSOSYQDLmkFaoEl5UmoCdp47x1RgYiE+mV3bpppi5Gzudzu0dbS//EGrBw14wc0Cp8PQIxMTAb3Pe+qWUxscOTBL5jrri5zZzmZ6lbl4zgPeXbZ+B+64C8JjNS+dfJLAyAQs4JSLfHLClFceFgtdep6r/b+Xa+SsJOBEA8IeChrmFcfd6vfs4iVG7YkTkF2W5MB942uYMJ1cs0coWNlniu9ellZalt5XA4uLiXwP4YgmbK2K3O7WVG/WqEYGY4y1zc3N3rJEqrqIAOKBsx2YucNem2KywsAd7dtm2GbjvG5sVzj9IYHIClj/gIwN2VWSCL3LNLswcOnmD8I4JCEQGT7nDBFU16tIlr9z/K9upu92uNErZhghrg2Fs1spcm54OoLX225AmbY2YqfIHiMj/WpyL1oCiIvUiwC2A4e0R6RzJIz3DsUZ9KyLvyk3gRd6gRl1zDY9dRTUFbx5CIMRUud7JRvO2ux/zBwwBzq/iCcQ4u7U5gEUMFzoBxtvlYAki8jQALvv+lu9hsHz+TQIeBFT1OUurARZQKj+Be3z+yfz8/O08ZGQZJLCJQIyzm4hkmwpq2QceA6xPg2ZZdmevKGwi8l3mZa9P27ZREhF5JoDLEjwEHMs04220mCnqZANihKG+cYqiJ6uagYCSoS1T8GpV/U6Ejebfvs60ZE9lhOA9JDAJAVV9nGOQqrwNnwrgAZPIwmtJYCQBAB8vO7iq6udGFtzgH8ITfL7TTfL5nAarXjvRReRtZe1z4L5rVfWptVOQArWWwPz8/EMBnDFgh5OMJaOuPYc5K1prNtUqJiL/HGGgJ1QrbTW1qeqOZZmIyI+rkbL9tQB4vFc+dlX99/YTo4Z1I2CxUgD8tux4ssJ9F3e73afUTV/K0zACkW+7N7Y0HfAhK3S8UU/ly9+3dVWkarNeu3bt3wI4rWw7DNz3IwvaUrUOrI8EjIAdNwVw2IBNrjizQK8+AAAgAElEQVSOFLz2ijb7YdF6KiDQ6/XuVtDYhhqsqr6iAjErqyJ0VovJPVTfAt+30i+isgb4c0UWXGXfAqyLtNG5ZuMVy8/qSGAzAp1O59YxwcVW6Au2tfXSzSrjHyQwCQEAJ69gYOMG2YMnqavu1wLYPoLFjSKypu461l0+AG+MaYPcvXYme77u+lK+2SBg+QNU9es5+xw3thb9/QYebZ0NG0qipS1bRxjlDSKyVRLBplAogA0RLK7gWd24Rut2u48FELMCs2nQNF+OOGl4Nwn4Egj5Az4fMcZssu8hZTB/gG9zzUZpqvqiIca0kqFt9puI/FcbSAHYNoZDuPdCEXmviNylDUyq1GH9+vW3AfA7hzawlZgfc9+/ytZjXRMQsC2unT3sfLAMEfk08wdM0BK8dNWqkGCldAhLEflTGya8mLDIQzrinwB8lmd2i/cwAF8e5Fjy7/MYMKU4d145HQJhu/GGkja+2UvYQBlfYf6A6bRpY2tV1R8OGNFKBrbFb6r6ycYqv2rVqhBqdgu9YpiEe6+3fT8LDNJkPqlljzyOmm8325JaSC0vyycBDwIAtgNwrcM4k+8D9vkgW1HzkJFlzAAB8ySNNMLrsix7dBNRdTqdvwFwTKT+gx1w2N8Hh2M7q5vIKZXMllPCVpE8+KvqB1PJyXJJIAUBAM9KlD/gcEa+TNFiLSwzHFPZGDkIH97EpadUqTxHsRSR39iTfxNZeZu+iNwKwImjWE34fSPtz5spy2seAVXtxOQfWaGfHJ9l2T2bR4QSV05AVf9nBUMa9ka7xXeq+uHKBY+o0NLCekWbK8HuHPNU73Q6t49QodG3AtizBLct7A7ARUv2e99Gw6DwM03AjhADOM+pP+T7yGndbveBMw2Xyo8nYEuxAGKdUuz+Z42vbfpXWJY5AKcn6HD5zlfk86V2kqKNURVXamURebkTe9v3f/ZKdfE3EmgCARF5SKIx6dymbtE2od1aIyOAb8UOyrafW/fEKwsLC7cEcGisrs73Wx7xXXu93oNaY1AjFMmy7GEArvDgp6ofG1ENvyaBxhGwbKRhm7DIy8Mk11zOwFiNM4dqBQ5pLCcxqlHXXtjtdv++WumL1RYm/wM8Jp9EZdiRzH2yLHtiMY2adVWn07m5l9Olqv5ycXHxps0iQGlJYGUCISR5iheUq1T1uSvXzl9nmoBj/vVLsix7ep1gho7180QT96iHoZjvDxGRdatWrWrNyQER+YIT/8tmYbWkTv2HslRHIDjI/sCpr+THoOvalsOlulaZgZrm5ubu53Usy463iMhL6oBtbm7OHP5SONnkO1eqz8fZUc2mv+0CeIHjgLZNHeyKMpBAKgLW3wHs5dhn+uOT5Q94ayq5WW7DCQD4T2ej292eaKeFBcDHRSTWwbHfeab577l2csDS5U6LZdl6LSqi11EnC3laVg7eRwJNImAhrUXkv53H4/4YZvkDWrO62KR2rbWslrnKKy57znAtv3ulJwSyLLs/gKNzMvQNv+n/XmYnB5pyxjfY01Ee7WAOUouLi7eodQeicCTgTCBhvJLdLRias7gsrukEgkOgS2a2gYH/B3b+PiUfy28gIh8CcNVA3R4T/96q+rME5ZaRzdpnT/OqT8kztmwAn3LitdGOSsXKw/tJoIkEROQNS6uzpfO2rNAH9zXn3CYyocwJCYSEFWUmpiL3HGQeqfZ26KUCgMfYZOPowzCoxyH9p2U76ghgbwDXrdCxBu9P9bdtb+xXx2M+AJ7nyGdbL1thOSTQRAKq+uJEwct+lGXZbZvIhDKnI2CpK/d1HMCHTYAX2vl3VV204DyTqGIPD3bSAMB7AByXWM7zhgXrsb1tW45PFM97GK9x3x1poYbrkA53fn7+3gCsfcfJXOT3L05iG7yWBNpKwE4GpXjJsWO1k47BbWVMvQKB+fn52wH4tdMgPm6gtzfZU0Tkuxbgxfa9VPW1S9GxXiYirzbP1TDZf8329lN0ghF6XjnuSKNtO5iDnoWlHVHGON29fz/FVnCmtV9uuQ4cgy0db/Eb2ClJgAT+TCBkML0kwVhzoojci5xJYBMBEbkLgJMSGJv3pJeivOtF5PmbYIz5YGk4w9bJmTXhtWEaJwcAfNRJf4uQuPUY7PyZBGaOgIg8AsBZTv0sP3aerqoPnjmgVHg0geBRf24CY8sbXu0+lz1yFs7wWr7v1FsTRZldblsVVTzdq2rPIa/Esl4MWjK6T/IXEhCRrQCcnGBcvrCt0UhpNSUJ2JsYgLMTGFvRSWwa151tKyAlkdltq0VkAcCBNeF2TcjC9/AInUbeakcTAZzvpOteIyviDyRAAssEer3e3bzCaw/028u73a4QMwlsImBpVxPECJjGxF64TvNJ8AiYEVJ+WgrcupwcONAeTjY1buQHOyEB4KcDg0hhzgP3nUyv5MgG4e0zQ8CCgyU6nny1OWjPDEgqOp6AvRGbx+jAgF12oG/KfduPJ1PsCttOCcvxf6oJQwvSE31yQEQ+4KSPxW94TDGavIoESMAIhERn33Pqg/lx2V5YXkXKJLCJgAWOCMff8obS5s9XeefUDg9SdnLA66hcFH9V/X3ZkwMAnuG1smEnPzYZGj+QAAkUJmC+RyLy1QQPAZY/YMfCgvDC2SAQAr2kOI4SNZkl6AAmz0mdTufW3i1rZYaTA2ckkntSlssnByx7YhFd7QgkgHOcZP9GkTp5DQmQwEgCq8Mx6kn7/djr7aXPYzt0pOT8oXkELC2riPzYaQIYa4RTrmfXVC0Uzs7byYFjp6xjvw2WTw5YQJ9ROu+4445/5ejgeHrRh45R8vB7EiCBPxNImD9gz35EVLImgU0Egrd7Xc6/9ycx939F5B83KZ3oQwg1bOF93eUvUaadHNi72+0+dlDdEPzIQ8ZrUueIGJSdf5NA2wksnch5XYr8Aar6nWkFGWt7mzVav06nc3sAHwGwscRE4zGRVFHGxXYaooqGCvkN6nJy4EbzNO6fHAhhmF1ONIjIm6rgyTpIYNYILG1dbpMif4Ct+lqk2FnjSX0LEFhYWLhTzULjmhPL/gAOd3ow+WmV8fbn5ubuV6eTA5aWd8lv4WIPll7HLAuYJS8hgZkkoKpzAC736K8DZRwVGSdlJttjZpQOKwLbA3DJBz9gfEXe9i164ScALAe+CQ5rLhENReRdVTekJesID1a1ODlQoj0G2+xMe1ismiPrI4FZIwDg8QAucOizm/VhOz1kR5tnjSf1nZCATcIAdgLwW28jHCjPjPwrANYOc1YRkcwpVO31qtqZEIPL5bmTA+Y4t1mHbNDf15qvgwsQFkICJDCWQJZlDxORPyYYI85W1UeNFYAXkIARsNS6ALYFsDuA4wFcHWGUdnzOlvf/1c7qm2f6OMqOMQzM6bHQcblxMpX53XQNzpdHRPCbygOEqv57GZ15DwmQQHkCIZpriuRuF4nIk8tLxjtnlkAII/sAe2sXkTeIyNtstcCS8QDYTVU/JyIfWnpzf6eqvtk88c1BTkRuVQZalmU3A/Arp0lznzIyeN9Ts5MDKz5UqOoPq/Sh8GbN8kigyQTCVqjX+Jfv6+b8rU1mQ9lnhMD8/PxDAVzh9BDwyrpg63a7fx8S/lzrpFu+g3t8PtcSmNSFF+UggVkkEPyzDkkwRlwtIi+cRabUuWEEROTVTh3gCnugqJP6lio0bHV4PeRET/4iYqcxUCdOlIUEZpVAWAndx2kMzI8PNwB446xypd4NIuAYO/tYy5FQN9VzJwfcPYBLDhynWehjS15SN1aUhwRmjYBtxQH4Ysm+nJ/0h33eadZ4Ut+GEQhLYX9w6gAfr6v65i8RVjxSOAAN6/zjvjs/nAq5e12ZUS4SmBEClj/gw05j4GC/36WIY/aMcKaadSQQHOg8otrd0I+UV0c9TabcyQGvoEiDHX7Svy39756WU6KuzCgXCcwCgVT5A1T1S5brZBYYUseGEgDwbqcn4PMANOKtNndywPbsJp24va+/HsB+IvKEhpoQxSaBxhNQ1ZcCSOFAvD+3/RpvHu1VwN6MARzsNBEe0KRlLwBb1+nkQC7nwOr2Whw1I4F6EhCRZy+tBlzpNBbmXxQOm5ubu2M9taZUM09ARO4FwCXMroi8pWlALUjIUmzvz6iqvY3nO+60Pv8awHbDIjo2jS3lJYEmEQDwDACXJRgHjrNAcE1iQVlniACA5zkZ/TVNXM4OKwHTmvBH1WtOmtuXDfzURvMNvhxb2bFKVV0MDp5vFJH/sEBaIaDWy+03G8yzLLtnGzlQp3QELAX4Ukphc9Yd1S/Lfn8qgAekk3x4yRYASUSeFvrEy5ZyI7ze/B5U9R0hwJwdC3+BhYvvdrsP5IvHcI6t/1ZEvuBk9KdkWXbbpgBT1Vc46V12YBh336UW26Db7f5dU5g6ybm61+s90h6CVPXrIRujOU+O4zX4u2WEOzI85L2SSVycWqfFxYSAaRZufdCWYv8+x4KWpUIXVnO3C0cczeG5TPZSC1F/ooh8U1XfKiJrGME0VYvVqFx707SG9zD6pWX1/6mRaiNFCcmaahM0aAz75ZMDqvrgkQo1/IcQpMVWo/YCYI6lsQPuqPv/EB5455vkt9Lw5m2U+L1e7z6Jkrhd7JgQbHW3230KgM8AODlhf7loyWdqX1V9MZ0aG2XGkwkb3rhcHGFE5J8mq73aqy2AEYBjEnaaUZNP7PfLJweyLHtitcTS1WbbRmEQc/FFmbBNz1TVD4rIQ9JpyJKbSMCSnonILya0pyL9+wpV7ZVlEvyW3pV40h+lx2X2gmdbbGXl5301JiAib3Iy+MttT6muqjpueYzqKMm/b/rJgXAk8yAne4vlbcdCeSSzrh12SnKFNOQHJLBRO3b4sknUCiuWeyY6slim/yw7LHOLYJJWrP+1FiHrO04Gf0Qdg2FY4g4n/cp0Gvd7wv74dnVkPczcQzrno2rcBj9oojPrMNb8Lp6AbU2ZH0oCe7U8IW8eJ6GIPML25AHU5aTS4Bh2gqq+aNWqVTzCPK4xm/C7xdIHcLaTwb+/TjqbJy6AS510+7w5qQE4y6m8wY416d/nqOqO8/Pzt6sT874s5pWfaCCdlFOR621FYE/rC335+e/sEgj5A3ZN1M+H5g+w/XbrzwDMMa+IzU77mkPsYWV2raRFmne7XXF64rxeVefqgCY4mR3t0ZnsrXtxcfEWplco17xvXZwoHeRbPjlQl7PHtjIRjur9yUG3qgc5OxI20VJtHWydMiQhsDrk8khhg5/JO6Sq6nMBnNnA/nINgJ37Y2OSVmCh1RAA8BEPAxSRPy4sLNypGqlH1yIin/bQB8Dlw5zGwjn1hUSOQ2UGHXtz2HOaaZvtaJL5KjhxL8PA6559165d+7ejrYu/zAqBsOrnHkrclvlt9S6kNPey22mVcwJXAxreI+zNDcBhHoO3iHx3mntEjsGOrENtO65p65hzQFWfNE5uz9/DXn9dUjJ7DIR/aNPpC8+2nrWyLFpnImc8i1vhYatTL0NEbMXvVbNmG63S1wKneIXHVNXXTgPO/Pz8vR3DHX9hEh3saKWqfg5AmSA27p24qpMDImLHlNzfkmowOF5l56EnsQFe204Cqro+THLu/bQGdu6pE9MjN7kLhGxZHgZhMQa2rpJFWMU41KlDHV82EEav17tbcOgpE53Lg/1gGSfZUqbFQ3BuDztF8jEn3oMy1+Vve7D5N2duLK6BBLIse7qjU3Fd7DuFHPsmGGsaaDENFRnAl50G9eOrdBBxnIxcHl4sTLJNvOYX4cQztrMunxzodDq3jzXNxcXFmwL4Wk30iuUy9n7bq807bsXy4/3NJGDhcgFsmBW7j9Dz4LqeUGqm5VUotTXc0r6XJbQYOzCOu8ac8aoQ3aJteS1Di8jLPWUOk6XtI54wjldFv19mE1rZBDrhmNQ3KpI12gYd5dzF0y5YVjMJWIhuAJbAq062WTtZzEGaCc6aaeOrVPVxAOyYR7RhWf7tlBhsInPM6vW1VLL2Tw4A+LkHV4cylk8OZFn2sAl0tuNRFhMh2i6aWIY0MA32BG3LSwsSCGPO8U204Ypl3o9ZBwsaVd0us/PcTsZykTnnpdDPjAvAT53kPLmq7Ibh5MDeTvEXYifj5ZwDlmxkXBsBeJ8T6yIym1y2EvUDABaY5eNWf4jn/1+WCU1Vf1jxFov5BIw9GTKOI39vPoG5ubk7ArBMfEVsuaprNojIjwHsBmAXi2UgIu8F8NHgoLx/yCtg4YkrkclCsU/zVFjzLW1KGtgbqw2wTobykxRxpG0ycJLvqizLHl01aotWGM4CuyRmcmBh6XS3G9ZWIvKPDuWPG3QsbPD7LaDUJE6Y5tdgntrhISFltjST/2pbIavaVlhf/QiEzKrfr6BfjOo3Z9g2q4g8f5JIliGg2T+EEzzmOJ36FM8b69d6lGgsAYswB8DrfPfbx1Y4wQUi8kyvN2gR+ecJqna/dG5u7q41Ozlgk+imkwOW7MnriOiQwdIyA+5sCVC8wIrIk+2NJ+HRrVM9nCm99GU50yMQfHwsrfWoSdr7+2tE5H/tIdnLMdWOgIfxxyss/KDOtt34+Om1EmsuTQDAWqcnxGu9AtTYhAngHI9OZzHrS8NxvnH9+vW3CdHH6hIa9Nyw7P4bD9YDZWxQ1beazs4YNxUX7GQnABsH6h4coMr8vQ+XNjehnukPtmImIv+dwMbydmnxRT7V6/Xukwq2Hd+zl6GlkNinJ9CFD82pGi51uSGHe94Yy34+NfZ4iD31AjjQyUDN0O+Qmt+k5edODrTR0eg625+s8g3awhQDSHFy4ZWTti2vby+BhD4yB/R6vQdVRc6232wrLkFyoi9XpQPrcSRgT4YALCd02Yk/f9/eMaKFpap8eWU/X+O1IhGjz5h7V1uY3ZbE2Ld2Mqe+qS0F2okUr0iRoS9cUIfcF2NsiD9XRCBMnLalVXZMGrxvowVnq0j8LaqxE0IhBfmgXKX/tq3bLSriF/UnYHu0XnuqIvKSMhqHaFz2BlnaAPv3isibysgwrXvMSx/At738HvocKvzXIoRFByGK5W9LqF55L4xd8HKOFYv3t4BAeGuOHptCnzx+wiO6SQhaMDc7ceM4TpxoK5xJhGWhaQksnbd/nZMh2JPtgyeR1rxclxJOnOVR/7QTFk2i9+C1lvEvdMha5Bwo0h51i6Rng5qqfqeI7AWuuZ6JgwatdPb+DgGCzNkt+gFgKbDZEXV4WM63YjgW7nJaQETeli+bnxtEAMC3PIwcwJFFnwTDvr+dB4/uXJZ7uw3Ltt1u9++C9/wlTlw82A4r4511NO8QQ2JPJ3YH1VFHylQdAa8Q6iJyapUh1CchJCKvdnIIv6iqmCuT6MdrCxCwXOleXqIi8qECVVpkwn93GqivLRLwpohMdbkmd3LgDCdGwybxst/VOnyueW8D2MeDmx09rItNUI5qCczNzd3PKWXwxXV78x8kuXQs/PVO/YWrAINwm/K3iDwNgMdevC0prV1JbxF5gmNY4tYaXe7kwHEeHTS2DBH5ahOOydnblsUtj9UXwH4r2TF/ay+BEKmy7ENy/74LReQuTaAE4BMO/WXDJMG+msBlpmQUkQ84GIEZ/wZLoTsMXlhtOM2jHotq6BU4Y5isNfpu+eQAgEM8uJUs44QmJQKxUNUOpwNuEJFH1MgOKEoFBADc3eG43JW9Xu+RFYjrUkVIve6R0+T1LgKxkOoJhD1UCyPZf4KN+ff7Q94WLfGMl7/BuaMeMqonV12NdsxRRL5Z8cmBK5s4EdpxSwdb/mh1rcua6kBARN7iYDevqoMuk8gQYmtcFKn70ZPUyWtrRiDsfXk5oW2fV09V3xxpXP0HEksqM58ve9Y+WxCRsEyZ/OSAxWloKl8AlqCpbzdl/j2X2c+a2vrl5HaIj3LIkJefcsJUfJeqvjayv9zYpJWPivE2ozpVXYw1gnD/poQ83W73sQ7LassDuCW8aAbJ9FLaKkjYurnYqc0GJ8nzLWhUek3S1BDSvF4ew0ZEsjTSsdS6EbAEYjG2Enyb3HJgVM3HnGhV9ZeRDHauWm7W50wAwB6RRtCfSE62BESq+nuP8iw1phmps7qNL85ODoQVFu+TA7U88jdJgzkEc9lzkvp4bXMJ2CmmmHGqDUGkRKQbwwDAGc21AEq+TCCkxfxtpCH0HwJOcSrnPDsrzyYaTSA482wH4FgH5tdYeaNra8YvIc97zCrA2c3QlFLGEgDwq4h+c12V8f1jdV3pfgBRDoGTBoVbSRb+NiUCIrLGa9k+olP1HyKuV1VMCUUTq12tqu+N4W7Z0Jqo+DCZLetaDAuL1jisXH7XHgLhQdH8i/pjzqT/WjbJVvy39ALxvAgON5ovQStAzLoSAP4txhC87rV97llvi0n1twx9Efyva0N0xT4zVX1cBAsOaH2QLf43dtITkXVtwRNikFxQts/UKSV7W9pkKnqEkL0HlDUEp/sOa8NSdNUNGOnN3Jq3mT53ACdE2GNUxsu+DPy3vgQsv0WEfWxo2xgVmTL+vPq2NCWbiIBFswJwTkTnmHQpLX/9RZbtbSKBefGqEBK39BHBstkd64w+xsFLRM6yuOn8v9UMTiw7xqnq/9TZ9svIZqdfyvKw+yzZW5l6eU8NCSylW1WnpBH5yX3cZwsr/Kwa4qi9SAAeENN52/jQFWx4nM3x9/J74DPLro0PzJ1O59YxIdtV9am1HygpYHECTvGiJxkkGIWtePNsdqXlY4h4ADhts8Ja8kc42eKR72ISG+a1M/BAISJbtaSbbKYGgJjIsK/crDD+0WwCWZbdDMDRERPLJIPhEUVTCzebahrpReRNZdtJRL6bRqrpl+oVj6IsW95X2sN+krGj6ms3NjXy37geaXENytps0cyw42Tg7zUi0O12Hwgg5kx1kc55cVufqKtqypjgN6r6sarkrLoeAN8rO6DxvlZO3kXGo3HX/KpqO66qPlV9a4Td71aVnKynQgIAXhVhFOM6kx25elGF6rSyqhiPZlX9l1ZCWbVqlap+LqXtsuyZfEj4Xov7S+mw8DwK2FarWLVqleWGTzTYfarF2CpTDcBuZdtHVV9amaAVV5Rl2ZfLcuF9Mzm5j31hsTTdFZtxZdVZ8LUIu/9BZYKyomoJdDqd2wM4LcI4tuhYIvKbxcXFW1SrSTtrs6fvsm0jIs9vJ5VVqxzTUW9hv2V5877GP1gc0db+IiJPjrDPn7eVC/X683LqUx2PBlrO+YcQrA8BAPuU7biq+lwfKepXCoBvl+XC+xo/USd5aLPsefWzdB+JROQJEXZ/mI8ULKWWBOxNMcI4NuuMS5nsLmOiH79mjszmuJ2fJPUqCcBeXjbLcvhAEGygtW+6AOYj7PzAevV+SuNGYH5+/t4ALowwjs0eAEI5B1voYTchZ7ggEfl0RNu8rq3o6ATISTuiXwwbs+y777e4vzynLC8R+WZbucy0XiHlbEyAiFEdyU4AvHWm4TopD2Dnsh3XjhA6iVG7YmxQiuAy0m5Z5kw/WBxaO0N3EkhE3hBh23s4icFi6kQAwMcjjGLcIHqN7TvVSd8myiIib4too280UeciMgM4LoLLONvl7zMQ9W+I/VxYxPaaeE1kRtFPNFFnyrwCgRBi1mL0pxzsTsmy7LYriMGfxhCITG163JjiG/lzp9P5GwClEyQltvmU/Yllpx2vbrSEaY3sFGOEBnBghN2/fkzx/LlJBLIsuyeA0jmiJzQkLh9FGEev13vkhLzzk8T1CwsLd4qovpa3Rh5pyvPh58QTaoTtTqVtVPU5tTT6CKHCA/NlZdtCRLoR1fPWOhEwY1DVn5U1hjL3icg/1YlBk2TpdDo3B1A68U0bjwKq6jvK2KHdo6qXmgMh/28vAwDnRtjHJ5s0PhSRtdvtPqUsD7vPHMWL1MNrGkBAVT8YYwwl773ccg80AE8tRYxMfLNrLZWKEArAT0vaoS3xtjZBUgTSVt0ak/gGwEmtgvHnaK/vLdtfAGzkia6WWETIo359hDHELMsdYacOWoKyUjUA7BnRZle0KSpjr9e7T0zQKlX990obj5VVTkBEXh7RX+whsU3Oy6sjXyAOqLwBWaE/gbm5ubsCOCemYzjc29pjaf4t9pcSLalPDPul4Exv/ktpzf4E4D9jWGRZ9sRmE6D04wiEh8SYl5XPjKujKb+rqkV5Lc3CTiE1RVfKOYKALeEAOCjGEJzuvV5V50aIya8HCAB4AIDPisiVkfwvGSi6kX9mWXazpQyWZ0WwuMx8YBqpPIWeiACAUyPsZGNbnGdjQokHfo+fCDwvrh8BVd0xojOUfnocVqeI/LEtnStVS6vq40ISILftmjY4Yqrqa4fZVNHvVPU7qdqM5daLAIDPF7WLEde9u14aTS4NgIcvrZjFjCEX84F5cu61uiPLsqfHeJEPdI4/DPxd6uEgOGKtrhWo6QuzWkQyAAd7MB5Shjk3NZa5iNwKwJlD9JrEBredfjNTgioIdLtdibSVi7Msu3MVsqaqw+Htf7dUsrHcCghYUIvIJdP84Lp/WJK+NLJj9ctsbZz6SZo2hGPe1lIoO3Ht8x32b2MnQAA7RfLZ2Ol0bj1J2/Da5hII256xD4yNnQDt7H5kf7Ejs53mWsCMS24dQFX/L9YIwv1nzs3N3dGQishLnMq0SG5bz2oz2WQEYHsApzvxHDbhD353bhO3X0TkEQCujuS056za2qzqHZlHw/rODbaC2jR+YbXspMj+cjqP/zWt5XPyAnh7pAH0J49rLZBEruhVqvolp7KPX1hYuGW+7LZ/tlWZ4JPhnYGx317j/v1ek7YCwmB2fKy90fm07T1rS/3CHvi4/rDi76p6ZtMemgHsHttfALxvS6L8phEE7Bzr0gPANQ5GYJ1jh0Glw9tr7BNmv+O15sjNIKf8371e70EhhW2sR3+fW+l/m3QWHsAeDnZ8dJMeevJ2w89xBAB8z8F+jlpcXPzrOEmquSHH/pcAACAASURBVHtpRfFlDvraGHX3aiRmLa4E1q5d+7cAXJz1LD/2qGUg81T3esgQkWe7QqhRYXbuPDjjxHjjlp7sRwwGN9hWTo0wDRXF8fTK84ZWwC9bT2BpG/RJI/rApH3qqLrDEpFnOiXJ2qXuulK+4QRWA/iWk8Gf2+v17ja8mj9/67jNcFHL4k2bR/86AD9xaotJB6si11+tqr2V2neavwF4nRO740c9xE5TP9ZdHQER+bGTLe1fndST1RRWfUsn/MnxuaZlY/FkIJt8tUV8yzVkkUlg1DWFAvbYwOoYYOiQpiyzjbKRxcXFm6rqSxuUq94eAl40Sp9pfR+S/bikqhaRF05LD9ZbDwJLD+LPcBoXzTP+c3V7oAxHHi930vGz9Wg1SjERgbAkH+sp3X8geGfRytetW3ePpbe18z2MT0T+o2i9dbouy7LbishbLMiRB4eKy7g+hPuceowAi/QX/CT6dhj1r6r+sE52QlmmR0BEvurYr/Zev379baanzV9qXjrm/SqvrVhLEd8/7fWXGvip9gQ6nc7tI0Nfbhpobbls0jdxW0qOSdCS65jXWq732gMPAuY8+i/K6bCJZcO+O9DyRUyLvcVvF5FfODK7en5+/qHT0of11ouAbWdaZjtH+/rdNI8xW4Ivh2iHm41VSyceXlGvVqM0hQgA+IqTYW/odrt/V6jSgYtE5NNOMpxhjowDxdfqzyzL7i8i/yUif3LSebOOOMUyzwkhgytbDbBASLZ6AsBrCXOZpaW9rpXRUJipEjCfHBHxOhnV76/mLf+eqrNtisiC1wtff6yxh++6bW1M1WCaUrmjs9T1tpdUVu9Op3NzAMf0DSry373LypHyPhFZE1LzXhepX38AifnX9sgPEZGLE8hizov/kJKlHcuz0x8Aos/4D9H/GLPHxPKz+IYQsIdax2XyYX3WEg9tmzpuPoDHALCIrMNkiPnuMlV9cEOak2L2CfR6vUc6voVGp+q1wBte8pgzXV/PKf9rE9WCqv4sQccr02nNz2NPY21cQsjPVEcMf2KTtDk3erWBxZAIjpLHJuJ5mcVc8JKX5TSbAIA3Om1Pju2rqvp7S1jluYJp27GqCsufklCPbZrdyjMofQjGc6LTIHqYLcV6YIzN2JbTZ+M0n0pt0ltaZtsu0Rvq2MEkx6F/7WVh2+Feg+0kIu8dcn3/Po9/z7ctHltGNYfHwfrH/W2+EuaNLyL/67wPO0w3DmbjGmRGfrdodon7xTD7s++uCtk8tzUn6UlxW3TU4Nn/UcdcLqNk/fyk8vH6GhAIg+moRp3k+4vMActTJcdYBBaBy+3ts4iO5t0bYvTHJhKZpA1WuvZcC4iz0luFvSUkWhocJte1AI4E8OWlVKP/KSIvV9XFMGCpfRaRV9vgGwZBW+J3OdI3bjBX1Y8VaWNe024CoT98dpy9VPj7SSLyzZDQ6jUAXhAcp+etv4TofRa63aJeHu6Q92JYvx323c+r9l9ot+VVpB2AVzoZrw3Mz/IWO0QjdElyo6of9pZvWHnmAR8iz6XYUx/W+cZ9d7I9iBTdyw5ewT91sotxstXx96/QiWmYZc/Wd2Hlbq8Z7gdF+6Y9mN9htqyjBdqGBBdXOBn4R1IhEZGnAfBwlrOHlLWp5LQUx7a0vpTzYOox+kOb2tv1dvYWM6nO8/PztwPwayfbKDqQTP06O+9vMQQm5cXr20UgbIseMGv2P6m+Fq/Ee9W3XZZUU23CW57XAH9E6uV1AO+f1DhHXL9hXFjiSZtMVZ8KYO+lZexUDnSTTIwmw36DWRcn1cmuz7LsnjXyW5iEQalrbfK3gb8MK97THgJh1fHnI8aPUrbV0rLOEJGHtKflZ0gTALs5GeXFIrJVanR2LAbAoU4y/yA2o5stEYcztHUZKJY9+rMse5hnW9hgWKNTC8kGX9tXLbpF4smXZdWLgGWum8WVrxLj6gmM818v2y0sjXlRl2jwoYNvlfHf7UFj6SjOJU6yv7EwsNyFOY/+E5zkGMp1grKXPfrtbT0nputH8ySu0DEwlkeZ+z/FPX9Xk2lkYXNzc/cDcMoEfa+MrbXhnsMXFhbu1MhGnnWhbZ8awKVORl55qsfg6erRia7KsuzRRe3BjqyZI12NYvSfY46GFrq5qA4x14UzxDvWZJvDo/2tDPPV2D6GC+9tB4EQmGuD07iYt886bAvm5Yn9vKe9ELSj1WdMC3NuAnC0h5GLyG+mdexDVf/HQwcAJ49LxGH+AjXz6D9pEo9+bxMPecLPceIfOxjF3D/V+Ove7cLyyhPIsuzpji9FeZs8IcuyJzrnpciXX+Vni/BXu2yf5Vt9Bu8E4HWe9fJpOn+IyK0A/NZjEhKRLwwzBYuMGLLJXeVRT2wZtg9vPgexvgvDdJ30O8vxYI6GsTpN6X57I9uVzn6Ttno7r7c+5RVxdMCej+gvk4fMlB8GYHEvqpy0veo6xFaO22kBM6KViDzfy/hU9cXTxhaW7FxSFuefbINHv01ulQScGdMmyx79dc1qGJwgTxujg9cg5FHOr+rKctr9aRbrt5j7KSZlO00ybGXRopECOLBB/eUCC8RVh5eOWbRPN52Dc4uX81xtwj2q6ludOpOdZHiF4ymD2Mlq2aO/CSlog4OghUm9zKktYtkNu9+2LF5XJh6CWydkQbUiYNtoKR7y7TTJmDgSq0NY8D/UuL+Yb8wnqvIvqpVhtE2YkCLVKzf6cTVzALHOlCKj1bBJpIrvLrVAQmVifk/bboOT5A4ALqzRwGYRJLeflq/KtNuE9Q8lsDr49KToz58peprExuXwIOCVg8VDn41NHX+GtjS/XLUKwMedBuSN3mfMPdrHksMAaLpTWqUe/R7cR5UR8h9Y1jSvdM6TDmy2dfMTyxKYOjjVKAb8vp4EQlz/XZ3Gw0G73KmM1kGmFwD4vlO000G5ivxt/lRv7/sslNGD99SQgIW9dVzmelkNVVwWCYA66lmkw7hcYycp7C3AK3ti3donOFKa85NLLocxA/dxqvqOpRMi960bB8ozfQLBEe/rY2yoTL+2B85/9dAwBCH6VwBHVTCe2UvTLiLyBA/ZWUbNCIjIvQBc4GTwX6uZeluIY3tWTrqWGQQmuqdOHv1bgEz0RciTYJn9vuYQS8GcIy1gy27mkGqnEhKJzWJbQCBhXH/z6k/yYpRl2Z0t0184uWXbBLG5UM4NWQRfX8eV3BaYWX1UsLC5juFbTyqTt71qGp4xDhI9SCx79Nu54KrZ1LE+s6lut/tYEfknAO8OSZS+aDkVVPX/wpKo5VfY1VLzish/hCBQWzNkbx1btJ4yWZa6ROfwr1LV51SltW1n2cStqs8VkbcB+Eg4pryXiHw3nC6w/mIPxZ8E8B4ReYm94a+U/rsq+VlPhQRCruiJ3kpHTHpXThItr0IVh1YVohzWzRvd4gjsaUeAhgrNL0mABJIQsFj1XvFCBsbHi+24cBKhWSgJxBAI++H2tunxAPCaGFmqvDesAGxXI4fAZY9+Lk9XaQWsiwT+TMCO0AI4w2kczI+l53S73b8nZxKoHYG5ubm7ek2Aqvr12ik4RCDzXF2K6W7Hz85O0NnzHb/oZzvfu8P8/PzthojLr0iABBITsK0lAOclGA9O7Xa7D0wsPosngckJ2PlTAAd5GL2q/r7uE5h5e4d9440eOjuU8Wvz6Df/i8lbj3eQAAl4EFg6AvqMREGpjmtifA4PpiyjAQTMkcphErO33Gvq7KgGYGvbU08RwrMMv1n06G9Ad6CIM0hARJ4dMjwWXa0ret1hc3Nzd5xBpFS5CQRCNqvYYyL9zlDL9Kg1jdHPM7RN6CCUsfUELPBTopeC/WsW/bT1bUkFJyAQIuGdVebtdcg9+9cp8YNta4SEM4cPkbX/wFLlv8se/b1e70ETNBEvJQESSEgg+AClSN715bYG6UrYHCy6KgI2QYYz0x6T4Bl1WebKefSfVJOJf5mvqr63qrZlPSRAAmMJWFx/izTpMf4NlvGponH9x0rJC2aHgDnP2TERW5ZX1Z4FL7GUigC2AfAsAPOWytYi9cVSsfjNTsZ/bbfbfUqsPLH3W/SrkKjDK4LhYKeO/fvaOvtHxPLn/STQFAIhhr4Fjort08PuLxXXvynsKKcTAUuzq6qWRnZXEfkxgHMnNEjzYD9aRL5q0Z1scinqRW7XmsPehPUNM3b7bgcnJKWKEZGtgkf/FU76jNLT4/tTmhAZsVRD8CYSaACBsEK4T4KxwrYR3tgABBRxGgRsP0hV1wPYHUCqfM4Wyc5S3FrM5jsP09NCOzrW//1pLXXZSkmdPPonGFD2GNYu/I4ESCAtAVthBXDIBH216EP/1SLywrTSs/RGErDAEiG+corgEisZ6DWq+h0Reb499QZ4qwF8y6kDnNvr9e5WdaPkPPpX0r3Wv1kSmqq5sT4SmGUCIdDZ0U5jX358sZVYnWW21H0IAZuoVPWHCQwub3xFP2+w/XFLiuIkz/WqOjdE7SRf5Tz6j3CSvyi3VNddztMASUyFhZLAFgQs8NeSH1UKp+CLROTJW1TIL2aXAIDnLTns/aolE9WoCfCdVbRwSMW5fUU54Ufpmv/+PFX9nUfbquovLUtXFRxZBwnMKgHLggfgTI8+O1DG2ar6qFnlSr0HCFicZ8djdflJp1afzWHRvGgH1Hf9M+fRf+FAp5sWi1MBbG9BPUKubZfcASLyAVdwLIwESGATAQCPX/KHcj8VZOHOsyy7/6aK+GF2CdikYAM5gKtrMlltMUmKyBbflZR1Q8oMdXYywjz6ReRPJeXz0rNfju0ZbhGjX1U7ADyyJloZ87Pbe6g5CaQhYFuUieL6H2UB1NJIzVIbRSAsLx1Xk8mqP2ml+vf6brcrKRooy7JHB49+r5DEUQxyMfpHqisiH3Jq97MsK+HIivgDCZDARASWtule5HjMedNYYqufdU90NhEoXlyegL0ZAqhLNrlNRuo0KQ0r733laQ2/s2Ye/RYXYW87tTFc2s2/tWOdS96/hznx/l6dwihvrin/IoHmEFDV1zqtzm02BtqJqsXFxVs0hwQlTULAgu1Y8B6ngX8zI6txmT8tGmRoHPQwcdrD07E10fdy23aYn5+/9zjZB3+3fUAAlzrp8brB8vk3CZBAcQIhrn+KMXVPr/GvuDa8snYE7Dy9qn7dacBPYagpyrwgy7J7xjZGzqP/jJrwWz4aCeAOMbqFlSAP7pYsaOsYWXgvCcwoAYvr/7EU44q9HEwr2NmMtmU91e50OrdPFEXKY/JIVcYNIrIupkXMYSbE6K+FR7958JpHv+dynqp+yWnwOZ7pQ2OsjffOGoGwImvRVb3HwBts3Jo1ntR3CIH169ffxs5tJzAyb6N1Lc/yDAzBUegrWx6vmUf/Ufa2nuIIY1jd8Ao08tlCgHkRCcw4AXtYXjrq970E47I5I79qxvFSfSNgwVoA/CCBkblO1onku2TSZWnLVtg0j34PS1fVxzl6Hr/AQyaWQQJtJWArsnZaJ8G4d7VlYW0rN+o1AQHb+wGwVwIjW2nyt0n3CBH5rnmlm8NhWGLeN2QNTBHVaqQ8IvLHXq93nzHYVovIAoADK2Y1Sm7z6N9TRB4xRm7Xnx1TLF9UxinRVRkWRgI1JWA5SAAck2Cs2ZjqqHNNUVKslQgAeF8CIxuctI4H8AnLFFg0uY4tOS9FHXxSmHBs0vVK7TsoW//vXw/bMw+rI+bRX5dYCMse/SJyr5XaNdVv4YHxICebOSTFdkUq3VkuCVRBwNJ/AzjZqY/1xzf790JLk16FDqyjAQTsSTDFedJguBcEr1UXr28LTysib0icg2DXfrOZT4Q50iWKsZ3vlEU/L3v0W6rjvozT+nfdunX3AHC+xwClqu+Ylh6slwTqRsBW9Jb25s/y6FsDZZxV9Wph3dhSnhwBC3cLYMOAkRSdjFa6zhJIvNne4HPVuX601JQAfppA9htF5J+DR/9FKcovUeYp3h79Ho2hqj0AN5TQZ9B2rmW2MY8WYRlNJyAiTwNg26ODfST27xOntWLY9DZprfwADnA2NFui30lEblUVNBF5/tLDxmXOesR2Nq/7j0zl0e/VPiLyaSf2Z9RhZcOLC8shgUkJ2FHkFPlB7GSXrZ5OKg+vbzGBpbzR2zgN3P3J7tcAHj4NZFmW3TaRs0xftyr/tTfq/ZqSPKfT6dzci70Fn5qG/bBOEpg2AVV9cSIfpx/Z+Dht/Vh/jQhYogcALqlew0PErsOc56pWGcC7AVzr/GBT1eRvWRa/OD8//9CqucXWF5JFXeHE/WWx8vB+EmgSgeDX5JF1c3Cs+pY9oDeJBWWtgIAFrnEarO1t9V8rELlwFZZxT1VT+DUMdi6vv22/b+eU6YcLw4u40PwmnGxqo4g8JEIU3koCjSGQKq6/qv4P4/o3xgyqE9TOXTstNVkUqW2rk7x4TSF5zWlOE5LXRL9ZORZ3QFXf2qbluaVgSvs6MT/Kjl4Wb3FeSQLNImBHX0Xkv536y2Zji/lhMetms+yhMmkBfMrD6GzZqjKhS1QUHgLO8dDVuQyLh/CyNk5w5sS3pNvpTrw+UqLZeQsJ1J5AiCuSIvCaxfV/a+0BUMDpEJibm7urh5epiLxrOhpMVmsI17vRaUIafMqe9O9DLIpg25/MwzEmWx2alM/g9ba9tHayFufVJFBvAnZCKlHI9etU9RX11p7STZWAqn4wdmC20L1NmsRE5CWxOkfcf72IfNOiGU614Suu3DGy5IaiUSMrVpHVkcDEBMIK2aER48ngQ3L/b0ux/byJBeINs0MgpJOMXRI/c2Fh4U5No2YOMQk6Xb/zDfvXOuSuvV7vQU1j5SFvsLWfOzH/QZMeOD34sYz2EQBwdxH5jVOfyI85lzflyHD7WrVBGoWobXnDmfiziDy7QSpvEjU8eVdxMuBiEfkA31pXrbKoYwBcIimKyJs2NSY/kEDDCMzNzd1PVX+fYPI/1049NQwHxZ0GAct5H2mA9ibW2P/M8S5S/5UemM6w0MeWO6CxgBIIbulGnZhfxYEuQQOxyOQEgh9SipeP02Z1hTF5o7WtAovJH+n8d70Fe2k4l9Veb6S5Se1YC9W7Zs2amzScTTLxAeye47XSQ9S4307mA1ayZmLBCQioagfApU72n+8fx2dZds8EIrPINhIQkSzSCPdpAxc7HxvJod8JD7YtFe5Nj7eK4PX8WyfuXxxfI68ggekTsLTnS0F+rnSy+/64Y/8e0UQ/rOm3yAxLICIfijHEtuSPDs5ppTvl0hlbC3f7+Bk2pVKqA3gMAAt1nB/ISn1W1ReVEoI3kUBFBGxVMFFI8oO4ClZRI7apGgCWVa7UgAvghDaxEJGPRbC40QIMtYlHVbqIyFtiuOfuvWTpVMd9q5Kb9ZDAJAQsbbdTiuzB8for3GqcpCV47TKBkPgnJjDLDm1CaR65kR30lW3iUaEu5oOxf24iHxzgJvn7cA6GFbYcqypCwOx7Zyf73qwvWMrtHXfc8a+KCMFrSGAzAhaEJsYoVfXBmxXYgj8AWOriG5ciGm7W0Qpy+kQLEExFBRG5C4DYWBT9Nnv3VJRgpSQwQMDi+lvcj4LjR99+i/5rcf35HwmUI6CqL40wzLPL1VrvuwB8PILJ9+utXb2lU1VErsD0B06LsvjMemtL6dpOIMuym6nq1yPGk749D/5rcf3f3HZ+1C8xAQtME2GcX04s3lSKDx66gx2u6N+nTkXoFlUa+QCWb6cz5+bm7tgiNFSlQQTseDWAAyLG17wt5z9fa3FLGoSCotaVAIB9yhqoqv57XfWKkUtEtirLBMD1nU7n5jH1z/q99tYE4OiINtg0WFquhVnnSf2rJwDgDgAO87DhgTKuCEeMq1eKNbaPgKr+bMDANg2e475X1ee2j8iqVeZQE3NGd926dfdoI5cqdQLwAACXjbPBIr+LyKurlJ11zTaBXq93HwBesS3y4/HFqvrU2aZL7V0JADimyCA67Jo2h1+N6cDz8/MPdW2kGS3M0pcOs7sS312pqo+aUYxUu0IC1vcBnFHCRvMT/bDP5hy7dYWqsKpZIBCThMKOzLWVkUXUKtuJVfVxbeVStV4AvlK2HQbuO25xcfEWVcvP+maHgPV7AOcP2N2wyXzS7061FbHZIUlNKyMA4LyyBptl2Z0rE7TiigAcVJaLqs5VLG5rq+t0OrcHcFrZtsjfp6qfbC0oKjZVAnbixGvLKm+zAI7jluJUm7bdlcckwLE0um2lA+D7Ax1xkqd2bSuXaejV7Xaf4hQ61Y5OrZ+GDqyzvQQsDXqMz9AK48xhPMXSXruphWYAzlzBAFec9NqccSrGOdImrFo0bouEWArK9K6ydjpw3/ndbvfvWoSGqkyRAIDX2MmfARtbcdwseO1+3LKaYsPOStUWy7+gQW5h1G12dutHAyzDhg5n/r0nnMz4UZn2GLxHRH5s0dn8pWSJs0Rg6a1/h0Hb8vhbVb/EUNazZElT1BXA4WWNts2R1gBsKMulzc6RUzTVVbbiBOCCsu0ycF+rclhMs11msO7VqvrhAXva4gWp5O+7MK7/DFrUtFSOjFT1mmnJnbJe820o2XmXBwHu26VrHYs9EdM2uXuvbUsa63S0WfIggRDX/4s5O/Ka+K0cxvUfBM6/0xIA8NkIY/54WummU7pNDBFMLp6O1LNTq1diFTsCm2XZbWeHHDWNIRAiVJaOnLrCmGLZWFv5MhXDm/dWQEBE3rSCYY57uj2sAhErr8KSbJBJ5dgLV2ihlkXkNxFtlLfrvQpXzAtnlkA4jnqIk83l7e9qEXnhzIKl4tMlYHGlI4z6OusY09XAv/bIvPR7+EvEEgcJiMgjRORPEba7aRBW1RcPls+/SaBPYG5u7q4AfuVhawNlbFzKF8Ajw33Q/Ld6AuawNmCUmwbGIt+r6nOqlzpdjfZ2GRnQ4+3ppGPJeQKq+i9FbLTANZf3er0H5cvmZxIwAqp6XwAnFbChicZNi78iIk8mZRKYNoHVACzO9KQGvHy95bqetgKe9S8di3xBWRbhvmd4ysOyViRgtvvtyPbq2/EvFxcXb7pibfxxpggAeLiI/NHDvgbKOLvX6z1ypmBS2foSEJGvDhjoJA8DV7fJ611ESsdFWEqPfDWDd1Rr5xaOGsBZEfa7ydZV9YPVSs/a6koAwOMdj5zmbcwcT+9fV70p1wwSsHSpkQNoK85UZ1n2lKWIc5s6a0kmPxWRhVWrVq2eQVOaispZlj0dgHlSx7adRXSbn4oSrLQ2BMwGAFzuYE+D9nikiNylNopSEBIwAiH3+qCxTvL3hja8+S7FiT/asdMfD+BlXFaupo8B2Nmp7c41p69qpGYtdSOwtN+/DYBrnGxp0xhq0Sd55LRurU15NhEAcEyM0YvIWzYV1sAP4SHohhgGw+61PURVfSs7f1qj6HQ6fyMivxjWBiW++x5XcNK2Vx1LX0rl+7pEcf2/3YYXpDq2GWVyImATeImBctMTrnnONzltpYh8N1L/PIthny+xt1QmonEy2CHF2N4qgEud2vH1Q6rgVy0lkCquP4A97OG0pdioVlsIALi7Q8rVvZvIA8DznCaNYRP/4HdXA9jTPIybyKruMgPYzqktrwKwdd31pXzRBCyu/8ecbGazvi4i/8WVpOj2YQFVEVjyfP1ebEcQkZdXJa9HPfPz8/cGcGGs3iXuN4ezb6vqUz30YBl/ISAi/1uiPTYbvMP9xy8sLNzyLyXzU5sImH9O5AmoYTZj392gqju2iRV1mQECItJ1GDivaMoZVxsAABzqoPOogaDo9z8XkWczC5hPJ+t0OrcG8DuPdhWR//aRiqXUiYA92Hm88AyxMTuN8qo66UpZSKAwAY8J0Rzfer3efQpXOp0Lbenvf4Z04KKTdorrTgTwSks6Mh0k7am12+0+FoBtt0S3E2O1t8cuTBPL9qmqP/OwjYEyrhKR57eLFrWZKQJLMa+fNWDUZQdQWz69U13hAfi4k55l+ax039ki8rY25lmo0h6WAjP9u1MbX9yAB9oq0Ta2rl6vd7fYE08jbOpyW0FtLBgKTgKBgIVX9Up8cYLtsdeJrOXzVtXPjejEK03K0/jtMgAfybLsnnVi2BRZbEsFwIFObX2I2U5TdKecWxIQka0AnOxkD/nx4EJLIb5ljfyGBBpIoNvtPsUcWZw6yplZlj26DhjsLD6AbznplR8AUn++OmxX8OTAhIZkxy6Xznef79Tm/zlh9by8JgQse6RXyOgBWzpdVR9cEzUpBgn4EACw24Chx0xydqRqex/JypWSZdnDAFh0vhg9pn6v7V2GUMPlQMzgXSKSOT3QXmsPxzOIsNEqi8jTAFgcDu/+e4KI3KvRcCg8CQwjEJKseB+P29/SDw+rL9V3lt53Kb7/u5YCfVyZYADwHlAmKc/CFm/HZelilgPgU07tfwaAOxSrlVdNm4A9LIvIn5zaflP/VNVf2hg5bf1YPwkkI2Dez94dJ3TG95gnbjLBlwq2/V/zyAVwircOSymDLWOg98PRpsFlEnlV9fe2usJQoytbk52s8HL+alsK7JXJNfdXVX1xirj+AH60fv362zSXDCUngYIEAHx2kglpgmsvFZEPeDsJ2kQoIi9JuNx/qnnnh7Pm2y8l/Dl9Ap1LTfIFyz/Pgo/w7XS0YYdtoCsK8hzXVi8bXRN/mTYBEXlDorj++9qq4rT1Y/0kUAkBM3bHUwHDBlWLiPcjO/++5Oh23zJK2dO4iKwDsLtjLPhhspoz3uPyMq5Zs+YmqrpoS4JOE8uweif5zo4j/Zf3g1Ve5yZ/BvAap3baKCIPaTKLlspu8T3sQXiSPlP02t0Z17+lVkO1RhMImfLOS9SpBjufLdl/xfbtReQfLTe3iKwxT1sAjzGHHpvsVfXNFqUtBC66tgrZROTVoymtWmVhfQHsV4UsBeqwB6v9Bh9YVpJ/Vn4DsFcBfoN2ucXfIvIbvg3Wx2oSH/HdiXH9nfr5bAAAFiNJREFU69PWlKRiAiGy2uUeA2cTy7AHkqLI7dhjSPhTyYPJOJ48ObB5y5n/iePWzUc3L51/TYNACOvt8mA30J9ukIanOp9Ge7DOFhIQkWcCsCN9W7wNtfk7CxxUpjntxIMtxwPw2neO5W4BnrbjMuaqVQD+AYDFbY9lahPEujL2wXt8CIjIrVT1/xzactAWrmtacjMfoiyFBEYQsP1urxjrCTrsYAeO/ltVvxR71M6OC4V9yQtqovOpdnJg1jPdich7ndpjg6XTHtFl+HVCAub06pG/ZIgdXKWqz00oOosmgWYSCCsBlw7pNNETbp3KtLd3zwx9uZMDf6iJnssnB+bm5u7YTEuMk9pWQgD83KMt7A2Ue8Rx7THp3Rbl0fwwPNpvoAwLGvQPk8rD60lgZgiYYx4Ae/Np1aQf9EmazzvEKFgAcERN+Nm2zp7dbveBM2PAQVGL5AbgIo92MMfUWeM3LX3tBIajH0d+DDu3LqHLp8WW9ZJAIQIhuUZdJrF8J475fEmVS391PDmwlCf98YUMoCUXhYBRMTbTv/eaWWM3DRMILx8pTiWdNosPwdNoQ9bZEgJhGXUnp1jr/YF0Wv8emWXZ/afRNN1u9+9renJg9TR4VF2nY+6LkxklLl3rqWonUayP45l1M127seSWExCRZwM4x2MpdQpl2HG9j9hRomk3k62q1OzkwDGzcHLAPMkBnOhke1+cth21sf6lgGTPSpTT4/BZ9YNpo51QpykRmJ+fv12YvDyOV1WyCmAR/OoYLGdhYeFONTs5cJqdHLCJckrmlbxaCzTleMJlm+QCz1AF9hAKIEVcjYPMOXeGUFJVEkhLIATCOcTpbSrVg8BZ4YxvrZe4QxIbG/x+VxOe5wOwLZ9WHnsD8K9OnC+x1Zy0PW02SrcHz0RbjF+xUN6zQZFakkDFBGrm4NZ/kLAjeI3Lnpc7OXC40wTV51H23+WTAxaiuWKzSl3dagD7OzE+nBNMVHNZW+zs1Bab2bmIfNrziG+UlryZBNpMQESeAODLU46I93NVfWkbBuTcg9UNKQbHCctczjlgbdwWGxaRuzj6s7ynLVyq1MOCbwH4/IS2uNkkv8K9Ftef/5EACVRJwLyjbRIO2f+q8BOwxELvtmRGVepZVV0AtubJgTS0VRVOy87XW+CsNFK2s9Sw7fWNFSbwohP94HUWtvlN7aRGrUigQQRCVLz5sJ98pNNga2eD9w7OamsahCNKVEujHJwvNyYYNAcH0SJ//9qctpq+2qKqH/PgKSJ/pJd5MRMP48KBHtwHyrjWXj6KScGrSIAEKiVgqwMh7e+L7K1dRP536Q13XwA2GNgDwm8BHAXgJyLy3ZDS9aOq+v+WvntGW53SJmkEO4URHKbOHhj8ikzaKa4xf4sdTK5J9KjLteFN9GgPliLyzbroVVc5wtaL9XFvW7xCRLK66k25SIAESMCNQO7kgD00eQ+mZcq71FYoLHa7m5IVFWTbRwAu8+BoD6sVid24anq93n0SnXS5uNvtPqVxQCgwCZAACcQQ6J8cEJFfeExgDmUsnxywOO4xelV9r6q+wkF3e3C6UlUfVbX8da9vfn7+oQDOdGKcf0C1wGRb111/ykcCJEACSQnU8eTAUga9JyVV2rFwAF9xmqCOW1xcvIWjaI0uyoJwAbDYEvmJ2+OzpbxupfNvoxucwpMACUyPgL2BhpMDlrjGY6CNKkNVfyYiC3VPpRv8KywaYpS+4f5dpmcB9ak5pBV32V4ZaJdjm7jdVJ+WoSQkQAKtJmBOkyHUsOU+95jUosqwvO4i8mrzX6greMv0B8DjwcniNzyrrnpWIZeqPidRXP+fNNXptArurIMESIAENhHIsuy24eTAWXV4ELAAPPZg0ul0br9JyBp9WDqu+k4nTheJyL1qpFploojIPwOwAFJRD41D7t+P2yuVNSMrIgESaAuB3MkBr4x4sYP78smBdevW3aNOjM2xUlV/OGTymVhfEfmxRbyrk36pZbFjoR7sBsuwY8NNjzuRmj3LJwESIIEVCfRPDgA4dHCQndLfV5vPgnmKryh4hT9a3ngAF3jwEJG3VSj6NKuyuP4f8WA2WIaqfpJx/afZtKybBEigdQTqeHJARJ5cB9BhD3vit/7ByctS3HqchrBAWnNzc/fr9XqPzLLsiQAsyua8edlnWfYwO2e/sLBwy2mw63Q6fwNgtyG6e/BjXP9pNCrrJAESmA0CIvIIVf1cIqetiScBOzmgqovTfusLTCaWf3AiVNXfmy9GEWuyydQmeBF5i4h8AcBPAVgI7KJy2Hn7gwB8ZmkV4/X2wJDyBIZtLVkUxAnkK6rHdQysVMRieA0JkAAJOBDo9Xp3CycHLk4woBcd+PPXnWwOjJ1O5+YO6k1chNULwPIe5GUq+3mvUQLMz8/fW1XfHNIUpzg2t5xDw05heOYsMEfO8IBSlsmo+2xb6AWjePF7EiABEiCBRAT6JwcsyY3T5DdqoC/6/bnTOjkA4OEi8icnDtv2m8y82W2VA8B+AKrInNlnbXUdaHUvLi7etC/PpP/aw+LSUcdfOXHpy2b/brRMjZPKw+tJgARIgAQcCdgEYVn/lt7GTkgw0OcH/aKfL7OcA+ak56jm2KJE5A1O+l+eZdlTgrPc5U5lFmU37LpzzUmx6PZEH5SIbAXgpATyX+ThL9GXk/+SAAmQAAlEEsidHPh5gkF/2MQ07rvlkwPm/BapWtHbzcP92x66q2qK8/HjeI37/SIA7wFwh3FAwopIipWhs4O/wjgR+DsJkAAJkMA0CISTA3tXvGw9agKziHv7VZENbmFh4U4A6hJMaRSP2O/tQWD7Uc6XIvIEr+ORAw9TJ5ofxDTsmXWSAAmQAAlMSMASsdhyfF1ODgA40rYrUgbeybLs6TV58Imd6Fe8X1V/accL8yYBYC2AKwYm7hXLKXjtkVmW3TlfFz+TAAmQAAk0gMDc3Nxdw8kBe3v0mBBiyzjF3mJThYwFsFNN9IzlNO7+a1T1rXaEcGm/fxunHAmDdR48qf9BA7oERSQBEiCB2SJggWpCzoEUed8HJ44if2+wB5O1a9f+rWdL2Dl9EfnFjDwEGOffJorr/+1UD2me7c2ySIAESIAEChLInRw4viaT5PLJAc/EPFmW3R9AivP6RR5s2nDNHvYgVdCkeBkJkAAJkEDDCKwWkQU7c16TBwFL87unebF7cFTVF9dEr0Y9EJjfSMrIhB5tyzJIgARIgAScCIjImjD5VhnwZtTEaCcHDrSHk1j1LEMdHwIK+30Y93+LZc77SYAESIAEGkjAls7tDdAxst6oSb7o90fFnBwIfg8X8iFg7EOAPfi9soEmS5FJgARIgAQ8CYjIXcLJgVpMnpasp8zJAQCv4eQ/dvK/UkSe7Wk/LIsESIAESKDhBDqdzq3DyYEzajKRLp8cKBIRL8Txrzqq30Ui8ptwCsF8K+z/wwEcZzH0a8Iwv/pyqap2Gm6mFJ8ESIAESCAVgTVr1twk5Bw4tiaT2OW2VTEqOp0FyQFwVUpZwzaJpfV9uwUgKhIsx046WCIdAO8DcCiAa1PKOKbsDQAek8pmWC4JkAAJkEDLCIRQw5YhL/8mOa3PdnJg7263+9g+5pAC91RP+URkk34i8mMALzP/gn6dZf+1IE0A3gjgGE95C5T1h16v96CycvM+EiABEiCBGSZgb481Ojlwo6r+LBxr3KfABLhpQi94rW0l2EPP41M1+UoPVvkHkILyrqTf8evWrbtHKj1YLgmQAAmQwIwQmJubu1/NTg6sNPlN/NuSL4EFTKpsqVxEMgAnO0z0w3Q9bG5u7o4zYppUkwRIgARIoAoCdTs54DGBqup/j8q8l5Jpp9O5uYh8wDnErzkhjk0nnFIvlk0CJEACJNBiArY3LiJvWtonP91jEp5SGZfNz8+vnXYzicgzAZzjyODt09aJ9ZMACZAACbScQDg5sK0di3OcwIYta7t+JyI/m5+fv11dmqfX690nxEGI1tNOLojIVnXRjXKQAAmQAAm0m4DlHLB97R814EFgX1t+r1tzLCws3ElE7Nhe9EMAgD3qph/lIQESIAESaDmBcD5/bwB1yDmw2WSqqj/8/+3dW4wkVR3H8R0lohI1XlZZxIg3ggiJEX1AE23tqf/vf2q3V/ahgYDhwUs0qKARNT5gRo0RJfH2wBoRNIrxsg8QDEYh4RKjhqxggi7y4GWNUVcjXkBcBHfWOVqQ3ZmeGbpOdXfV6e/DZHd6p079/5/qzf90zanzDyEc29ZLUJbl8ZIeaGASEO1f3NY8iQsBBBBAIGOBWIAk7W5LzwF33xt3PWw7+WAwOKUJMzP7QttzJT4EEEAAgYwF4pMDkj4qaZY9B+5db0fBNtK7+5kN7CD4YFEUJ7QxP2JCAAEEEJgjATM7ruo5sL+BW9xH3drfZLzlJtoOT/tSufv7N8lrUwN3/9C04+Z8CCCAAAIIjBTo9XrHSDpP0k9TC9xjPL6TC+Li3gRVw6FNC/0GDnePvAi8iAACCCCAwCwFiqIwSbHZTkqR2+jYg5K2zTLHlHOb2RmpiymP7KGQEgvHIoAAAggg0LhA1XPgm6nFbsRE4srGg53ygO7+lRF5bTTpWf1vn51yyJwOAQQQQACB8QRWit1JseeApLil7epCNu73h3bt2tX5PfGrpylSHqn8xXhXgZ9GAAEEEEBgRgJxU5y4mU3iJOB7Mwq/8dO6+54UCzoDNn5JGBABBBBAYFICkj6eUvSKonjJpGKb9rjVLovj3gF59Ofd/U3TjpnzIYAAAgggUEtA0g/rTgDc/Qe1TtrSg6onJ1IaBl3d0tQICwEEEEAAgaMEFiTdnzABuOio0TL4Ju7sV9dD0k8yICAFBBBAAIHcBUIIJyYUu8NmdlpuRpLOTjC5b8uWLQu5mZAPAggggEBmAmb2hoRi9+cci10IYauk5boubAuc2X8S0kEAAQRyFHD3C+sWutjxL0eTmJOkP9R1kfT6XF3ICwEEEEAgE4GqedCjq9jHLHpXZMKwJg1Jt4xpcaTheWsG5AUEEEAAAQTaJCDpMwmF7n1tyqXJWCR9McHlHU3GwlgIIIAAAgg0LmBmX6pb6Nz9LY0H1JIB3f3yui5mdklL0iAMBBBAAAEERgtIin0Bjrx9/Zj/bmbnjB61+6+uLAL8cF0XSR/pvgAZIIAAAghkLSDp2rqFzszOyhVH0gfqukj6ZK4u5IUAAgggkImAu19Tt9CZ2fmZMKxJI3Fx5KVrBuQFBBBAAAEE2iSQuOtdtovdEhdHvqdN15hYEEAAAQQQWCOQstgt/p58zYCZvCDp63XvjOS8ODKTy0saCCCAAAKSLk0odNfkKhj39E9wGebqQl4IIIAAApkIxPa1CYVubyYMq9OIDZLuq+tSFMUrVw/I9wgggAACCLRKwN1fVbfQSfr3YDB4cqsSaiAYSS9LMDkcQnhqA2EwBAIIIIAAApMTiMUqpdhJWpxcdLMZ2d0vSjD5/Wyi5qwIIIAAAgiMKZDY+OayMU/X+h939+sTJgA3tz5BAkQAAQQQQCAKSLouoeDtX1paelwukpKeIenBuh7u/olcLMgDAQQQQCBzAUkX1y148Th37+VClNIeOVoURWG5WJAHAggggEDmAmVZnp44AdiTCdGCmd2VYJHloshMri1pIIAAAgiMEIiPvR1IKHyH4sr5EeN26iV335VgcNjMbu1UwgSLAAIIIICApCtTil/cOa/LinEdg6Q7UgzM7L1dNiB2BBBAAIE5FDCz16YUv5VtgZe7vBbA3d+emP/DZVkeP4dvHVJGAAEEEOi4wIK7/yqxCP5sOBw+oWsOIYStkv6SmPt3u5Y38SKAAAIIIPA/AXdfSiyC8YmAT3eMMy78uyE1bzM7t2N5Ey4CCCCAAAL/FyiK4gRJBxOL4bKkN3bFdCXfDybme1jS77p456Mr14g4EUAAAQSmICBpdwMF8QF3P3MK4Sadwt13Sno4Nd+4dXBSIByMAAIIIIDArAXM7AWSHkotipL+VJblybPOZ73zV4seU+92xE//B4bD4ZPWOw+vI4AAAggg0BkBSV9uYAIQi+Mfi6J4edsSN7Mg6Z9N5Ghml7QtP+JBAAEEEECgloCkbZL+0USBlPT3NnUMNLM3N3SHI05w7gkhHFsLmYMQQAABBBBoo0Bqf4BVk4e4MPCy4XD4+Fnl2uv1nmhmn1sVVyzitb/inYRZ5cN5EUAAAQQQmIhALNaS7kwpkCOOvS2EcOpEAt5g0Or3/ftGxFO7+Ev61gan5J8QQAABBBDoroCkV6S0xl2n4D5kZp/q9/vPnLRMWZbPN7OvxV0K14ml7gTgALv+TfrqMT4CCCCAwEwFJL2z4eL5SNG9P04EduzY8dymE1xcXHyppKsb/F3/IzHHPw+ZWdF0zIyHAAIIIIBA6wTcfc+EJgGxoP5H0o2SLjCzZ9dN3t1PWtnO912Sbp9grLHj38fqxshxCCCAAAIIdEpgcXHxaZLunmRhrcZeNrO7JF1hZu92d8U2w/FW/vbt258ev+I+BWVZnm5mg/gIXvyk30APgyM/4a/795XNjb4/y4WMnXrTECwCCCCAQB4C8Va9pN9OYRKwbgGe5bndfe/OnTufksfVJAsEEEAAAQTGEIgr+CXdO8tCPKNz/7Lf7z9nDCp+FAEEEEAAgbwEzOzV1eY+rfykPoEJwv5+v//CvK4i2SCAAAIIIFBDwMxOix3wJlBs2zap2Gdmz6tBxCEIIIAAAgjkKVCtur8n10mAmf14GnsV5PnuICsEEEAAgawFQghbq0f42vbJPTWeq+jwl/Vbl+QQQAABBBoQWKj6BjTRQji1cCcdb2b/kvTWBkwYAgEEEEAAgfkQqPbb39/hXwncaWanzMfVIksEEEAAAQQaFIi3zd19aQL9A5I+2W8yKYntii/u9XrHNEjBUAgggAACCMyfQPwk3YG1AYckfZWmPvP3/iRjBBBAAIEJCxRF8RpJ35lAN76UOwKx8H87NgyacPoMjwACCCCAwHwLmNkZZvYNSQc3uR2fUtg3O/ZvknaHEF4031eD7BFAAAEEEJiyQNVU6AJJN03prkDsNBjPFTsNHjfldDkdAggggAACCKwWkLTNzM6XdJWk3zR4Z+Dn7v55Mzsrdg9cfV6+RwABBBBAAIEWCYQQTpS06O4XVgX8Bkm3S9onKT5e+Nfq69dVy+Afufv17n65pLeFEF43GAye1aKUCAUBBBBAAAEEEEAAAQQQQAABBBBAAAEEEEAAAQQQQAABBBBAAAEEEEAAAQQQQAABBBBAAAEEEEAAAQQQQAABBBBAAAEEEEAAAQQQQAABBBBAAAEEEEAAAQQQQAABBBBAAAEEEEAAAQQQQAABBBBAAAEEEEAAAQQQQAABBBBAAAEEEEAAAQQQQAABBBBAAAEEEEAAAQQQQAABBBBAAAEEEEAAAQQQQAABBBBAAAEEEEAAAQQQQAABBBBAAAEEEEAAAQQQQAABBBBAAAEEEEAAAQQQQAABBBBAAAEEEEAAAQQQQAABBBBAAAEEEEAAAQQQQAABBBBAAAEEEEAAAQQQQAABBBBAIBuB/wLXDQtLwDHlxwAAAABJRU5ErkJggg==;" vertex="1" parent="1">
          <mxGeometry x="879" y="400" width="42" height="42" as="geometry" />
        </mxCell>
        <mxCell id="C1_RdyR0-82RKuUjunUg-25" value="" style="shape=image;verticalLabelPosition=bottom;labelBackgroundColor=default;verticalAlign=top;aspect=fixed;imageAspect=0;image=data:image/png,iVBORw0KGgoAAAANSUhEUgAAAgAAAAIACAYAAAD0eNT6AAAAAXNSR0IArs4c6QAAIABJREFUeAHsnQl8G1e1//vgsfQB5fEea4E/ZXnAa3lA63iRZjQz2nd5lZOW0gellD6gCzwgLQ9ogEIXuqVbmqRN2jRNs+9x9njftVrWZnmX7diOHWdfbd8/d6QrjWTJlrwkTjj9fO5nRtLMvXe+zqfnN+ece+4NN8B/QAAIAAEgAASAABAAAkAACAABIAAEgAAQAAJAAAgAASAABIAAEAACQAAIAAEgAASAABAAAkAACAABIAAEgAAQAAJAAAgAASAABIAAEAACQAAIAAEgAASAABAAAkAACAABIAAEgAAQAAJAAAgAASAABIAAEAACQAAIAAEgAASAABAAAkAACAABIAAEgAAQAAJAAAgAASAABIAAEAACQAAIAAEgAASAABAAAkAACAABIAAEgAAQAAJAAAgAASAABIAAEAACQAAIAAEgAASAABAAAkAACAABIAAEgAAQAAJAAAgAASAABIAAEAACQAAIAAEgAASAABAAAkAACAABIAAEgAAQAAJAAAgAASAABIAAEAACQAAIAAEgAASAABAAAkAACAABIAAEgAAQAAJAAAgAASAABIAAEAACQAAIAAEgAASAABAAAkAACAABIAAEgAAQAAJAAAgAASAABIAAEAACQAAIAAEgAASAABAAAkAACAABIAAEgAAQAAJAAAgAASAABIAAEAACQAAIAAEgAASAABAAAkAACAABIAAEgAAQAAJAAAgAASAABIAAEAACQAAIAAEgAASAABAAAkAACAABIAAEgAAQAAJAAAgAASAABIAAEAACQAAIAAEgAASAABAAAkAACAABIAAEgAAQAAJAAAgAASAABIAAEAACQAAIAAEgAASAABAAAkAACAABIAAEgAAQAAJAAAgAASAABIAAEAACQAAIAAEgAASAABAAAkAACAABIAAEgAAQAAJAAAgAASAABIAAEAACQAAIAAEgAASAABAAAtcIgWAweOPAwMD/nDhx4hPXyJRhmkAACAABIAAEgMB0CfT19X0y2Nu7uK+vr+/o0X40MDDw/en2BfcBASAABIAAEAAC85xAZ2fnl7u6gkuDweDZnp5e1Nvbh44ePYr6+we2zvOpw/SAABAAAkAACACBdAkEAoE72ts713R2dl7u6upC3d1BFOzpQb29vaivDwuA/nP9/f0fSbdfuB4IAAEgAASAABCYZwQQQv/U0tKiCAQCu1pb21Bbezvq6OhEnZ1YAHSjYLAH9fACAHsB+DBAwTx7BJgOEAACQAAIAAEgkCoBt9v9QY/Hc4/f72/2+1tQSyCAeAHQ1o7aOzp4AdDVhQVAEPFhgL5IGOCdVMeA64AAEAACQAAIAIF5QiAQCNzkcrkebna7gx6PF3m9PuTz+1FLSwAFWltRW1sbam/vQB2dnShJGOCE240+OE8eB6YBBIAAEAACQAAITEbAZrN9yel0vuBsajrtcjWj5mY3cns8IQHg8yN/SwsKBFp5L0A7CQPweQATwwCDg4O6ycaC34AAEAACQAAIAIGrTKC+3vF1q9W62mazX7I7nMjpbEJNTS7kwgLA7UEerxf5sABIEAbo6Ohq6OrqWhIMBsfjwgDrrvJjwfBAAAgAASAABIBAIgINDQ231dc3rmlstFy2WK3IZrMju92BHE5nSABgL4DbjUgYwB8NA7jb2tqWtLW1fZ30GwwGq3v41QB9ZDXA2WPHjn2M/A5HIAAEgAAQAAJA4CoTqKur+3ZNTd2aurr60fr6BtTQaEEWixVZbTZkwwIAewGamlBsGMDr9nr9S/x+/zcTTT8YDD6YYDXAPYmuhe+AABAAAkAACACBK0igrKxaVFFVvaequma8pqYW1dbVI14ANDSiRiwArLaQF4CEAVyuU263e1lzc/N3pppmR0fHZ4PB4GhcGGD/VPfB70AACAABIAAEgMAcESgvL/+vsrKKjeUVlaiysgpVVVWjaiwAautQXX09qscCAHsBwmEAh8PhdTQ1LW5qakqrrn8wGDwUCQPwVQH7x4aGhj4/R48F3QIBIAAEgAAQAAKJCBw5cuS2w4ePbDlSWjZeWlaOyssrUAURANU1qAYLAOIFaLSct1qta+x2uzhRX6l8FwwGf4TDAKGqgJGiQL9M5V64BggAASAABIAAEJghgZKSw1/df+DQOwcPHh47dPgIOnKkFGEBUIYFAPYCVFWjKiwAQmGAgfr6xt/W19f/+wyHvcF37NjHgsHgqbgwgGum/cL9QAAIAAEgAASAwCQESkpKvrBn7/6l+/btv7D/wEF04OAhdOjQYXQYC4DSMlSGvQAkDFBd3VFTU/ewxWL5l0m6TPun7u7gK3FhALxD4LS9CmlPAG4AAkAACAABIPCPQqCkpOSmnbtLntq9p+R8Sck+tHfffrR//wFeABzEAgB7AUrLeC9ARUVFZ2Vl5b2lpaX/PBd8urq6bg0Ge8bJ5kDhvQHenouxoE8gAASAABAAAv+QBDZu3Pj+HTt2PbBj566BXbv2oN17StCekr1o7979aB8WAAcOooMHD6NwGKCvtLz8Z7i+/1zDCgaDR+LCAOdOnDiRVkLhXM8R+gcCQAAIAAEgcE0S2Lx5u3rr1u3N27bvQDt27EI7d+1Gu3fv4QVAyd59aB/2AoTCAOcOHTr0p/3791+xLXqDwWBhfBhgcHDwoWsSNEwaCAABIAAEgMB8ILB58+bbNm3asnfzlq1o69btCAuA7Tt2op07d6NdWADsKUHhMMD4vn0H1h08ePD/Xel5I4TeHwwG3ZEwQD+/RXDzlZ4HjAcEgAAQAAJA4JonsHr1tn9dv37Dqxs2brq8cdMWhAXAlq3b0LZtIQGwY+cuJAgD+Pft2ye9mg8dDAYLcBigL7pFMBocHKSv5pxgbCAABIAAEAAC1xSBdevW3bnuvfVH31u/AW3YsAlt3LQZbdq8BW3Zsg1t3bYdbcdhgJ18GODi7t0lfyotLf3w1X5AhNA/9fT0NPT29qG+UFEgNDAwuPlqzwvGBwJAAAgAASAw7wmsevfdr7zzztq9a99dh95dtx5hAbB+w0a0cWNIACQJA/SVlJRs3LNv38P79+/PwIb4aj1od3efKi4MMDowMPDVqzUfGBcIAAEgAASAwLwmsHz58g+8/fY7v317zTvn1rzzLlq7FguA99C69zag9es3og0bN6FNU4cByGqAgYMHD+46cOjQH44cOaLbv3//p6/kw/f29u4LhQH6UX//AA4DLL2S48NYQAAIAAEgAASuCQJvvvkmvWr1W82r33obvfX2O2jNO2vRO2vfRe++iwVAyAsQDQNsxWGAE6EwwE4SBkC7d4eWA4ZWAxzgVwMc5IsCHeGLApWVlXWVlZfvLK+sfLKqququ6urq75aUlHxoLgB1dXV9pbe376wgDHB6ZGTkX+diLOgTCAABIAAEgMA1R+D55zfeuHLlm0vfeHPV+Jur3kKrV2MBsAa9vSYkAHAYYF3iMIBj8+adt23dseOB7dt3btu5a/epyGqAvcmLAvFVAcsro3sD1NRerqmtb62rq99X12B5tbGx8RdWq9VosTjvsFgsn8M1B6YLta+v76G+vqPoaGg1ABoYGPrNdPuC+4AAEAACQAAIXDcEli174/blK1a4V6x8E618YxV6c9VqtAoLgLewAMBegEgY4CIfBtgQHwbYGqm0t3y55QM7d5awe/bs/WtJyV7r3n37xyNFgQ5FigLxVQH5zYHCewNUR/cGCG0R3NiILGSLYLsdORzOMaez6WiTy+Vwudx73G73ao/H94TX2/Kg3+9f2NbWpmttbZW2trZmtLW1fb21tfeLXV1dn8BLAnEeQl9f33ZcFbB/gA8DBBFCH7hu/oDwIEAACAABIAAE0iGA36qXLVv+6LLXl198fflKtGLFG2jlG2+iN97EAuAttBoLgFAYYO/atWupdevWyda9t370PZwHEFkNEFkO+HCisXHMf+/eA3eHNgc61IOrAkb2BiivEOwNEN4ciN8iuAE14C2CLXiLYBuy2ezI7nAgp7MJNTW5kKu5GbndHuTxeJHX50N+fwtqaQmg1tZW1NbWjto7OlBnZyfq6upG3cEg6unpudDb23f6aHQ1ABoaGvrvRPOF74AAEAACQAAIXNcEXnhh2S2vvvpaxauvvY5eW7Ycvb58BVqOBcBKLACwF4APAwyuXrOmQAjivfc2PJ5kNcDotm278oTXJjovLS295dCh0rtLS8uXlZWVu8orKsciWwTj3QHJFsFYADRaQl4ALADsDuRwOpETCwBXM2p2u0MCwOtDPr+fFwCBQCtqbWtD7e0dqKMDC4Au1N0dRMEeskVwNAwwOHisBXsHEs0RvgMCQAAIAAEgcF0SePHFl+556eVXT778ymvo1deW8QJg2etYAKxEOAzwBh8GeKtx1apVX4wHsGTJkve9+97GQ3g5YILVAGe3bduVFX/PZJ8rKys/UVFRoa+sqnqyurq6sqa29nxtXX2CMIADhwFCXgAsAJrdyO3xIC8WAD4/8re0IF4AtLahtvZ2XgB0dmIB0I2CwR4ULQoUCQNgL8Ddk80NfgMCQAAIAAEgcF0QWLJk9YdfeGHpWy8ufRktfekVhAXAK68uQ6+99jrCAoAPA6zkwwBVa9euvSnZQ69bt+4z723YGMQCABcF2rw5FAYIrwYY2r1797eS3TvV93g1QG1tLVVf3/jrhobG9Y0Wi99itY2lFAYITBYG6EW4KFAoDDCABgYH0bFjx7zgBZjqLwK/AwEgAASAwDVN4Lnnnvvic8+92PD8C0vRi0tf4gXASy+/il55FXsBYsIA7tWrV0+5TG79+vWZ6zdsPB8tChSqChjeHOjonj17vj5bwKqqqj5msThom83xoMPpfKOpyVXrcjWPJAsDtJEwAJ8HMDEM0B9eDTA4eAyLgDtna57QDxAAAkAACACBeUXg2WefZZ559vn+Z597AWEB8MKLL6GlS19GWADEhQFOLV++POVKeRs2bLg7QRggvDnQru6SkpKU+5oOMJ/Pd7Pb7ZZ7vd6f+3y+pX6/f3sg0GprbW0fShgG6CV7A0TDAMeODbkRQu+bzvhwDxAAAkAACACBeUvgqaee+dnTzzx76W/PPo+wAHju+Rd5AZAwDLBsxb3pPsiGTZv+liAMQIoC9f69LPCt6fY5G9f39fX9S1dX161dXV10V1eXsaen555gsO/h3t4+R1wYAA0PDy+cjTGhDyAABIAAEAACV53ASy+99KG/PvX0G08+9Qx6+pln0TN/ew49+9zzvABIEgaonU7dfpwUuGHDlveEmwOFwwBo5y5+i+Dje/bsyb7aQFpb+z8d7OnZTPYGEIYBhoeH2xBCH7zac4TxgQAQAAJAAAjMiAC64YZ/Wvbgz+598bHHerEAeOrpv/ECgHgBImGAl6JhgJeXLaOmO+jGjRs/uGnT5pL4LYJ34i2Cd+9Bu/eUnNi7d698uv3P9L6uri5zd3f3IL8aIHEYAK8I+PlMx4H7gQAQAAJAAAjMCwIHOGrBVo1q75sP3N/77JNPIiIAhGGAl0KrAapmOmGcvb9585adW7aSLYIn7A1wae/evT+a6Tjp3B8IBL7Q3tGxAS8HxEWBgnxRoF7U28evBhjDmwOFVwNgATA4PDycdOVDOuPCtUAACAABIAAErjqBjWbz+/eLF/zffmrBuS35hrNvPvwQevHpp/lkwMhqgJdePfbqq69ve+W15b997bWVOdOtu493EdyyZdsavBwwLgyA9uzZi/DmQHv37n8Shw3mEkwgELgp0Nr6l7a2trN8UaAJqwH6fD09Pd/t7+93DgwMosFjx7AAQMePH39iLucFfQMBIAAEgAAQuOIEDoi/+91D4ozmg6I70AFxBtpp1KB37/8RWvH4H9DL4ZoAkaJAy1YMLl+x4ulVq1Z9ZToT3bJtx2Pbtu8Y275jJ9q5k88DwGEAVFIS2Rxoz6FDh/59On1Pdo/FYvmA3+//mb+lZZAUBWonRYH4qoDd48Fg7wrypn/06NGsgYGB0UG+JsAQTgY8OzQ09PnJxoDfgAAQAAJAAAhccwRKtF/70EEq42+HxBljh8QZiLSDbA7aWWBAG+//EVrzf4+hlS8uJUWBxla+sWrj6tWrb0n3Ybds367Yvn1nzw6cB7BrNy8A9pTsRXv37kPhzYE6Dx8+nFbVwGRzKC0t/We32/09j9fr56sC4r0B+KJAbZG9ATo6upq6urom5CH09w++GA0DDKORkZE3k40D3wMBIAAEgAAQuKYJHBLfLjoozggcojLQ4Zi2AB2hQu2AkkG7FhWizQ//HL37l79ceGvlyieWL1/+L4kefOPGjTdu3Ljx8+u3bv3Wli1bmM2bt+Vt3b79h9u27fjrjh27LoRXA0TCAPv27Uf7DxxEBw4eunjo0KH/nW5IwO12f9TpdD3scjV3RooCCTYHCoQ2B+psb2+/J9la/8HBwY8ODAz6SRhgePj46IkTJ+5I9JzwHRAAAkAACACBa57AwYyMjx+i7thMBAAx/EfoBYi0UnoBIu2INAftKzBc2P3D7we2PLbYu/6ll/1r177b++669ef/vkEQCu0NsBlt2rQF4dUAW7eG8gAmCQOgAwcOoYOHDqPDh49UlZeX/0eqUOtcrs/Y7c4nHA7nsLOpKbQ50MS9AQYDgbZHAoHAh6bqd3Bw8LuDg4Pnjx3jwwA4F6AumWCYqi/4HQgAASAABIDANUHgCL3g/iPUgovE6OMjMfqRo2QBKpNkTmilcjE6UJyHSn52P9rxx8fR1mXL0KaNm+L3BuCLAsWGAfbzYQDsBTh48DDCWwQfOVJ29siRsl/iOH4icLhGQUNDA9tota6xWm3nQ3sDkM2BXKHNgfAWwV6v0+/33xcMBm9M1E+y7wYHB392jE8GHMYCAJ04ceK+ZNfC90AACAABIAAErgsCR+iM7CP0gs4Jxl+yYKhMkjkSb/zLmUwU3yqYTFTBZKFyFYMO3W1G+3/xINrz5BNo5xtvoJ3btvNFgXbv3oNwHgBeDSAIA6BD2AtwpBSVlpahsrJyb2VlpYGAraqqurmmpu6xuvr6lnqyRbDVingBwG8R3ISamlyjLlfzFpfLy5H7pnMcHBrahFcDDA8fx7kAx06dOjXriYrTmRfcAwSAABAAAkBgzgjsE4n+rZResJd/65csQKWhN/7eciZTjG644X3VYvGn8XmFJOu+cibzb+VMZnk5k3mBGP4KNguRVslmIWGrkIlQWbEJHf75/ejgnx5H+19/He3bvh3t338A5wGQMAA6UlqGSsvKUXl5BaqsrDpQVVWzs7q65nJNbR2qi2wRbEEWixVZbTZktzsbHQ7HLx0Ox6xk7uPVAceGhnzDw9gLMIKOnzixfM6AQ8dAAAgAASAABOYLAVwz4IhkwfNxb/wXy+jMnyaaY41IdGM5kyUr57KeqGCzfEKjz59zWaiSy0JVfMtGVVy0VXPZqDJPjSp+fA8q++2vUdkLz6LSd9ei0oOHUFl5BaqoqESVVdWoqroG1dTUoloiABoa+ywWy+/tdnvKOQOJ5p7su+Hh4VuHhoZP4zDAyMjI2MmTJzOTXQvfAwEgAASAABC4rgiU0Zk/LJNkXsBCgLj6y9jMlZaMjITxefLwFZKcOyqYzL9Vcln9SQ2/NBtVJ2g10myEW7VMjKoLdaj6pz9C1Ut+i6pfewVVb9mCaquqUV19A2poaBxrbLRss1qthmT5AmQ+0z0ODw+bh4ePj4+MjOBcACtC6J+n2xfcBwSAABAAAkDgmiJQIVlAlTOZA0QA4GMFk7W/Ljt7ynK51WyWqIrLHo9545/E6NdIc1CNLNpqZTloQlOIUO1CE6p/6Ceo/i9LUMObK5B1z67jjsb61x0OBz3bcIeHh5/FYYATJ07g9tvZ7h/6AwJAAAgAASAwbwlU0plfKWeyAji5j298nD+zqZTL/sJUk67ict7CAmCyt32h0cfnE4w+/k6eg+omNBGqk4davYpGDd8rQJaf//h4g0H2ZIMip7hOnv3tgFY75fK/yZ4Bv/UfP368lPcCnDx54fTp07dNdj38BgSAABAAAkDguiLAJ/+xWY1xCX6d5Uz2pDH4KiV1c7U0+5xQAGAXf6006zfVsuzvV8uz/7damvNcjUy0pkYm2l8ry2mqleX018pyxqc0+nIRqlckbw0KEWpQiEYbtGyv7ef3nXU88bsTzW8uH/GW7D7eand0dnZ2urq6ui3BYPBwMBjc39fXt7Gvv39tf3//8oGBgeXHjh1bPjw8vPz48ePbwmEAdPLUqQYIBVxX/7ThYYAAEAACQGAqAvtV3/5IJZtdEpPkh+P80qzvTHZvtTTrOSwASHw/9MYv+ttk97jNt36wUZ75lVp5jqJOLrq/Xp7zVJ1CtLFOJqqqV4jaEhn+sMHHRj/UlCLUwDcxalCGWqNSjEiz5CqR/b7vIdcfHkW+5a+itu2bUVdjA+rr60MDAwNocPAYOsYvBwytBsBhgJMnT6JTp049Otnc4TcgAASAABAAAtcdAfett36wks18Lya5j80ermYzk2bJV6vEn66R5pwXuvprZTk9aMkN094NEPfZoBTJG+TihxoUOSsaFCJrg1J0aTKDTwx/zFElRo3hZlGJEW5WgxQ13X838j6+GLWueAV17dmB+h02dHzwGBEAOBRw63X3x4UHAgJAAAgAASAwGQG8TLCKy1obl9w3UinNzkh2X4005634+H6dPFua7PrpfI+XIzaoROJGhegRi5La2qgUH09k7Imhn/pIIYsqpo07inTHm+//fsD90P07rUrxD2xKaoHFmJFwb4TpPAPcAwSAABAAAkBgXhPAIqBamr0Gr+MXxPeHaxjR7YkmXi0XZ8Yk9+GEPlnOikTXztZ32MNgVdEZVhX1a4tKXGFRiUcnGv2ogbeqKBRpagpZU29jVjXValFT220q6q82DX2nTU1/B4cxZutZoB8gAASAABAAAvOGADaw+M2eCIBwjH+oTp6d0D1eK8upj0nsU4iOX0kjadNKPtWoon5kUVF90zT0vCiwqSmUYrtsU9Mem4beZFeJH7epxEUWleibpRwH9QTmzb9imAgQAAJAAAhMiwAWAdXS7HUh4x9Zw9+Fs//jO6xXiO4JLeWLLt+rU4hz46+bq89WtehrVg21f7I3+xQNO7JpqPRbVDhctKkph00tXmfXUI/ZNJTJrsm5Za6eG/oFAkAACAABIDAnBPBbPF7CR5L8sKu/Tp5tr9PGFgsq5bgP18lFI3jtfn10Cd+aOZmUoFM8rlVDL7GqqfNC4x829pesanqF0PDbNdQGm4ZeateIl9s04nX4Dd6moQ7aNJTFpqE6rBr6lF1Do3SbTUOjaEsoIIZtGvEhq4b6m11N32VV5PwnDrUIHgVOgQAQAAJAAAjMLwKlHPdR3sVPCvngGL9CtD++bHC9XLw2bgnf0FwaOatGpLaqqYDQwEfONXS1UyX+FhYI0Td6bNglP5iKLn4ui1ryOZuOWhB6g6d/atPQf3Zo6DV2DV1t19L96QoEfH0CgXDGpqFqrCrxq1a1+IcONXXbTFZPTPVc8DsQAAJAAAgAgbQJWLiMT9bKcrzCOH+tXPQWuuGGfyKd1SnEhUQAkPX69WpKQn6frWODjvusXU1tiBh77H4nbns1NWJTUw8IDaldQ5+MGGw1/cRszMPNcR/FyYB2DW226+gldi29ya6lPXYtfTkyVoqehJAwiDzDSd5ToKb+gsWHS579mdmYL/QBBIAAEAACQGDaBGo40dfq5DnDpEQvf1SK/kQ6dKq+/ZEGhegcMf64QE+jUvw0+X02jja1uNCmpo5FDD5v+EMue5tash6Lg/hx7BpJgDfKWhrZtJL18b/P5mccMnGqJXfYtZIfO3T0604t3ejQ0hcdWhrZSZtCGMQJApyU2GlTU+utauoRi1pyx1x6VWaTBfQFBIAAEAAC1xGBcPW+y4I4P2pQ5kTc6g0K8Q5SsCe8Tt8zG49vUWR83Kam3o4a/mic3qahu21aSptsHIeGrsYGmDfCGtqS7Lq5+h6LAoeGoh0a+ndOHX3QoaXPRuaTgiiIEQShZMOTNhW1x6amF9tVInF8KGaungP6BQJAAAgAgX9wArhCH3H142ODQnS+ThUqFFSvpO4Lv/lHyvLiDP2ZILNraM6moToTuNbHHRr6DYtC8fHJ+ndo6W3E4Dq01InJrr0Sv2FBYNdKqL+HC/7PoaUPOLT0GTK/qbwECcQA9hCctWqow9bQckQGliJeib8ijAEEgAAQ+AclUK8QvRl19YtQvVLcaeG4T+LsdmGFvnBxngeng4lP4NPSz9o19NgE46+l+xwaiTqVfh1aZrlTJ0Gk4ZoBqdx3pa7Bb/AODfWoQ0tfJkKAHHlBkCRkEPWGxNYusKqpk1a1eJtVQ/3EqWK+fKWeA8YBAkAACACBfwACuERug1LULHT3NyjF+3B8mi/TG669HxYA29JFgr0Gdg3tiDH8YTe+Q0fvTseIO3T0n4nxx8cmAytKdz5zdb3dQHNNWkmpUytBTvJ8SY7JxEASr0Ck2qFFTfltKnppo5LSQWnjufpLQr9AAAgAgX8gAo0q8bcalOJzwjf+BpXoV1aVqCS2LC81kk7iml0rybNrqBMR4x81iBedOvph4cqDVHC7dPRDTdjwh5tLR38/lfvm8hqXgeacOkm5UJjEnIcEQaNDS20m3gDhMbkYCK8miBYmigiBcJ2E8zh/AFdNTEdEzSUL6BsIAAEgAASuQQIWJfUAEQBho3/RqhbvCJ2H6++rKdSoFmVN9Xh46Z5DQz9p19Dj2MAJDZ5DS/fjRLqp+kj0u1MvWdSklyDSnAZmSaLrrsR3zQb6O016yV4iRoRHIgAcOvqAUyOR4/k4dJJV2DuAWTi1kt/iJYcODb3XoaWP4+9mIATwZkijFiVValGJH2xQMV+8Es8PYwABIAAEgMB1RKAxYvBDW+5aVNQYX49fsOGORUU9OtkOBYLfAAAgAElEQVQjO1Wqj9g19NYEhh9X5bO4ZmCgnFpG5tJLkEvPkLZ2srnMxW92DXeLS8++49JLxvBciBiJHHWS8SadZFuTno7ZdbFJJ3ETYeDSM/9J5oa9IE4N9Q2Hjv6+U0uvcGhpX8RjIsgZiOQJJPMIRHZEFI9bVOJ6i0r06EyTNskc4QgEgAAQAALXOQGbkrrZohKfiLz1Cww/djuHC/YcTIbBYRB93qalrXFv/Pxbb5NOsrvGLLox2b2pfO/Uc98SGH/UpGfqUrlvNq4JaLNvchnYZ1x65qJwDtFzXgzsdemoBfHj4dUNTTrJGBEAU7ns3Trusw4dVWzX0K/Y1bRHKAjihYCwbDJ/HhUCCP8dG1XiGouaeqBJT38ifl7wGQgAASAABIBAhIBVRd8f/9YvMP64Ut+ZROvVHTr6604t3RVv/LHbu0lHb0h0T2TQFE+c+eJPNxsYJGhDKd467ctwOMOlZ+5tNjD9gnH5ObgMxBMhKXUbuKRhjSY9rRCECEaF1Q1TmZhNJ/6SQ0P9xK6mt9k19KlEyYIxQiBOBISFwPlGJbXRqhIZYHlhKtThGiAABIDAPxgB7JK2qsRlxKBEyvSGS/Tit1Gnjs4WYnFomdsdWnpAaPz5bHidBOHYdzqJg8J+489xP80GZkxoiOfyzdalZ8TNBtYiHC/u3Osy0ob4ecZ/dhmYJZEQgZ7uj/89nc98hUItI7NrqGdsGrqJ9wiEvTPkb0aOFl4IkHAO7w0gNR36GxWi5+vk2d9OZ2y4FggAASAABK5zAo0a6htWNXUp1vhHK/bZtdSvCAK7nhHjojzE+BPDj93dTVpm62wZfzKe28AMug0MIq3ZyGaS32briEWFx8SucBvZcbeRRZEWHXfIbZD8PFWvhksvKSWhgmY9XTFb88T9OLXcF+xa8Y9tGmqLTU2dxH8zIgD4YyJvQKi0MxED1Q0qamGqzzKbc4e+gAAQAAJAYB4SsGmol0i8WRiD5s+1kh14yniXPWL8hYYfG3+HTlI905h/IixuI9scMchGFjUb2TsTXTfd77xG5i6Pke33GFmEm3Ast5G93GxkXrDncf+aav8dHPdhl4E5HxUAzPJU7033uoBW+yGrijbaVdQ7oSJCYTGQSATg/ACBEGhQinsbVOLfVavEn053XLgeCAABIAAEriMCFiP3SZuaGok3/uE3/WG8g55TKxnCn+ONv0snafHmy/99LnC4jewRbJSJgfaY2N/PxjjePO4WTy6732NiEd+EY4TOa9067rvpjuXRMYwwbOAyMA+n28d0rsfVF+1qca5NTb1rVVOnsDdgkpAALwZw6ecGpehCo0L0dr1yYjLjdOYB9wABIAAEgMA1SAC7+iMCYOJ6/pPxhj+c6HYxfgncbD66x8itFxh/bKzfnkn/OOfBZ+Ie8JrYU14Ti4QtLAaOu01czLbE6YyH4/8xAsDEKtO5fzauxZ4Yq4bOt6ro9ywq6kxolUcoN6BxoicAiwC8LwSqV4hqapU5pnQLNs3GnKEPIAAEgAAQuIoEsEvZrqF7SHxfeCRL2sgxkuWupxfP5ZS9uexL5C09bKyrpzueRyf7ktfEHfSaOJS4sZtcJvlnpts/vs9tYOoi+Qp41cAM+5vJXPC9WAw0qsRFVpV4s0UlvhheIRAfDhCKACwEbPVyUR4IgZnSh/uBABAAAtcQAYdG8osYw49L2wo25IkYfpz0p5eUp7vELV0UPhP3u+hbOjbc7EC6feDrfSbpvb5c9qQvl0MJ2jFfnrR4Ov0K7/EbuU+6jexYNI+ACQh/v9rneNOnRhX1C4tS5J7CE4BFAKqX5zgaFDkFIASu9l8OxgcCQAAIXAECuLKfQ0sfSxTrjxj/cEW8UHU8pqpJzyx2m7gZbR2c7NG8udxPyNs6MdwBrfamZNfHf99mVnzcb5KuI/fGH/0mbpfPpLw5/r7pfHabuLtJuCIsAlZNp58rcY9VRWc0qsTLG5Xi0yQ5kM8JCG0THRIAobAAqpOLmusVontme4XHlXhOGAMIAAEgAATSIODQSv6QJN4fKYVLstzJsdnAjDcbmPpmPbPYY2D+I43hJr3Un8vmxxttj0F2x6Q3hX/057ISXy7b5c/l0MTGnvSZuO+l0k+q13hN3NqYhEIDd1+q916t66pM1McaVKL7G5Xi+lBSoJjPBwjnBESEQJ1chGplIleNXKS5WnOFcYEAEAACQGCOCbjVon9z6iTnses/8tYfcvmjuNr8wip9kfNQDJxtcpu4JS6TZEbFZ3wmKSUUANiQT+WuR2bz+/15siX+POmoP0+KErT6QJ7sq7OJERfs8ZnYERyuIDkLfiP3zdkcY677ssqzv92gpF5pUIovYwGQSARgIVCnyNlToxJdU8821+ygfyAABIDAdUPAoZesjRj/qMufbMrDH4XZ7vicN/xGJmYtfdglHvAY2KfdudLsdOPJ2JsQeXvP45Aft1zpb5OBDpgln2rJ4w605ElRgjbekid92nJ/xgeS3T/d7z0mqZ6EKsI5C73pPut0x57pfW6O+2iDgipoVIpXNSrFg+HlgRMEQD02/nzLQXXynEs1ctGLlTTsOTBT/nA/EAACQGBeEWjSSlheACQy/rH1+fk3/5DxjxbSIbFw/hh+Kw4bxqA3V/qSz8RK8Zv6VA/Nx/B5wx99k2/JlyaMrQfy5aKWPGkwxvDnS1FLqB0L5MlUU4033d/9udxq7KkgIsBn5FZOt68rcR/eRtiiEv9Po4raa1GJz6eUFKggAgAfeRGAamU5Q3Xy7J/BfgNX4q8GYwABIAAErgAB/PbaZJD4cE17Eufnj3HGnyx5i2a+xxTt4d3hsVn8HPKSTHwTN+gzcW/4c6U6vAQx2WO15EkvxBj1PG5Ced2WAtmDLfnSi4F8KUrQLO0Fsi8l63+m37vN5g/6crnjwlCFJ5fNn2m/s31/o5z+ilUt/o1VQzUmKhssFAFT5QMQT0CtPAeLANzc9bIs2WzPGfoDAkAACACBq0DAZZA8JjT+iV3+yd/6Jxh+U8IleKEEvTzuhC+PfbclT1rYZzT+i/BxI2/10bf5PvI7Nr6BAukbCYw+EQKrOn7AfZhcPxdHn0lq4nMTiLDJ5S74TNTH5mKsdPu0qkVfs2moR20aykL2epi4d4BgA6HYcsGkPoC7XiGq4JcG8ssDiScg7AWIioDxWlnOijptdsqrNNJ9HrgeCAABIAAErgABp4b6BhEAMcZfz652G5idbiN7hrz5R1z+se7+qEs8ahwj6/D52D6J64eT9cJv+uda8rmtgTzu7o487l9b8qXWOAM/jpcr4nh/a76sIpAvQ6S15stQawHfLrblyx64Aphu8OdJt4dyE0KrDby53MErMW6yMVwq5osOLb3YrqVskcqOGhpv7YwSiYAJJYOV4ouNKuqgRSV+CHsN+JUCClF7RADEhQIEXgDeG1AtzemG1QLJ/jrwPRAAAkDgGiHg0jOeGOPPJ/uxP8TTx5nvboNU7jGxz3gMbBPJfg+9+Qvi4XHGfxLDH0rcC7/ph40+duufjQqAsLHPk9/dWiDrCBt7YvRDx0LZ8UCRgrsSiD0Fks+15EkvR1cacKjFxF0R4SF8PotC8XGHlr7XqaGPOLT0GCnmFCsAkoiA0OZBgxYV9TauGhj/Bt+oFC2LWxVQVq8QnSVhAJwPIBQBNbIchFu1LHt1KffdlDdSEj4PnAMBIAAEgMBVJuA2Sv4iFAB8zN/EPpZoWoEC7gseI/Mjr4nb5DNxI8KYOD6PzeYPJfXFxPZjDT9x4Uff7kNv9sTYjyc0/gWy1naz9BuJ5jcX3wVyucXkGcIi4BKuCDgXY8X3ibf0dWppY5OO3kCWbeKlm8T4k2OsCKAingCrmnLZNNSTdpVInKzIT6OKUjYoxeOC/QJ8eOOhKiV1c71cvLJOLhoVJASSfABeAPBCQJrdWynLMcbPHT4DASAABIDAPCfg1tHZRABEMv0N3ItTTRtnhfvzOdqXyz3hy+Us/lx2jHeThzP6idHkj5MY/iRGnhcBbQUyFNMKZVX+O6+M8cXPj5YseV9LvqyFX2VAlh3mSndPxWamv/OhGQP7TJNBMoCTNMlyzUjJZm2sCLBraRQWARftGsl+q5r6uV2Tc8tU88CegEaluAtXCgxXCRxvUIkZ4X0NUuq2OrlodzIvQI00G1XjJst+x6LI+LjwXjgHAkAACACBeUwAG/JmA3M6YvyNOOmPW5/ulFvzVZ/25XF3+/KkONFvMCIAEmbtR+L45G0/cowz+KitUEba5dZC6a/nMts//pkDuTIjCU2ElxqiQP7sVhckY+JNfVxG9vsuI1Pu0jPjodwMfj+GUHVGwX4NvBCIioCzDi212a6m78JhAtJfKsdGpeiNuDLBy5PdVyfPltbKclzhFQG8JyDkAchBEREgzW6rkYmykvUB3wMBIAAEgMA8I+A2SA6SZD989BiZsplMEb85+wvkmS0F0t8HCqTVgXzpaMiQJjb8EaMfNfZhoy9H7YUTW1uh3NpRJFuMQxIzmedU9wbyZWWh5MPw0sMC6Rm3mfvoVPel87s3l/kvj4F5pdnAjBBPjAvvMqgnLSwCwlUbw16AE7iQk0NDFViMGTErKlId26IW6xtV4nEiABqV4l47x00az8chiVpZzuJaWc5ZLARILoBAAGBvwKUqLvtX10qRpFR5wXVAAAgAgeuSgNvI/oEIAJzt7zay3tl80C49/YlAobQ4kC9/szVfdpK4/RMb/okGPyICiuSoXdA6iuRj7UWyQx2FsjvxcsHZnHNbgTyTzDMiAgqkb8zGGNjr4jaxZreRKSPcsQeGCAB8jAoAhuzPcNKlY95u0jA6nJw5k3nYtJJPWVTifn7r4PCyQFwpMNU+61VZX66V5ewRCoAYEcBloyouezdUEUyVKFwHBIAAELhKBNxGRhZ68w8X+TGxQ3MxldYC2Q9aC2SXExn+iJEXvvGHjX1HkRyl0I52Fsn/1Fmg/txszL21QLqeCAB8xCIAi4KZ9O3WcZ/1mNjfe0xsD1lWGREAWHhNFAFnXXpmg8vA5ndws1frwKqmdmDjzwsAfFRSW6fzXDUykblGltMfTgYM5QKEcwKqeBGQ1Vohz57RXhHTmRfcAwSAABAAAikSCGglnyIGKbzU71KKt6Z8WVuh7NHWAtk4b/wFrv4Jhj89o486i+SRFhYJ59uL5K/OJFcgUCi9ra1ANornKhAB1pQfNu5Cv5HN9BrZd70m9iIpniTcVTAiAkIC4GIzX4OBuWu2ww14WlYVfb+VXxYYKQ50wqakpr1dcoVE8qkauWh7jAdAynsAsBcAtzOVbNadcUjgIxAAAkAACMwXAl4jO8CLABOLsJGarTdOnA/QWiB7aeJbP+/qH20rkL/Hi4Ap3vI7zQqUZrvUaVa81n6n/DPpMm4rlG2LJB8SEZAv+3E6/eAYeItJqveZuDKyXJLsI4D5kpoKRHi5jWyD28T9fC6XGNqVzH9Y1dQZXCkwUhxITc1KTYNaLue+Gmn2aX5FAPYChIx/WARkoQpp5l8hLyCdf0FwLRAAAkDgChHwGNlSbJTIGyrO6p/p0Lj+f1uhbGO88Q+/9V9qL1QUt5nl2xK49y/h79I0+MmuP9VZpPhdquWCOwql2e2F8vG2QjlZfYCXIg6n+jaOn9mXL73Xn8e648oH8xUSQyIgxNljYrvdBvavf3fz/+dMWU91P847sKqpOlImmBcAanElWnLD+6a6N9XfazjR16ql2bVEBIQ9AKiKy0KVXBaqYjI3WzKml7SY6hzgOiAABIAAEEiTgMfIvhoVABwK5Mm+mmYXMZfjXf5a86WlsS7/SILfhY4iRS6O13cWyS8LBUBnkeJy90LZV4NmxX91mZUPd5oVezrNigtdZgVK2IoVqEvYElyHhUSHWdHSaVZNuZlNR5H8sDAsEfIESP8Y83AJPgS02pv8edLHWvKkfXgJZKhoUKg4EvEA4KPXxJ33mri1PiMjm03jm2BKMV/Z1fQTuEwwEQBWFXXBohJ9M+aiWfiAhUYVl/23amn2eFQAZPMCoJLNQpVsVmMVNf2QwyxMEboAAkAACAABIQGPkVlM3v7xW2pLHvdd4e/pnPtMyptbC2TOJMb/fGeRTIv76yiSPxZj/ENu/nfjxwp8T3tT90L5oq5i+c6uYsXlGIMvNP7JzqOiYLyzWLEK9xc/Bv7cbpaa8Hz4lQbRZMSzkxUfcpvV/xbIl/4xkC8dERYMEpYOxp4Aby7r9uVxj+DrE409l9/Z1LTCpqbGhALApqF/N5dj1siyzFVc9mkiArAHICwAUAWb1VnKZcy6+JjL54G+gQAQAALXLQGvkftBSACEavy3mGQxFeFSffCOQu6bf8/270xi/M+0FSnluC8cD+4olLfGufrH2wvlk2aNd5i5zwaLlb/pLlZ2dRcr0eQtzjuABUJIDLR1muUi4TPhHQo7iuSdRJBERECR7CXhdeQcb1QUyJc92ZovO0WKBeFjnAg4589n38YVE8l9V/rokmd/xqahj5KNgrAHwKam6/Gb+lzPpUKefWsVl+0LiYBQGEAgAoYqpTnZcz0H6B8IAAEgAASmIOA3sloiAHhXdZ5MNcUtE34O5MtFrQWyodiYf8Ttf6q9ICoquoqU8jjjj2P4KZfZRRz3z90LVYu6Fypd3QuVKKYlFAZxYsCsuNxZrPgVeYgus+JJYvzJsb1IfiF+NUFngeRzbfnS59oKZGfICoFInYCoAGgN5Ep/gXc6JP1fjSMOMeDSwLhMMBEANjV1tlFDXbG9FHC54So2ewfJAxAIAOwJOFPFLuC9QVeDD4wJBIAAEAACeOc/E3M7yVLHAsCfx6b1P+ZAoczYWiA7i42i8O0/HE8f6ShQ5AhBdxTJ34tP8usyK9J+U0Zm8/u7i1X3BouVweBCJRK2iCiIEQQCIYBDDkWKdV1mVUanWXGRzxUQrkYolEf2ROjJl/97e6H8mbZC2VkicIgAwMdAvmy8NU96EJcPxisfhM96tc5tGupRslFQRACoxA9e6flgIVLNZb4YFwbAAgBVMFmXytgs85WeE4wHBIAAEAACYQI+I/NloQDw5nOGVOG0FUrvxQV+khj/oVazNEPYFzamOLFPKAC6zIpK4TXpnmMXfk+x6rHgQuUJoQgg57wYiAiBWBHQhb0BgmWGYQ/AyYBZ+ymfifpYh1n+h/ZC+QksZuKXB4Y8AdLXce2AdOc8l9fb9YzYrqEvxwgALXXgai7Fq2CzflHJZo1hLwBv/EMCAJUzmZfLmczvzSUP6BsIAAEgAASSEPAbZJ/HAiCSsW6SmpJcGvN1S57sd7jAD3kbjr79867/gUQx/Y5CxS+EBhfH5TvNCn1Mx9P8cNSs/VRPsXITMfzCY6wIUEZXD4STBIVzai+S/6XTLP9lZ5H8WCQfgBcAYRFQIOtvK5A+hsscT3Oqc3Zbk57+hFNLdwl2CcRx/xGnNntO905I5YEq2SxzJZt1Pk4AYBEwWsZm/jCVPuAaIAAEgAAQmEUCeN2/UAD4c9n8ybrHrvdAgew1YvgTvP33deYrEq5v7zQr3MTYho2/c7bfTIOL1Hf1LFIOCwUAORcmDkZWFAg8APzcihTHSS4APgpEQHtbkfSnQbPoxsn4XK3fMEeHlt7mwFsER7cJRnYtNW/esCu5bLqCzRoJhwCw8SdtrFSSdd/VYgfjAgEgAAT+IQngt0ahAPDmSQuTgcDFbgL50g04+S2xAJB2txUq/yPR/V3FSkpo/LEA6C5Wzkmp2IE75Z/pWaTe0ZMoNyBJOIDMDR9jBIBZ5movUtxzJbLnE3FL9TuHVvIgNv6khUMA06r1n+qY07munFlwewWbNRQSAREBgIXAWKkk8+7p9An3AAEgAASAwDQI4Fi3UAD4TGzCxCzs8m7N5yoSbe8bcv9L2zvNqi8nm0KXWb6aGFl+Sd5CRRv2JiS7fibf939f9ZHeheqVPYtUaDIRkNwLEN6EqFD25Gx7KGbyXMnudWiZ251ayQVi/HkvgIbuq5dn/Xuye67m99Vc5ncr2KxjFVEPAO8JKJNkXj4iWZBUgF7NOcPYQAAIAIHrjoCnQPI5b64gB8AozY1/yEAB94WWfGlzdN37BA9AS2uu6ovx95HPuDpgp1lxVigAuouVs1KLnoxBjsG71Fm9i1QtvPHHAiCRCIj3AiTIBQh7AUY7i2R/ttyf8QHS/3w7YgHn1En8Tq0k8vbv0NLjdg2lm29zFc6nnBH9VwWTOSAIA6AySSZuF49IsmYlL0Q4HpwDASAABIBAHAFvvvzrkQRALARMnEZ4ScAova0lX9odNf7SGPd/a4HMg9fIC++JP+8wK/5HaPy7zIqjqdboj+8r2WfsTehbpPpd352qS72LVAi3qAhIsEwwLAKSeQFiwgBF8vpkoY1k87lS3zv0krVOnQTFCAAd/fqVGn8m41RRmbeVC0RAWABgEXDuMJMpnknfcC8QAAJAAAhMQcCbJ80QCgBvHseRW3Alu5Y86XFc5S6JAHCmsnlQp1lhjREAxcrFZIzZOPZ/X/XlvkWaqr47VaiXtMQCoA0nBApXBaQoAFB7ofx0W5GiYDbmO1t9NOmYn/DGP1YA+N0c99HZGmOu+6mQZNxRzmSexJ4AgQBAZZIFw+XMHQmTSed6TtA/EAACQOAfggA2+EIBEMhn+VK5/jwuryVPeg5vcJNEAFi8+fIpY8xdZikuthPZsa/LrDiRrCb/dIAfvUt9T99d6pN9d6rRJAKgM7hQ9b3gQlXrDAQAFgHj7QXyP82Hgj8uHbWgSSe5ECcAztt14mnv5TAd/rNxTxmbLS1nMi8IBUCpZAEqoxd0HRaJPj8bY0AfQAAIAAEgEEfAa2TvjBEAJub2lnzuAX+edJQ3/gkFgLw21XK3HUWKZZ1FAgFQrPxr3BSm9bHrLv0neu9UbwgZ/pDxjwiAaAjgcs+d6ucGzdxHg4IaAdP0AGABwBcEai2S7ZhNEZMuALda9G9NOklHE37zJ00rQXYN/dN0+5ov11dIFhSWSTJHiQjAAqCU5kWAs4qiPjZf5gnzAAJAAAhcNwS8udyjwiRAv0m6zp+HSwKHtrZNIALKceJZKgBwNn5HkfwkjqeHvQDn2u+UfyaVeye75uhdamnfnapubPBJi7j+cQiAd/8rG3oXKW7H/QQXKh4ktQB4D4AgCbC7WL61y6wYCdclIPOMXQqI6wGEdwkkFQHbC2S2dtPMn2Wy50z0Gy6v26SX7MbGP0YA6JiNia6/lr4rpxfcHy8AsAg4Qi/YvXGOVoxcS3xgrkAACACBWSXgMXHLYpYB4v0A+D0BEgqAMrc59fhyZ6HiXpJMxwuAIvkrM5k8zsbvvUu1pPdO1ViMwRfE/XsXqc4EF6kXkyWG3YuUC4ILlReIAIh5+1+oWIPngwVNV7FycadZcTw8z1gBEN0iOKYkcFuBtL3VzH1tJs+U7r0uPf1/TfqQ8RcIgDaLQvHxdPuaj9eXMplPYRFAPABhAYAO05nPzsf5wpyAABAAAtcsAZ+R3ZNYAIS8AMQDEMjnStLN3O8oklcLBMDlyeoETAXwqFl7a89ClZ1k+Cc5bg2aZZGYMQ5TBBcq2xMZ/+5iZX388+Dlih1F8qc6iuQXybwFlQBRG9kToCBmGWRvaz73ranmPxu/u7WMzKWXjMYJgAs4H2A2+p8PfaAbbnhfmSRzV7wAOEIvQKXUgh/NhznCHIAAEAAC1wUBr4nzTSUAAnmybW6z+YPpPDDeJAcbT2JIO4vk76RzP7kWF+LpXaj4ec8i1bnosj7hEj/+vKt3kTJmDwN8X3ChYhsx/rGuf9VRoVAgY5EjXvLXXiTfjeceKwBkIQ9ArADAOwIem+tNgRwG2eddBmaAN/5hDwCO/zt0zE/IvK+XY0l29k1ldIabvP1j44/bYWrBxSN0Rvb18pzwHEAACACBq0bAqVJ9xGtiRycTAP486YbpFMJpK1K8IBAA4635qrTfkjvM3GeDC5UlxIjjqn49i0jjDf9ozyLV8zjJLx5iz0LFI+Q+odu/u1h5sXORLKU15u1mqam9UN4XSv6LbAbEb3ssLIWMSyMH8qVH2/LlX4+fx2x8tmRkfMClZ6pcegYJBYBDJ1k1G/3Pxz4OizO+WipZMESM/xGKFwDoMJXRhgXCfJwzzAkIAAEgcM0Q8BpYkdfEIiwAEosA6RoSS0/nobBrvb1QPsQnzmEvgFm+M5378bXdZqWpe6FykBjxBMfG3oXqOxL1G1ykyg4uVF7E98QafwXqXKhMa9MZvIVxW4H8PZL8h8seJzD+fJ2ElnxpEG+vnGhOM/muWSd5Dht/F37zj8b/LR0c9+GZ9Dvf7sXZ/hWS7FsPMxmqUknmD8okC/YkEADoCJWxdr7NHeYDBIAAELimCHhM7P9MIgBWTne9e1uh7E6SNY+9AJ1Fqb1xY3h45UBwoWK5cOc+bMSjAkBxKrhQ+XAyYRI0q/8tuFDZGWv4lai7WIE6ixWvTvcP1F4kM7cVyE5MIQBQS5404Ddyn5zuOPH3NRslhS49Mx4jALSSIY9O/KX4a+f752qx+NNVXHZOOZP5vQpJ5u/L2MzV5UzmgXIm010myTyVZAUA7/4XeACwFwAdpO7Ime/PC/MDAkAACMxbAh4TuyIkAEJeAFIPwJvLvTKTTXDaCmVHcMJcWASUpwqge6E8s7NY4SfV+WJEAL90T7Gt53vapHvb4zl3Fyt3xt6nQLi/zmJF2XRCGcK544z/QIHMQTwAYdc/efvHxp+0SrxzovDe6Zx7dfTXXQbmZMj4R9z/oy4dq5xOf1finlIu45PVskymUpp9fxWX/bcqNntLJZflqGSzTlWyWYjfBRAfmSyyFTDZCChSCTBRAmC8ADgkzvjllXgeGAMIAAEgcF0S8BhZj4cPAUTDAN489rmZGH9sJNsKZeMhlzn/9q+dCh5+m+8sVv6206y4xO8UiHyzaLMAACAASURBVDfnKY627mJFd/dCxYRNiuL77S5W/Cpk/KP38v0sVHQeNWs/FX/9dD4HzaIbAwWyVa2huH+kRDKulkgEAK6h0JLLrZ0JR4sx41+aDYyTGH/i/ndpmf+dzrxn+55aLueWGrlIUyvP+WWtNGdFDZddUS3NPlYtzUbVXDaqirQsVMllIWz8YwVAzFbAEeOfaAkgHwagFgwfpjM8R6g7Dh6hFvzlYEbGdbHscbb/LtAfEAACQGBKAm4d91mPkR2PCgBeBIx7c9lyf670D/586Xem7CTBBYF82ZOh7YFxxrzcPpUR7FjE3dJpVlQKywXj87AQGO1aKH8xlcJD3Yvkkq5ixWWhcAj3cbazMFQQKMF0p/1VIF/6i0C+dAzvkRBv/ENFlDgsAv5vugM0G5m3mg047k8ajv8zb063v+neVyMS3VivpBbUynLuq5flvFQnzy6vk2WP1MpyUA1p2OgLWtT4Zycx/tgDECMA+sskmdVlzIK3y+kFj5dKMu4rozONOOO/nMn8Yon2azP2pkz3+eE+IAAEgMB1R6DZyN7pMbKIb3FegGgogHW35EofSrX4D3axtxbIjmIXOR8rL5Ivmgxce6H87o4i+Qm83E5YLjgsBqxdZlXGZPeT33B1wS6zojfiPYhu7zveYZYvJNfN9rEV75dQID0zUQCEiin5crlRn4mVpjtus4H9cazxZ3DVvzK3+da0lmKmO26dNvumOjUlbVSIft2gzHmvXiHy1CtEo3VyEQq1HFQrz0HY+E9DABytYLMOl7OZyyvYrN/g0r+VdNZ3SrlbJ6zgSHfecD0QAAJAAAikQQDH/ycKgGgogIgAfGzJ5Y778qS/iS+cEz9ca4Esn8THWwtkgWSJerhAT1uR/D1SI0B47CySn+4oUjyS7N74MfnwgVlxJN6DwH8uVvw5/vrZ/uwr5Ba05EkHsPufvPnjSooCfkextyXVcT0GyR3NBuZ8rACQtKay8VKqY+DrcIihUZlDNShFDzcqxe80KsS+BqV4rEEhQrjVkyYw/nXY+E8tAIar2OzyKmnWa5XSzJ9WSDPZennWlJtGpTN3uBYIAAEgAARmQMBtZDvcxAOAjxEvQGxCIDFkofLAXCveIjjZsIF8WUlUAMgTFqgJFCm49kJ5t3CVQFQAKHa0LlJ9MVn/ib7vMiueTGj8zfKt013FkGicyb7zmaTf8OdJu5MIAOQ1sYdTmUuTnv5Es4FpjzX+zAmXnpnxtrgOHf11i4r6b6uKet2iopwWlXi0USVGjcpQa1CKUYMyzvgryJs/PsYa/1pZzqUaWY61WpazskaW/Ugtl6OokGR8bjJO8BsQAAJAAAhcZQL4LRMb/3gBEBUBE+sCYCEQEgHsmC9P+vv42H6bWfH/AvnSURwTb82X98VnweNKgm1F0qfbCmVjOEEwIgD48rrynk6zLD9dLF2FMmNnkXw8KiAilQedqYYt0h0z2fXePO4Wfx4XiHv7j9RY8JrYSbPWMc9mA7OTN/7R2P+l6WT847d7m07M2FTUozY1tcOqpgatagpZVRSyqMSRRow/Pk4mAOrlogt1clFjnTz79Tpp9v110uyMuQ5HJOMM3wMBIAAEgMAMCLj1zBNuA8MLgHREAC8A+I2C8D4BsndKOe6fyTT8BbIl2PiHk+J+Tb7Hx5Z8xX+2FshsfHIgzg8ojLTR9kL50lSS/IT94fOuAvlXOooUxycaf9kgTiyMv/5KfPYUSD7ny+W8xGuCd1kMFVnCXhX2nMfA/EeyebgNzKPY+Ave/sddesndya4Xfo83ArKrJXq7ln7aoaFrbRrqkk1NIdx4wx8+WgQCYOLbv5h3/TcoROfrlKL6eoX4tXpZzn01CtHtuBKhcDw4BwJAAAgAgWuUQLOB8WBD4zbyIuCc28gOpJoPIBQBvjzpuzgGj1tLnrQLJ8MF8qUjxKDjt9pAgfSnrQWyc9HQQChBEG+n21Ygz5wOQpyL0GGWW4XGn6/ZXyS/2F4kl0ynz9m6x2dS3uzP5QJYBAiMPx9i8RjZSrydb/xYzXpW6jYwowLjj5oN7G/iryOfLUbuk3atJM+plbzg0FI2u5YetWtohJuNbyHjHyMABMYfewEEb/+BeqV4TYNK/NNGheh2oagj48ERCAABIAAErgMC7lzJreRNM+wF2IONksvELfCYmD97jOxQNBSQOCkwGg7gwwJP+vNkWrIGviVf9gTG1G6Sf6YlT7on5BWIKZ97OlAo/+VMDE17oWyFMIQQOS+Qz4vd4twGxf/zmrgOUmQJ84wILCP7U+E/I5+JurnZwPTzxp+4/g3MUuE1AW32TU49Y3LqmKVOHe1yaOlxh5ZGpBHjHxIACYy/Grv+cROdsarEZRaV6K+NSspk00pmpTaCcK5wDgSAABAAAvOUQLOBeZIIAP6oZxYLp4rf3t1G9rceE3uSGLBEewUIRMC4P0/ayhe/yZOebc1XfTqQKzO25EsHSEggciyQ7cS5AsLx0j3vKJD9IGLwo9UGcc2BF9Ptay6vb9HTX/Ga2B7e+AsEgNvIDpOMfiyCmg1MBfl74DX/zXpmY41ZdCP2Crj0zBNNOqbWqZNcxjv/8U0riRh+LABijT/2AMS4/lutKuodq5L+Gbzdz+VfG/oGAkAACMxzAtjguPRMHzE4+NhkYEWJpo3L0HpMbFOKIgD58zhcCe/NllxuWUuedJz3CISL5ATypT0tedLCROOk8117ofzbbYWys4IcApJPsH8mHoV05pDOtd5c5r88JnaEvP1HEi8NzCu4H5eReZb8LcIFf0Zdeqa8SS85J9j0J2T4sQCIN/6xAmDMpqbsVrX4RbtKkudUiT+dzlzhWiAABIAAELiOCTQbWCOpLBc2PGcmS/DC2eReE7sxJRHAJweyJ0NL4SJlcccCedzLAa12xtu3tpkVH28rkLVEEgnDxYbaCmT+Lj39ifn6Z3PrWYnHyOI8i1DSZSjR73Kzgflds4EZx38H8jfBR+F2v03krT98JC7/8BHH/S02Df2cU0sb8RLC+coA5gUEgAAQAAJXmUCTXrJdaGzcRmb3VFPC1f28JnZvNC+AJLfFFLvhC9+ElgniFQK4Se3+PFnWVP2n8jtOJmwtlG0RJhKGz0fazdJvpNLH1bzGbWLNvAAIZ/mTt/5440/q/WPDH2/8nVr6skNH1zt11DM44x9X7buazwRjAwEgAASAwDVCwGaibm7SSy7jN0wiApoMzPdSmb5TpfqIx8jWR0VA8uRAXy53piWX+9VsuuRbC+T/izffiRMAo4FCqTqV+V+Na/CmQR4jl+c2smvcRnYEJ1wKDX8Kxv+SUyupadLRTzp1tIasrLgazwJjAgEgAASAwDVMoEnLPMW/WerxpjK8CDiTarEcj0mq9xjZXj6WHVcxcGKCINs70213hZgD+XJRIF96KZJIGK41ECiQPSK8bj6c8yETA2v0hIz+qTi3f4wAICIsdAz9TZp0krYmLbO8SU+b8dr++fBMMAcgAASAABC4hgngN3inTjJMXMvhOPPaqR7Jnsf9q9vILieGjCSzkcz2+NwAXPiGL4JjYs1T9Z3K7/xSwnxpT7zxb8mXvpXK/VfiGhx79+Qy93iN7EaPkT2DGRFeKbj9j+Gs/yY9fb9HJ/7SlZgvjAEEgAAQAAL/QAScOuZhsowsIgK0lHYyBC69RN9sZPqEFQOxQYuIgND+AaNeI/cDb2S1QKSEcMVkfafyGw4h+PO5I5H6AnmRxMJKXFY4lT7m6hq8uY/PxD3gMbEHPSb2MmESb/gTuP3PN+uZQ016ZrHTILkjUVGguZoz9AsEgAAQAAL/YASwIXXq6HYiAPCxSSfxJzM+2PXsMkhWCePVIREQLR0cFgLjbhNzL8aJiwt5TexZoUfAb5B+Zyao/bnck+HaAnh5Id/8edJOXGdgJv1O916PTvYlj5F7xGNiKz0mdoz3gggEUbzxJ/zcBqap2SB5zq3jNDhEMN3x4T4gAASAABAAAmkRcGgkd5PlYxERoJX8T6JOXEZG5dIx3TguTQyY8BjnDXhI2IfbxP5VGBrwmNjXhL+nc+4zSU3+PG48tJogsqrgtD9/ZqIinTnga7358q97c7lHvSa20Wtix8nzkTf+RO5+t4E53mxg3/v7rn73eNQS2B0vXehwPRAAAkAACMycwEaz+f0OLe0jAgAfcS4AzgkQ9o7fTJ0GZmmTXjIem5w2UQjwIkDP/lZ4Pz7H1e08RvYUbxxx5TsT2xe/Y2D8PYk+ewpkX/LlckN8LgHZgTCXG/flSYsTXT/b37mN0ts8Rm6x18RUEY/GlIbfyLS5DcxSj55TwC55s/0Xgf6AABAAAkAgbQI2DfUju6BmPC8EdPSfhR059Ky0SSfpiF0hEF0qyAsCwRI2l4H9q/B+4bnHxCwTvh1786QZwt+nOu/guA97czkbMf6Ro4n73VT3Tvd3LFJwvQJfLveU18QGJjP6gjf+i24Djv8zD7u0sq9Od2y4DwgAASAABIDArBPAb6J2Dd1JasWHvQCn8E5yeDDsBXDoJS87dZLxcF4AX3wmVgjEVqlzGSUvTTZRl4HjSCwcG0uvgXl8suvjf/MZuZVkWWFkRUEut346noT4voWf8e6FHpOM8RrZpT4T2z3B6Atq9xNBg3dMdBvZVc1GaSGsyRfShHMgAASAABCYVwSsavpnxPiToyP89u/QULRdS7eGQwLRWvPhCnSxIiDsDdBJVk1liHFiYdhQ8kvhmo2sJVUo4dUEiBhjLAR8Js5uMRpnJXGOr2hoZFReE7vca2L78TgR134Cgx9+27c1m5g/u3Ol2cmSJlN9PrgOCAABIAAEgMCcE7AoMj5uU1MD/M5w4X3i7Wp6xKakbsa14x1aeizsEeB3lsObzEQSBIUiAJ/zhYPoDTifIJWJNxvYTXyegIFfNTAeSGHLWZ9J8m2PiT0nNMheEzvozeNuSWXMZNfgkILPxJg8JvZtj4k9LuyfvNkLj958+WjggbvdbiPzE6eW+0KyfuF7IAAEgAAQAALzkoBVQz1vU4f3hcfbw2ooZNdI9tg1tC/iDYjPDQglCE4QAk6dZNdkGwbFA2jWSx4Rrhxo1ksmLdeL3ekeI+sTGmKPkb3kNXBcfN+pfMbVDd1GpthjYjd4TOzpuH5j6xjgMEWxdrzn2T+jk9XlaOz8eYQQGkplHLgGCAABIAAEgMC8ImBRib5pVVOXrEQA4GNEBMTuHz8hQRCLAKE3QC85hN+i03lAj45hhALAbZA8Ntn9HiO7juQNCI4PTnZP/G98NT4Dc4/XwO7wGNnziYy+oG/kW6Qf733hSXSqvhqNX7qEjb7wv3GEUFrPHD8f+AwEgAAQAAJA4IoTaFRRe7HxF7ZYb0CcCNDQfBhAGBLgcwO0TK2b4z6a7gP4TNTNMSsHjMzGZH1gV7sgXBDKGzCxbye7Xvg9v+wQr7U3srvcRvai0MAnOvfdZUQ9z/8lZPQvTzD6QgGAz6EsrxA2nAMBIAAEgMD8JtCopEwWlRhZVBSy4hYSAtPwBlA2vA/AdJ4WJwq69MyZaD0BSWuiftw67rvNBua80FvgMjC1Aa32Q4mux9+5cpkvuo3sQ24jW+42sqOJDL3biHMPGISFhf/uXNT36nPojN2CxkdH4438ZJ9zks0BvgcCQAAIAAEgMK8IVJmoj1lU4u6QAIiKAIuKetSqplzEIxDrDcC5AXEeAS3ttqWQuDfZwzfpJQ68t31YBIwH4vaux5+bDUyL0PjjfQew9yC+X7eJ+1qznlncbGDqmw3MeMw9gvoE5HvfPfmod9kL6HSTDY2PjU1m5Cf7rSB+HvAZCAABIAAEgMC8JNCoFL3cqBSjRt4DgAUA32px9r5NTf2RCAB8jIiASH5ARAS04pUCM31Al06yObzjYGjrYZPk28I+XXpmbdRDwNcauOTUsxJyjdtI3cYbfT1TRQz7ZEfffxfyRv9Ukx2NXr6ExsbG0Pj4ON8ms/KT/PYzMhc4AgEgAASAABCYtwQaVCJxo1I8xguAqAg416ihvoEn3aAUf1cQEiChgagQCCUJdts1M1t2RwA16SRPR3YdxEsJBTsPOvX0T7E4EHgIsKfgRy4dt6DZwDzZrGf8ceKAeBJijt4fFKGela+gk81OdOniRXTp0iV0+fJlNDo6ygsAIgImMfLkp4vkRHB8gjwLHIEAEAACQAAIzEsCOGbeoBS5G7DhFzaF6BHhhC0qUXtcboBQCPQ7w2JBeM90z506+qGYugJayY9xX3gL3Cad5IKw0FCTXnLKqZd0RkXBBHEQMfzuRQbUtfRpNGxtROfPnUMXLlxAFy9eRBcvXooRAEQEYC9Agv8GEEK7EEKL/37MQAiJE1zz5nSfHe4DAkAACAABIHBFCDQocv7coBChBiVuYr41KsRH4ivXWdTi52LyA8IrBWxqatiqiXXRz3TiTp2kME4A/BFvM+zUSVonlB1OWHiIFCCSIFeBErU/9TgarCxFZ06eRGfPnkPnzp1D58+f5wXAhQtYAEQ9AJdHRyNegLAA6EEIrUUI3Y8Q+mb8syGEbkQIXY4TAXvjr4PPQAAIAAEgAATmDYEGmUhcrxCN1mMBQJpSNJgojm9RUHRUAESSBE81qkVZs/1ATi2VQ5YV4roCTVrmTadeskkoCuLPhSEDl0mGWn//K9S3bxc6OXQMnT59Gp05cwadOXsWnT17NiIAzl+4EPECkBDA5cuX+0ZHRzeOjY1hg39bKs+GEHLFCYCGVO6Da4AAEAACQAAIXHECVRT1sXq5qA0bf9IaFKLxeoVYn2gy2CPQqKKOCkTA2QaliE107Uy/c6mYLxIBED6eJp/5QkPCYkO6aBli70P3oeCmd9HxniA6cfIkOnnyFDp16lRUAJyJEwAhL0DbxYsX11y6dOn+8+fPf3k6c0cIvR0nAFqm0w/cAwSAABAAAkBgzgnUycWr6+QihBsRAPUK0fPJBsbr8xuVopLwSoGLVrVIk+zamX5v14gzE1UZJCJAeGz+fgFqX/4SGnA3o+PHj6ORkRF04sQJdOIEFgAnIwLg9OkzvBfg7Nmz4+fOnVt/7ty5hWfPnv3cTOeK70cI/SJOAAzORr/QBxAAAkAACACBWSVQIxPl18lzUKiFRYBcZMFbACcaqE6e/ZkGpXhHOElwtEFBFSe6bibfOVXMlx1aerFDQ3sn1BbAtQYEew84TTLkf/w3KHigBB0bHERDQ8NoeHg4IgBGRrAAOBERAKdOnY54AXAI4OzZc6Pnzp0rP3fu3K+m+9YvfFaEkCFOAFwS/g7nQAAIAAEgAASuOoFqmfhLtbKc4dqIAMBCQDRSw4m+lmhyDYqc4gaFaCiUKCgea1CK70503XS+w0bfrqEes6kpB9lvIGYHQmGRIS2DPL/6GerYthn19/SgwcFBdOzYMXTs2FCMADh+fGR8ZOREOxEAE8IAE/MAxi9cuFB+6dKlHyCE0i5djJ8bIfSfcQIAf/zIdJjAPUAACAABIAAEZp1AiVb7oVpZTkOtLAdFmjzncp08Wxk/WKWe/kS9QrSOhAf4/ABlzgPx16X7GScYWtXUI1Y1VZe0uFCkwBCFHHeaUMtrL6KeJic62t+P+vsH0MDAAC8ABiMCYIj3AAwfP46OHx/hSwefOHEiY+TkyaUnT54aIHkAp3Ei4JkzkUTAc+fPR1YDhFcCnLp06dJShNAX03kuvPkPQii+bODn0+kDrgUCQAAIAAEgMGcEaqSiV2pkOQg3IgDqpNk/jR8QC4I6uShYL8wPkOf8Jv66VD/zCYTqHIVFTW20qKhLyeoJEEFg10pQ8y8eQG3bt6Ce7iDq6+tDfUePoqNHsQDo5wXAwOAgGhzEHoBjaGhoCA0N4zAAnwMQs3kQQugDp06dMp06c2b36dNnxmIEwLlYASBYDnhxdHR0VTpCACHUHecFSGkFQaoM4TogAASAABAAAtMiUCXNKa6RZiO+hUVAjSznZWFnNSLRjfXynKfq5DljMfkBspzHhdeleo7f9i1K8WKLStwhWD1Aygzzmw4JxYDjnkLke/UF1OF0oGCwB/X09KLe3l7UiwVAX1QA9A9gLwAWAOEwABYA0TyAxcnmd/78+S+dPn36z2fPnu2bsh5AqCrgubGxsb8ghG5K1if5HiFUGycAKPIbHIEAEAACQAAIXBUClfKsr1dLs09WS7MRblgEVHM5/5+984Bu7Kr2fmiPFkp4EEuWIQECfARSJ1NSZyYFyAshoQQIgVAeBBJ6f8ADBh4Zjz0uM+69V7lLlqxqyZYlq9myumRZbpJ7793741zpytca2ZbrOMmZte667bT70yzf/91nn70FknPn3koOqPn8mdPNj56xE5aBzf4BV8gyweyJr/3HzjyueeJBpuaJB1Y2RRf83DW5BqDlqbNg+NNvoL2uFnq6u6Gntxd6e11eAeAGNxIAfaQAQCJgoNUzDUARABQ/gLGxsWumM/zHjawCs7OzLy4sLJhQQKCFhc3xAJaXV/zDArsAYNtVDwDA9RMAAZdT+o8Fn2MCmAAmgAlgAodCQPv4iffJzp22kC9/794qOXc3ka4Xef4rHjt9UfHomVVyWoDcKx87nYKW/wUzMO3jD35E/cT9/1Q/fr/bE1WQElmQGmLYe9z6gxfAnJ0GTpMZurq6obu7G7p7eqCnhxQALnC7SStA/9jAwECc2+2+G41lcHBo0ucHQEwDIAsA4QewNjk5eVMw40VlAOBNc4uLX1xYWGjyhQVe9gsLvLZGJgdCcYHTtnLuA4BCPwHwjWDHgcthApgAJoAJYAIHSgBl8ms6d5rbdO40oE2OtvOn+2WPnfwY6kjxyP13KM6f1vlNC5D+Afn+4YADDU792AMnlY8/UKJ6/P4VisMgNbLgRojhZx4Hw//9FewSMXQ4neDs7ITOzq6tBMBar9vd5HL1v9Tf3/8uat+Dg4NmJAAC+AEYqeV2c7y4uPj40tKSjuIHQIQEDpAXQA8At/q3DQAJfgLgO/5l8DkmgAlgApgAJnAkBGRnT0XLzp2CJmI7DU1nT4+hlz4SBvLzp/4gP39qkbQM+PkHVFKnB/wHi4RB8/kzX1I+dn9DgGBC1MBChBBo+f7zYMzLBLvJDA5HB3R0dHgEgJMUAF3QhSwA3T3Q29vb09PT84+urq5rXrLkOAYHB4WB/ADGxsZSyTJ72QPAm5eXl7+7vLzcizIDUrMD+qUHHgSAM9Q+AOBffgLgh9T7+BgTwAQwAUwAEzgSAk2PnPqu7OwpIDYkAM6empOdO/1Q87kzt8rPnZISFgGvTwApAoj9udMCtFww0CDRdcX5+19sfuyMZSOQEBFHgIgoSEQVJFcOfP5haP39L8BUXQk2ux3s9nZob3eAw+EABxIAHU5wEgKgEzq7upa6u7vZPT09z/37RerzSwg0BnRtcHCwkuoHQFkO+OJWdXZzHQDetbS0dGllZWWVtAAESA88CwCPkO0GEADXrK4gy+I9JoAJYAKYACZwKATQi77x7KklnwA4e2pedu7k47Lzp19qOndqhpwSIPcUAdCgffrEJnM7GiCKBKh47P5/Nj96ZoT0DyCdBTcHFDoD6q88CbroS2BWKsFqtYHVZgObbUMAtCMBQFgBCAFgcHZ1/dLtdv/nbkAMDg5WbYoH4PUDGB4eDhjMaDdtU8suLy+fWVtbM62u+vwA/D7yYQoATqM6/44FcMnv5qZ0ytR28TEmgAlgApgAJnDgBGQPnfpk4yOnRhrPngLvNi87e/o7jWdPcUhrwKZpAa9/gOzsaRVKEEQdEPIVkD96Kl1x/tQiGT+AGkOAKgbUP/oO6PKzwaQ3gNlsAYvFCharlRABpACwtxNWgKmOjo6Uzs7OPWcR7O8frPbFAyCWAxLxAFzUsR/UMQC8fXV1NTmABYB83w+heAEAEE1e8O73HDfhoMaO28EEMAFMABN4gxBofPieDzU8crK94ZGT0PjIKbQtNp49nd141iMIKBYBQCKAIgQMqsdO+b7CZY+f+Ij8/Omr2/gIeIIJfe4hUP/h16DjcsFgNIHRZAKTyUwIALPFQhUA6za7vdFut7/o79C3l59mYGCAhQSAnx9A/l7aCrbO6urqd9fX1+eRL0CAfyoASPW7/tdg28blMAFMABPABDCBPROQnLv9xoZHTmrQy5+yDRNCYMMaQFgF/ISADZn4UccoT4Ds/Om0pnOnl7fyEUDOgs1fewo0sZdBp1CAXm8AvcEIBqMRjEaPADCZLUAIAIu132azXbJarZ/c84MFqDgwMCC7Jizw8PB/Byh6oJcA4O719fUBvxc9ebpIHnj3/3egnePGMAFMABPABDABfwLIq1/68Mka6cMnAW0UAeA79hcCXhHQi176DY+c/LDs7OmrsnOnFnwrBrxTA1QhoPj+t0CTnQGtLS2g07VBW5se2ggBYACDwScA1oxms9BsNj+n1Wrf5j/WgzjvHxiwe8ICe/ICoOWAQ0NDxNLGg2h/uzYA4JMAgAID7fTv0nbt4HuYACaACWACmMC+CKBAPdJH7sskX/7Uvb8QaCSnBgiLwMm+xvMnz8rOnk6UnT216LMKbJ4aAPnnHoHmP/8BNFwutLS0QktrK7S26igCQE9YAUgBYDQaX97XAwVRub9/YIyaF2B4eLg3iGoHVgQAPgYA3TsogKgD6xA3hAlgApgAJoAJ+BOof/C+SMlD94HkYbR5LADbiQAkChofObnW+MgpceNZ5CPgcRb0CQDv0sGmLz0BzZdeBXVDA2g0WtBqW0CLBEDLhgDQIQtA24YA8E4DDJjN5g/4j/Ogzs1m83/09w+sDwwMEImBPH4AI3kH1X6w7XhTAKNVAFv9iwi2LVwOE8AEMAFMABPYFYH6h0/+rR69/Knbw/cR0wBUEYCO/a0BXiHgcRak+AjIvvEMKK7GglKuAJVaDWq1hhAAGkIAtPgEQKuuDXRtbaDX6zX+fgBGozlrVw+yi8Iul+sT3AhKkQAAIABJREFUKDsgEgCkH8Dw8PD3d9HEgRUFgGcAIKBX4L/zDbx6YB3hhjABTAATwAQwAZKA+IETP0cvf3LbJAK8FgF/EbCdEJC9+E2QZ6ZDs6IZmpUqUKpUoFJ5BIBaowWN1mMF8EwD6KBVR0wDqJVK5Xvb9IYBvWHDD8BoMq+bzebHyLEe5L6/v//z/umBBwcHP3qQfeymrX8vAczcwgTwz920g8tiApgAJoAJYAI7EhA/eOKH4gdPrIsfvA/q0baVECCmBbaxCJw/A42/fAWaystBLleAQtEMimalRwAoPQJApdbMqjUeK4BvGsDjB7DW1tZGrOXX6fWvICuAzw/AsxywQ6vVXhNUaMeH26GA2+1+2S89cPcOVQ7lNgDcDgAV21gA/nYoHeNGMQFMABPABN6YBMQP3fe8+METq+IHT4Bn84qA3QiBxx6Ehj/8GhpYLJA1yaGpSU4IADkpAJqVoFQqm1QqzfNqtfYf5DSATwAQfgBtGeQvgLz99XpjOxIAm5YDmiy5ZJmD2rv7+6Op6YGHhoayD6rtYNpBiYDW1tZy1tfXV7f48icv/yWY9nAZTAATwAQwAUxgRwLi+088J3rgxIroAfLlT91faw24xj/giYdA+offQENtLTQ0yqBR1gQyWRMhAJrkCpArmufk8uZ0uVxNpN1FDncqlbqfFACEH4CW8AMYb21t/RB1wHq9/mvUaQAUEMhkNoPJZH2JWm6/x66+Pr5HAHj9AAYGvrvfNoOpDwAhq6urcWtra0vbRAUkX/5o/8dg2sVlMAFMABPABDCBbQkIKC9/JADIbcMSQIqBAELg8+dA8tc/g4THA6m0AaQNjf4CwCGXN/9GJpPdRB2EUqn8TmA/gJYfU8uRx3qDoXpjGsAjAMxmy4LFYrmXLLPfvdvdN9jX1wekH0B/f/8t+21zu/oA8P6lpaVXV1ZWZlFiIDI5kF9EQOQIuER9+wPA77ZrF9/DBDABTAATwAR2JCC4/57nhfffuyp84ASgjXz5U/cBhcAXPwfiiHAQC4VQL5GCRCKlCoC1xsam2qampidRGtxAg1CpVK1IAKjUGqD4AdQDwJsClTebzTSDwTh6TVhgs9VpMBg2iYtA9Xe61tk5FOJ29wESAF4/AOdOdfZ6/9/Jfd6xuLj4+6WlpbHl5WUiNXCA9MDoxV/z7+0eAEDhgKn/cDKgvcLH9TABTAATwARuuEF45t6vC+6/d0V4/73g23YSAk89DqJLr4JIIASRuB7E9RKor5eQAmCsoaHxskwm2zZynkKhfkxJrAbwCgDPcsA5rVb78e1+F73e9E2qHwBKDOQJC2xrdLlc79yu7k73enr6nnC73eBGAqCPmALI3KnObu8jMbSwsPDiwsJiz+LiIiwtLQESAMvLK4QIoFgA2ABwgmwfAJqob38AOPSASGTfeI8JYAKYACbwOiPAP3PvC4L7710V3H8vkJtPBCBB4C8EnnkSBNGRIOALQSgUgVAk9ggAMRIA0pb6+oYfKBSKoF7CCoWy0bMcUO1bDqjRtAT1VWs0Gos38gJ4kgMR2QEttmoAeMtef6be3t7fuZAAIKwA/Wga4Nt7bStQvdnZ2c/Nz8+3zc8vwMLCApACYGkJCQCPFWB1dZWzvAwn/esDALKMUP+94F8Gn2MCmAAmgAlgAjsS4J259+v8M/eu8M/cCwK0UUQAOqYKAcEzT67xIy4Bj8cHPl8IAoEQBB4BsCgS1ReIRKL7d+yQUkAuVz3a7LccUK3WKLaaKqBUJQ71ev27jUaTjpodcCM9sDXNv3yw5y6XK29DAPSB2+0OC7buduXm5ubumZ2dFczNzcHc/DzMz8/7BMDi0hJhBVhaWuItLy+f2aodAOBR3/4A8KWtyuLrmAAmgAlgAphAQAJ1p+55nn/mnlX+mXsACQBy8xcC/Ke/sFgXHQVcbh3U8fjA4wuAjzaBsFcoFP9FJBIRWf4CdrLNRYVC2eCJB4CWAxLxAJDp//9tU+WaWxaL5Raj2TwcKD2w1WqP3sqP4JqGKBd6XS69y0VaAPraKbf2dDgxMXHL9PR03szMzNrs7CzMIgEwN7dZACwu8lZWVh7YqYMAAuDcTnXwfUwAE8AEMAFMwEeAf/qer/FO37PCO30P8AgBgETAZiHA//z56brwV4FTywUOtw64dTwkANbr6vjiujrhVyQSyVt9De7yoKmp6fzmeAAqUKrVr+yyGaK4wWB5xGQyL1HSA4PVagObzQ52uz01WIsCagwtSeztdS15BIAbOQLu2ZIwOTl50+Tk5OWpqemF6elpmJmZAUIAzPoEwPr8/Dxrfn6ZCHQUzLMDgMjPAnBgKx+C6R+XwQQwAUwAE3gNE+CdvuerdeTLHwkAciOFwLkHJjj/+Nsym10LtbVcqOUQAmC6ro6XUFsr/PR+Hx19lcvkChUhAFBIYM80AGcvX+vkWIxG41dMZvMKcgZE0wBIAFhtHhFgs7UXBitWuru77+ntdYHL5QI0DeBy7X7+v6ur6x2Tk5O/m5ycHJ+cnIKpqSkgBcDMzCwSAWtzc3MVaEqAHH+wewCQ+gmATwRbF5fDBDABTAATeAMTqDt511fqTt29XHf6HiA3UgDUPXRyuPZ//zJSU10DLHYtsNkcqK3lWDgczk9ramrec1DYGuXybxIBgTbCAg8plco9TSNQx2QymZ43my2rG34ApBWgHezt7YJgsgd2d/f+oLe3F3qRACCmAdyfpPax3TGyNIyPj397fHy8e2JiAiYmJmFyctInAKanZ9ZmZmaKZ2ZmPrtdO9vdC7AKYN/ctusP38MEMAFMABN4HRBAL3/uqbuXuafuhjpi84qAMydG2T9/xVZdXgnVNSyoYbGBxSIEAGs/X+WBkHG53LfLmhSdZFhglBegubn56UBl93LNZLJ+12yxrFqsHisAmgaw2e1IAEB7uwP9u327dnt7exMoAmAs2OcfGxt7YmxsTDc2Ngbj4+MwvlkArExNT+dNT0/vyr8h0DgBoM3PAhDUaotAbeFrmAAmgAlgAm8AAuxTd32Ze9Lz8kcCwCMC7lqoO/9wZGVZ+WJVVQ1UVdf4CQD2sweNpkEm+y01L0CTQply0H1YLJZnLRbrnG8aAAkAOyEAwOFwTHV0dHxjqz57enrkPcgCQEwD9PG2KkdeHx4evnt4eJg/MjIKo6OjgATAGBIA48gCMLE8OTmZMTk5uW1MA7KtYPYA0EMRAMvB1MFlMAFMABPABN6gBDin7voi5+TdS5yTdwMXbafuBs7pu4Xs03d/orKy8q7KymqorKreEAA1bGQFWGIymTceJLLGxsYPNcqaxil5AWx8vf7dB9kH2ZbFYjljtdqGST8AjwBoh3aHAxyODujo6MhzOBzvJcujPYod0N3TM9vT4xEAbrd7y1S7KDXw0NBQ/tDw8Nrw8AiMjIwQAmB0bAxGR8cXx8fHk5D3P7X9gzgGgGmKABg6iDZxG5gAJoAJYAKvQwLce+98lHPyrgXOybsACQDOybvHau+76yW44QYizG5FRc0jFZVVGwKgmuW1ArA0B42jsVGW1dgoIxIDyZrky3K5/JpANwfZp9lsvs1qtRk8qwEIPwA0DUAKAOhwOrs7Ozt96+i7u7s/3d3dAx4B0AvdbvdT/uMZHh6mDQwMxg8ODi4NDg3B0NAwUATA/Ojo2NXR0VGGf72DOAeAt61vTg6gP4h2cRuYACaACWACrzMCnBN3nq69767p2vvugtqTd61zTt2Vxz5x4oPUxywvr37aJwCqaqCanAZgs4up5fZ73NDQ8EBDQ+M6EgBEdkC5/EjS2Gq12nfZ7fZswg/ANw3QAY4OZAVwgtPZCZ2dXayenp7bu7u7X/AIgB5A0wADAwO+TIRdXV3vd7v7X+3vH5gdGBiAwcFBGBwkBcDwzMjIyOWhoaFDdcgDgJs3v/9BsN/fBdfHBDABTAATeJ0R4Jy44w72fXehr32oPXFXO7IEBHrEssrKrxACoLIaNvkB1LD/L1D5vVxjMplvkUobdA0b2QFl6Npe2tprHVt7+/ft9vZpZAEgpgEoAsDZ2QmdXV1rXV3d3RQB0In66u/vf5fL5fqju69vfFN6YI8AmBkcHLzY39+/SVTtdYw71QOAT/kJgLyd6uD7mAAmgAlgAm8gAuy77/4E+8RdA+wTd82z77v7Ave2296+1eOXVVY+QwoAqh9AdTXrh1vV2e31eqn0Fyg9sFcATDU0NHx0t20cRHmr1Xqr3W6v3/ADQBYAJxACoLMLurq6obu7G7p70DRAT3lvb+/LLperfyMsMJEXAPoHkBVgKOKoXvzks/87CuAZPwEQSd7De0wAE8AEMIE3OIHqk5/9MOvEnd2sE3dI2Cfu2HHZWVll5RcrKqrANw2ApgCqWVDFYn3vIFCKxeJbJBLpNBIAUmQBkMlePIh299oGWtbncDhedjg6JjqQFQAJAM80AHR1dUEXEgAeP4A1ynJAb2Kgvrn+/v7owcHBm/fa/37qra6u/hcSABQR8Nv9tIfrYgKYACaACbxOCFTeeefNrHvvbGDfd+eLpJPfTo9WWVn5hfKKyg0B4F0OWMVi/fdOdXe6j1629fUSnkQiBQkhAGSlO9U5qvudnZ0hjo6O3I4O57pHABDTAF4rAGEBIPwAPMsB3fNutzu2a3iYdlTjC9TP6urqD9fW1qgCAGcCDAQKX8MEMAFM4I1EgHnixPuq773j1/5OfjsxYDKrTvkEAOEH4FkOWFPD/tFOdXe6LxZLvldfL4F6jwBwyWSym3aqc1T3Ozo6bu7o6LjS0eFcQgIg8DRA71JPjyuut7c39KjGtV0/K2trF/wEwGPblcf3MAFMABPABN4ABPh33rmn9fQVFRW3EAKgogo2xQOoZv15P9gkEglNLK4fFyMBIJWuicUNAZ0Q99PHXuqazeYbbQ7HH9sdjilPPACnZxoAOQJe4wfQu+5yua6iBEF76eug66yurmb6CYDPHHQfuD1MABPABDCBNwgBJpP5TlIAbPYDqMndDwKRSMwSiesBCQCJpOHyfto6iLpoOaDNZvuj3W4f84YFpsYDQH4A0x4BsMkPALx+AKre3t4Di+a31+dZXV3lkwLA6wfwvr22hethApgAJoAJYAI3VFRUjvimAVBEQE88gOa9ohEKhT8SicTgFQBtKP7/Xtvabz2bzfYeq9X6P1arbciXF8AXD8Cx7ujoqOvo6Hiys7Pzz52e5YDID2CZshzQGxbYNeV2u7+z3/Hsp/7KyooZCQCvCBjdT1u4LiaACWACmAAmcENZeaXEJwA2wgJPBZtCl4pQLBZ/XCgUzQg9AmChvr7+upipDQbDTWaz+W9ms2XMPz0wigfgcDjibTbbp8ixO53OctIPoLOz+3c9PT1/7O7pWSTDApPpgd3uPoHL5bouKXhXV1enVld9AuDAIzWSLPAeE8AEMAFM4A1CoLy8Ip6cBqD6AVRWss7uBgEK7iMQCJsEQhEQAkBU/4vd1D+Isnq9/maj0fyq0WSaMpnMYDZbgJIe2G2z2f7gdDo3mc7RaoUOp7OfXA7odPbeh8bS29v72Z4eVyuaBiAEAJEeuA/6+voW/h0N8O8Oh+PILBsA8N6V1VVYXV0lLABra2vHZkXFQfxuuA1MABPABDCBLQiglxTatri9r8tlZRU/Li+vhE3xAKpqoKaGHbGbhvl84V/4AiEQAkAo4h3WeAONyWAw/L+2NkOqwWBcMBhNYDSZgBQAZovFaLVav7eVM19nZ+edlHgAE1TLh1arfVtPT88/el2uZRchANxIAEBfPwoKNOAcGBh4ESURCjSmg7y2tLT0mZWVFaoACD/I9nFbmAAmgAlgAseQQF5e3rsP82XKZDJvRwLANw2w4QdgDbZfPp//CI8vWPEKgBEej0c/CpRtbW3ndW1t7LY2/bpebwC9wQgGoxGMRiQALBKLxfJfOz1De0fH78m8AE6nM2AOBJfLdafL5W52u93gRgKgjxAAKF8ADAwOWgcGhr8OAG8+rGdeXV190k8AvHRYfeF2MQFMABPABI4BgaSkzE8hAXDYQykrq+jzCYANPwCoqan5wk598/n8m+t4/D4eXwBIAAiFwq/uVGc/95HpvbW19TstLbrWVp0OdLo2aGvTQxshAAyrBoOJaTQaCTN+MP20t3eoPQKACA38ra3qoBd8b1/fT93u/kkyL0A/EgADZGKgIcPg8PB/u1yud27Vxl6vLy8v/5gUAGgaYGVl5fG9toXrYQKYACaACRxjAmg+PSUl5YnU1NR3HcUwy8or80k/gM3LAdn12/V/4cKFN9fV1fHreHwgBABfULZd+f3cU6lUH9VotJe02pZhbUsrtLS2QmurTwDMtbW1JRgMho/tpo+Ojo7bKPEA5v39AwK1hQID9ff3l3mnAbwCYBCGfOmBh0dHRkYiJiYmbglUfy/XlpaWXkUCYGXF4wcAALt6zr30ietgApgAJoAJHDGB7OzsdySmpHzjKDPmlZeXf90zDUDJC+BND1xTU/PgVgi4XO5fuHU8IAQATzAqEokONCUu+upWqVRfVKk0HLVas6bRaEGrbQFCALQQAmBYp9P/XavV7ikjn93u+AcSACg9sMPhLNjqOQNdd7sHzvf397f50gNvCAAYGRmBkdHR1dHRMfHY2NiPpqen/zNQG8FeW15ezl8mBADhB7ACAG8Lti4uhwlgApgAJvAaIBAbG/v+xMTkX6emph7pH3giIFB55SR1GoCSHtiG7vvj43K5ZznculVCANTxoa5O8G3/Mns9R1/7CoXyb0qlqkupUoNKrQa1WgNIAGgIAdDSodXqXkEBfvbaB3L2a293uMn0wE6nc9ehdZEDYH9//48HBgeHBweHCCvA8PAwDCMBMDIKo6OjMDY2BmPj48vj45PcycnJH05MTNy62zEvLy83LC8vI9M/2my7rY/LYwKYACaACRxjAvHx8aGJickRcXFxR7a8jIqjvLwigyoAqOmBWSz2VWpZNO9fy+X2cbh1gAQAl8tjU+/v5VipVL5XplD8QK5QNigUzevNzUpoVqpAqVKBSuURAGpNi1qr1T53ENYRu93+5fb2dkACoKOjo2s/TnxdXRPvHxoaihgaGpobQgJgGAmAEUIAjCIBMDYO4+PjMDExAROTkzA5OeWYmppKnpmZ+drCwsJHduK1tLTURQqA1dXV8p3K4/uYACaACWACrxECCQkJn4xPSGInJibeeL2GzGRWPhTYD4AF1TWs9ZqaWuILH83719ZyBLUcLhACgMub4XK5YXsZN1pm19TU9KRMJi+SNcnnm+QKkMsVoFA0g4IUAErVmlqtrmnWaM7tpY+t6tjtdvlGWGDn37cqt5vrIyMj9KGh4YShoZEl7zQAjI4iATC2IQAmkACYhKmpKZienobp6RmYmZkZmZ2d5c/Pz1+anV341vz8/P1zc3PESgpkZVhaWlomBcDKysqF3YwJl8UEMAFMABM4pgRiEhI+Exef2I5EwPUeYnl5hdxnBfAuB6yqrkECAGrY7GU2m/19Npvzv+xaDhACgFMHXC73j7sZN5utfVd9Q8NXpNLG/IaGxvHGRhk0yppA1iSHpiY5IQDkHgEwrlAoL6PpgN20H0xZm832qM1uB7snLPCa1dq1a7P8dv0MDAzcOjw8nDMyMrpCFQDj4xOEFYAUAFNTSABMIwEAs7OzMDs7B3NzczA/Pw8LCwuwsLC4sLi4aF9aWgIkAJaXCR+A57brG9/DBDABTAATeA0QiE5I+OTVuPj++Pj4Lx2H4ZaXVz/tEwBEeuAa8AmAGjawWGxgsWvXCAFQywUOh2tnMpk7ZsuTSCQfFIul35FIJJX1UumcRNoAUmkjNDQ0QgMpAGRNhABokisMCoXypf3M7+/E0mqziVFuACQAHA5H1U7l93p/YGDi1tHR0bixsbG5sXE0DbAhACanpnxWACQAZggBMOsTAPOEAFiAxcVFQAJgiRAAy+j403sdD66HCWACmAAmcAwIxMbG3nrlarzralxC0jEYDjEEFDSnvKJSj6ICUsMCV1ezUGRAqPEIAGCzOVBby0Ff/08GGrtIJPpPgUDwZYFAdFUoEhtE4vp1sTc7YL1ECh4B0ADSDQEw39TUlN/YqNhV+OFAfe90zWq1PmC12YAiAO7fqc5+709PT39wbGzswvj4+AjFD8AnAKaRAJhBFgCPAJibn/dZAXwCwGMFWASAt+53PLg+JoAJYAKYwHUiEJ6UdFPMlTjzlavxg8jz/zoNI2C3lZWVj24KC4ymAKoJP4BNAoDN4bBQA2w2+10cjuA+Lpf3ozo+P5HH5+v5fMGagAwLjBIDicSwSQBIpCCVNiALgFba2PiyRCI5MgYWm41jtXoEgM3WLg0I4ZAuAsDbx8fHn5+YmJRMTk6u+/kBbAiAuc0CYHFxibACLC8v6w9paLhZTAATwAQwgcMmcOHChf+IiY2TxF6Jg9i4uBcOu7+9tF9eWVnqCwhURZkGQBYAVi2aBgB2Lcdey+H2cwg/AM9qAG88AOB7owJ68gJ4BIA3PTDU10tG6uulcfX1srv2Mrb91LFYLGcsFus6KQDsdntAC8Z++gi27vT09KcmJycjpqamnTv4AfimAZaXlwuDbR+XwwQwAUwAEzhmBKJiriTHxF6FmCtX5TvFqb9eQ6+urv5wRWX1ApoGoMQDIKYBvH4ASABArccPwLMaAAUEquMDj4wKiCwAAhEIieyAon6RqD5RLBY/ehBL+PbCBbE2my3NlPTAbceF/+zs7F0zMzMXZmZnW2ZnZ1dIR8Br/ABWVv60l2fHdTABTAATwASuM4HLMTHfj465AoQAiLn65es8nE3dM5nM25jMipfKyitLyysqh4P1A6AsB4Q6MiogsgDwRV18vjBWKBQ+hJYObursOpyYzeYXNqcHtm4Z9/86DM/XJQC8e2Fh4ezcwkIduRqA9ANYXFz8vK8gPsAEMAFMABN4bRCIioq6PSr6ygISALGxVzqu15cwSSs/v4JeVFr67ZLS0qwSZlk3k1kOzLJyKCuv8GQGrKCEBd7KD4BcDogCAnHrXNw6PpPH4/1EIBB8guznOOzRigKTyexCAsBssYLFajUfRRrf3T77xMTE+2dnZ381Pz9vm7vGD2BxHQA+sNs2cXlMABPABDCB60gAhfa9HB3TEhUdC9ExsRAVe/XnRz2cwsLCmwoKir9cWFwcX1RUYikqLoXiklIoKWVCaWkZlDLLNgRAgPTAvuWAm/0AUDyA7r0GAjoqBkaj8YLJZAaPALCA2Wx75qj6DqafycnJ+6anpzNnZmbmtogHgPwA2oNpC5fBBDABTAATOEYEIqNi/nY5KgaiotEWuxoVFbWn5DW7eSSUSTAnp+BzeXkFEXn5hZr8gsLVgsIiKCwshsKiEigqLvEIgBImlFAFQFkFlFEFACU9MBEQiLoc0OsHUFtb99+7GdtRljUajR82Gk1zSACYzEgEmJuOsv+t+kIJfaampr45OTmlIlcDEPEAKMsB0RTA/DwKCERsu0pWtFW/+DomgAlgApjAERGIjIz8eOTl6AUkAAgREBWrOIyukZUhMzP3oaycvL9l5+Q25OTmLeXm5kNuXgHk5RdAfkEhFBQUQQEhAIo9AoCwAiABwPRYAJjlY8yyilpmeUUbGRb42ngArE3LAVE8gFoOdwzlBziM59pvm0ajkWU0msBoMoHHCmB+aL9t7qc+MvOPj4//YWJiotebF8AvHoAnKiByBPSLB/DL/fSL62ICmAAmgAkcMYGIyCh25OVoQBsSANHRsX89iCEgx7qMjIx70tMzf5uRmcXNzMyZyczKgazsXMjOyYWcnDzIoQqA/ELIJwRAERQWFUNRUcl6UXGJtaikNKuYyfxvJpN5O/KKR1nyyssrelF64E3xAIj0wJR4AKxaYHuWAxJhgWtr647dF6rBYPiWwWAEw4YAqDkI9ntpY3h4+LbR0fH4sbGxGZQYaBwlBqLkBZjayAuA4gHoZ+fm6sjVAMgCgPID7KVfXAcTwAQwAUzgOhC4GBn5YERkFESizSsAYmJi7tvrUJKSMj+Vmpr6clpaellqesZoWnompGdkQkZmFmRkZoNHAOQQAiDbJwDyCQtAXn7hXH5+kbSwsPjVgoKSL+bmVgbMUV9aXv4s4QhInQbw5AVoq6pmqYhpgGv9AMATD4D74l6f7aDr6fX6m/V644ieEABGMBrNq2az+TMH3c9O7Q0NDT0wMjJSNTIyukZJDxwgLPD00tTUVPH09DRhoZibm0ukCIBlALgmJfNOfeP7mAAmgAlgAteJwKXIy+KIyMtAiACPAFhFgYCCHU5cXHpYYmLKi4lJKbnJyamu5JQ0SElFWzqkpmVAWnoGIQDSM0gBkA1Z2TmQTVgB8npzcvKKc/LyfpGXl3cf+rIPpl9mWZmgjPAD8K4GqPSEBa6oqHmqooJzSzWLNbYpLDDpB+DJDjjH4XDuCKafwy7T1qYvadMbQG8wAGEFMJgSDrtPsn1kSRkcHHx6aGhItlN64MnJSdfU1NT/zs7O0sj6aD83NycjBcD8/GIL9R4+xgQwAUwAEzjGBMLDo++5FHEZ0EYRAJ3bDTkhIeE/4+ISvxYXl5SUkJBkS0hMgoTEZEhMSoGk5FRITkGbnwAgrABZyxmZ2aqsrOwrmZk5X09PL9hTet6SkpJPMpnl60yqAPAsB5SR466pqXmKSA/slxeAEg/AzuVy30uWvx57nU73bFubHtr0etDrCQEwqNPpDj3csNls/o+BgYHvDgwMmgYHB2FoaAiGhoZheHgEUHpgZAHwZAccXx8bGxNNTEx8JVBsfyQg/r0ccJLwA5gjMgMem3wR1+P3xH1iApgAJvCaInDpUkRG+KXITQIgMjJaQH2IxMTEG2Nj45+MjY2/fOVqXOuVq/FrV+MSIC4+EeITEiEhgSoAUiCZEAGEABhJTU1npaVl/CklI+MR5PFPbXevxyUl5fErWdQdAAAgAElEQVSl1HgAxDRAFZRVVz9MbbOaxfozkRjIzw9gIyxwHT+YLIHUNg/quLW19UM6XVu/DgmANo8AMBqN3zmo9gO1MzIy8h632/2bvr5+V3//AAwMDAASAIM+ATBMCICR0dHJ0dHxuNHR0f8XqB3y2sTExK3EckDkCOhJD/w8eQ/vMQFMABPABI4xgZiYmHdeDI+YoQoAZAWIuBydERV15ZGoqJh/REXHyqJjriyjqIAoL8AVtF2NB58AIEQAIQDWEpNSTElJyemJyWnfQ34Ah/HoxcXFoaWlZQu+eABlFYAcAcsrqjiB+qupYWdS8gIECAssKD3qCIDoy7mlRVfbqmsDXVsbKQCk6HqgZ9jvtc7OzpDeXverbrd73N3XB319/dDf308IgAEkAAaRBWAIhoeHDUMjIz8ZHh6+MZg+Z2ZmvuqXHpgRTD1cBhPABDABTOA6E7h4MeLZi+ER4BMAm6cBIIqICYCCAnnCAseSIsAjAGbi4hPEV+MT/xkfn/TkUWULLClhxvuWA6KIgJ5pgNXy8vI7A+FMTdW+rYbNFnoTAxECwDcNQOQF4AGXJ0gOVPewrmm1ul+2tOqgVacDnY4QAMttbW0H7vjncrlu6+npTe7tdS24XC5wud3gdm8IgP4BZAUYXBocHCwZHh5+ZLfPOz09fZlMDzw7O4sDAO0WIC6PCWACmMD1InDxUkQaVQBs9gPwLAf0RAVEAuBKV8yVq4VXrsT9LC4u7p4LFy4E5ax3kM9WUFARVlzCXPAJAO80QHl5xbZzz3w+/92s2tomNpvjSQ7kcQQELpcHXF9eAH7SUVgCNBrNPdqW1sWW1lZobfUIAF1bW8RBcnI6nfd1d3czu7t7Vnt6eqG3txd6kQBwkQKgD/r6+90DAwN/HRkZoe+17+npGRkKCoSmAebm5tL32g6uhwlgApgAJnDEBC6GR1pJAeCzAniWAi5FRkY3R0bFxERHX/lqRER86BEPLWB3hcWlCZvDAqO8ABXjRUXsHSMWIoc/NpujJrIDIgEQID2wQCAoPUyfALPZfKNGq7VrW1qhpcUjANra2qwKheJAls51dnZ+rrOzU9TZ1QVdXd3Q3d0DPT090IMEQC8hANbdbrfY1d//1UBOfQGhb3ERRQicnp6eJwXA7Ozst7coii9jApgAJoAJHCcCly5det/F8Ih1JABIEUBaACIioh87TmNFY8nPZ95WVFyySAgASljgsrKKoPMV1NbW3sSu5ai2Tw8sENTUNL3nMJ5fo9HmarQtoNW2kAJgRavXn95PX2jZZHu783mn06lzOjvB2dkJnZ0bAqAbCYCe3qneXld8d3f3p/fTF7Xu1NTUqenpaSDCAs/OogBAH6bex8eYACaACWACx5TAvyIi7iNf/lQBgETA5cuXj1UKYISwoKi4lsgLUFwKJYQAIMICm1Fo4d0gRtMBHA6H7+8HUMfjAw+lBxYIQSAQ2kUi0e27aXenshqN5mdqjRY0Wq1PALS06F7dqd5W9x0Ox9vtdvuLDofD7nB0QEeHE5xOp58A6Lb19PT8saur68CXFk5OTv4FCYDpmRkkApxbjRNfxwQwAUwAEzhmBC5ejPjKNQLAuxwwMjL6e8dpuEVFRU8TYYFRYqCN7IDrxWVl5/YyTolE8g4Oh1vFIdIDU/0ABMAnRYBQNCWor//SXtr3r6NWq8+q1JpltUYDGo1HAGhbWg3oJe5fdqdzu93+Qbvd/ne73T5ib2+H9nYHeARAB3QgAeDsXO7s7Crt6uo6u1Nb+7k/OTkpJQTANOEDkLWftnBdTAATwAQwgSMkcPFixPf9BYDPD+Dy5V8d4VC27So7O/sdBYVFTm9eAPClBy5hZmxbcYebTCbzLVxuXRwhAkhHQN4mAQBCoWhdLBaH78cvQC6X36JSqYdVag2o1R4BoNG2LCNnwB2GuOm21Wq91Wq1xlmttlmbzQ42ux3s9g0B4Ojo6Pu3BeDv3d3de3bq29ThNidomeDU1NTS1NQ0IBEwOzt7bEIrbzNsfAsTwAQwAUwAEQgPj3iFKgA2TQNERv3juFDKLyz8e4D0wINMJvMDBzFGDof3U24db6Wujg+8TdMAIiQAQCgSg0gsbq2vr9/1Mj2tVvuuZpWqValSg0qlJgQAmgZQa7W/C3bsJpPpLpPZXGg2W1YsFitYrTaw2myARIBXAEgcDsdzWq12V1MhwfYfqNzU1NRTk5NTZHbA9bm5uUMXHYHGga9hApgAJoAJ7IHAq+GR39tKAERERBbtockDr5KXl/fZ/PzCRf/0wCUlJd88yM44HN4XeDzehM8PgE/4AYCAFACiehCL6xdE9fW/QZaDYPpGQX2am5UlzUoVKJUqnwBQabTVwQT8MZlM5w0GU53RZFr3pAe2ABIAFishAqZttvYkh8Oxa1ESzNh3KjMxMXGVFABTU1OtO5XH9zEBTAATwASOEYHw8MtfDiQA0DRAeMRl/fUeKjK75+Xnt+Zfmx44YMS//Y6Xy+V+vI7HbyMcATf8ADwWAMIKUA/iegnUS6Sa+vr6Ezv1p1AoLiualdCsVPoEgEqt6ZQZDDdtVReJC53B8JzBYFD7pQcGs9kCZgvx76cOh+O65jCYnJy0TE5OkhaAi1s9D76OCWACmAAmcAwJvPpq5L3XCgBfVMDF6xHoh4opJy/vX3n5BbBZAJRMFBcXH9pyM+QcyOfzM3yrAZAFQCgCEVUA1EtAKpWu1Usb80QiUcBUxXK5/BW5ohkIAdDsEwCLSqUyoHCw2WzvadHpXtK1tdnJvAAb6YFNayaThW2xWB4PxnJAZXgYx2NjY2ETExNAEQCb8i8cRp+4TUwAE8AEMIEDJBAREfGei+ERa9eKAE9ioItRUdsmgjnAoVzTVF5e3uncvPyVvLwCyCMsAIXg8QMoeeGawodwgScQ/JAvEM4IBFQ/AGIaAOo9VgCQSBtAKm0YkkobX6amMJbL5d9skivWCAGgaIZmwgqApgA0P/Yfqkql/2hLiy6mpVU3RQkLTGQG1BsMAwaD6Z9tbW3HKr7+2NjYD0gBMDk5NYkCAvk/Fz7HBDABTAATOOYELoZH6LcSAJcuXf7R9Rh+IpN5Y05unj03Nx9yCQFQAPkFhVBQUMw8yvHweLzbBAJhs58fADkNABKJFAkAkDY0QoNMZm1sbHymsbHxMVmTfKlJrgC5XAEK0gqgUkVTx67RaB7UaFrKtdqWVRQRkMgL4A0L3Naml+n1+m+ilL3UOsfleGJiohwJgImJSWQFKD8u48LjwAQwAUwAE9gFgYsXL8UFEgAeP4DIml00dSBFkYk7OzeXmZOTBzmEAMgHzzRAwUBRUdGO4X4PZBCURtCXvUAg+ptQKF7ZPA0gJQQAYQVAAqBBBo2NMmiUNa3KmuTQ1CTfEABKJRMA3qzX69+tVKpfUqk1OnI5IIoI6A0LPKvT6VJbWowBExpRhnRdDwcHB989Pj4+N74hAH54XQeEO8cEMAFMABPYG4FXX4047y8A0Lk3HsDshQsX3rG3lvdWKzMn57fZ2bmQTRUAeQXreXmF/7W3Fg+mllgsPiUUie0isdcRkDoNQAiARlIAAFUAyOXNMoVCcU9zsypOqVRNEssB1Z7lgCggkEbbYtNqtb/UarXvO5iRHm4rY2NjXxsbH4fxcWQBmADkD3C4PeLWMQFMABPABA6FAPI6vxh+ye0vAsiAQJeiop48lI4DNJqVlXU2KydnJcsnAPIgNy8f8vLyYwIUP/JLKISwUCxJFovr1/38AKABiQCPBQBksibCAoCmAZoUzXqFonmd9ANQqojlgKsajaZKo9E8cRyc+nYDcmRsrGRsDAmAcSQADLupi8tiApgAJoAJHDMC4eERf91SAERcLj6K4ebm5jIys7IHs7JywCMAciEnNw+9/NX7icJ3GGOvr6+P8C4H3OwHgARAo4wQAIQVwN8PQKlaVSqV4Vqt9iOHMa7DbtPlcr1zdHRsZmxsjBQA/zzsPnH7mAAmgAlgAodI4PLlyzdfDI+YoYoAwgfAkxdgKTIyknaI3d+Ql5f37szMLHVmZjZkEgIgB7JzciEnJ28iLy/vo4fZd7BtC4XC9wmF4p+JRGLTxjSAvx/AFtMApCMgsRxQLdBqta/JqHmjo6PPjo6OIbM/KQB2Fco4WNa4HCaACWACmMARErh4MTKcKgDQMTkNEBEZFXVYQ0FTEOkZWayMjCzIoAqA7FzIys392mH1G2y7PB7vXj5fmCYQiGY3wgKj5YASv+WAjSOBpgHQSgDqckAUEVCpUg+pVKpvvebM/yOjBaOjo4QAGBsf7wqWIS6HCWACmAAmcIwJXLgQ+/6L4REDVBFACoBLEZfnYmJiDmUtemp6ZkJ6eiak+wRANhDTAFl5V68Xrtra2pvq6upeqavja3wBgVCKYDIsMHIE9DgDdkskDeENDQ13SCQNFwIJAGI5oMKzHNDPDwDlBZCoVK13Xa/n3E2/KGvhyMjIJBIAo2PICjBxLPwydvMMuCwmgAlgApjAFgTCwyNeuFYAeIICRURElW5Rbc+X09IyfpeWngFpPgGQBZlZ2ZCRldOYmpp6pMFlkCWitrbu81xuXTGXy1vgktkBUUhgvgAEpAAQi4dFIlFifX39g9QveKm0oZmIB7DZD2D9mngAlLwARHZAjWZdo9FUtLS0HOvlfyMjI18cGRmBESQARokpABz9b8//83FFTAATwASOIYGL4RFFpAig+AFARGQURERFPXtQQ05OS/tmalr6WmoaKQAyISMzCzIzs93p6ekhB9XPTu2wWKzPsNmci+xajquWwwUOpw643DrwCQBPeuAZvkCUzxeLn6RG/CPblslkN0mkDauEAGig+AHIFC/J5fIfyeUKl39YYM9ywE3pgdc1LS0irVb3LBIjZNvHZT80NFRICIARQgAMAsCxG+NxYYXHgQlgApjAa5LAhQsXbrwYHmmlioBLEZc9AiAyajQ6OnrfcfiTUlOfTUlNW05NTYdNAiAjazE9PfvMYYOrqqq6tbqa9T81NWw9i8UGFrsW2LUcqK1FAoALHI8AWKqr49XU1fG/yWaz37XdmOrrG77uDQtMXQ7YTabnRfkF5HLlb+Xy5pGNaYCN9MDeeACAggKhqICtrbr+1ta2+NZWwyMogNB2fR/FveHh4RuHh4dnh4dHYGSE8AFIO4p+cR+YACaACWACR0zg1Vcvf/ZieMQcEgEUPwBCBFy+HN2GcgjsdUhJSWlPJqekLqWkpEGKTwBkAPIDSMvMPrTQwxUVFfSqqpqfVVRVy6uqa9arq1lQU8OGGlIAsJEA4CzWcji1HA7v+zwe7wPBPmO9pIEnkRB5ATxhgYlpgMaX/esrlcr3Njc3/2+zUt1HTQ+sJgICaX0CgAgLrNOBTtcGbW2G/rY2Q7zBYDgbyPrg38dhnA8NDb0wNDwMHgEwglYAHFlsiMN4HtwmJoAJYAKYwDYEwsMjn0eJgvynASIvR0NkZLTowoXUbb+KAzWdkJDyWFJyykJyciok+wRAOqSlEQLgwJ3+mEzmR8oqKn5VUVEpq6ioWquorILKqmqoqq4BJACqa1hIAMzXsGsr2WzuC2ipX6Bxb3dN0NDwiXqJdH1TXoAGmZvL5b59q3rIMtDcrP6GSqWSef0AAFkBfGGBWwkrACEAdG16aNPrieRABoNxxmg08Yxm85+MRuMDpIVhq34O6vrQ0BB3aAgJgGFAjoAAcCxzFBzU8+J2MAFMABN4wxMID498KfxS5DppBUB+AJGX0RYNly/HSC9duhT0CzMuKenhxKSU2aTkFEjyCYA0SE0jBADnoOa9mUzmp0pLy/5YymSqmWXl62XlFVBeXgnlFZXgEwBVNTNV1aySmpqa51B0v/380OL6+hgUFRAJAEpegJeCbVOj0dyj0WiSNRrtqIbIC+CbBoBWXRvo2pAVwCMAKOmBwWQyg9lsmTVbLEKz2Rpus9meczgcH6c6JgY7hu3KDQ4O3jw4OLRCCoDh0dHs7crje5gAJoAJYAKvEwKvhkf+mioAPCIgGi5HxUBUVIwtOjr6kzs9akJCyhMJiUmziUnJkJi0WQCkpKYb4uIK3rtTG1vdz87OfkdRUdEXikpK4opLSjtKSphQUloGpcwyYJaVQ1lZBRAioKJyoqKqKq+ykvVMdrbkQPIbSCSSG8Xi+nG/sMDmvZjq0de8RtP6pFarzW1paZ3aPA1ACgADGAxGMBpNhAAwmQkRABaLFaxWG1htNrDZ7JPt7e2S9nZHrN3h+KHD4bi/q6vr/Vvx2+n6wMDAzwYHh2BoaIiwAAwNjX1upzr4PiaACWACmMDrhEB4xOW/IEdA0hmQsABExXhEQHTsTFRs7JYZ4eLjk56NT0haTEhMgsREqgBIhZSUtMGEjIxbdoupsLDwlryCgp8UFBSzCwqL5wqLiqGouASKi0uhmBAATI8AYJa7SssqUpiVlV84jHDCQqH4gjceANQjCwCxyb642+fxL4+cBlta9E+3tuqSdLq2TmQBoEwDEALAaPKIALPZQggAi9UjAmw2O9jt7WBvb4f2dgc4HB3Q0eGEDqfT7XR2Cjs7u652dXX9uKur66zDMfAh/779zwcGBhWDg4OEABgaGsbe//6A8DkmgAlgAq93Amg64FLE5RXSAkCKgKjoWIiOuQJRMVeFUXFxt1M5XImP/3ZcfOJKfEIiJCQkQYJPAKRAcnLqXGpq6mlq+a2OL0gkb83Lyzubk1MQkZtXYPSkBy6E/IIiKCgsAkIAFJVAUXHpanFxqaK4tPTPTCbz7q3aO4jrEomEJhKJZ6hhgaVSqfgg2vZvQ6/Xf0qn1/9KrzdwDQbjlMFoAqoAMFssQBUANrt9kwBwdHQgAQBOZyd0dnZBV1cXdHV3Q3d3D/T09I729vY2ulyuVLfb/av+/v7P9ff3E6JsaGjo4wMDA+tIAAwODcHg4PCB+2n4Pys+xwQwAUwAEziGBC5divr8pcioqUjCF8A7DYAEgFcExMReXY69GpcZE5N429Wr8T+5GpewFhefCPFo8wmAZEhKSllJTk7b9ks5IyPjtszs7B9lZecys3NyJzalB84vgLx8nwAYLCwqKigqKv12UVHRB48Km0AgShGKxEARAEsiUeMmAXQYY0G+Emaz+W6j0fxzs9lcajJZ3IQAoE4DIAFgJy0ADiAEQAcpADqhEwmALlIA9EBPby/09rrA5XKD2+0Gd18f9PX1z/T3D/QODAzAABIAg0gADAYl2A7juXGbmAAmgAlgAteZwKVLMXdEREb1blgAYoC0AsTEXoXYK2iLW71yNX79alwCxMWjbbMASEhKvWbKID09PSw9PfPF9IysnPSMrB5PXoBsyMrOgezN6YHn8vIKeHkFBb/NLSq686Cd3oLBKxKJbhcKRSs+AUCEBpb8K5i6h1HGbrczzGbbMxaL7V9Wm41vs9nHPAKgHdodG9MATmQF6CStAEgAdEN3D2EF8AoAF7iQAHATAgD6+/uhHwmAAUIAdFwP1ofBC7eJCWACmAAmsEcCKHtg5OXoOuQISDgD+iwAV8AjAuLgytV4uBqHNqoAIPwA/o66TU5OvjklJeUbyalpKSmpGe2egECeeACevACesMBZWTmzWdm54uzs3AtZeXmPxsXFbbm8bo+Ps6tq6AuczxcqfHkBRERegA6FQvHOXTV0yIWtVuutdrv9WbvdccHh6Kjp6HD2bDMNAL3ICuAirQBIAPRBHxIA/R4BMDAwgFP/HvJvhpvHBDABTOA1QQB9DUZExfz2clTMEmkBQL4AGwKAFAGkACD8AOwJiclXE5NSjEnJKeuB4gGkpWeOZGRk1aRnZv4WRQU86pwAO8EXCAS/4ZN5AYRiEInE6yKR5PGd6h2H+y6X6wNOp/Oxzs7u33Z2d+d3dXWbPX4A104DEAKgjxQAA8ga8Onj8Ax4DJgAJoAJYALHhEBUVNSJqJjYdlIE+ATAFaoASAjkB4DiAUwlp6Q1JaemX01JSX8xLS3tM8fZzCwSiT7G4wtmCQEgEAFKDywS1Scck58i6GE4HI73dnZ2vtTV1W3ZSgB4/QCIaYCBgYGWoBvHBTEBTAATwATeOARQaODo6Jir0TFXVgkBQPgCUATApmmAZGI5YEJSStxxftn7/3pobX8djyfbnB5Y6NhvICH/fg7z3OFwfMbpdCY7OztnPasBgvQD6O//9WGOC7eNCWACmAAm8BonEBMTcyom9orOZwXYwg+AXA6YmJwmSE5OZrwWHpvL412q4/GBEAB8IUoPvMoXix847mNHWfvs9o4vOxwd4o5tlwP2TLtcLmYAP4ClgYGd4wUcdw54fJgAJoAJYAKHTODChQtvjbkS9/vYK3FzV65SrADESgDqagAUEZCICjiWnJz29UMe1r6a53B4z3DreOuEAPCkBwY+X3hhX40ecmWbzfYpq90ebre3u8mAQAGWA652dfXwuru7X+jv739XT0/Pc/7LAd3u/opDHipuHhPABDABTOD1RCAqIeGW2KtxBVeuxq+RywEDxAOg5AVIZWXsISrgYTPj8Xi3cbi8CW4dD+rq+MDj8aGOLxAfVO6Cgxy/0+l8n9Vqfclqtcm9YYF98QA2LwfsNHZ0dv6+t7c3lNp/d3dvsUcAuDzxANx94HYPPEUtg48xAUwAE8AEMIGgCFy9evXElbgEcdwmP4CAYYFReuDZ1PTM3x8Xz/+ampr3cDhcPYdbB1wuEgA8qOPxB0QiUUhQD38EhZAQMRqNnzOazQVms2Ue5QUgogJ68gJshAV2OIY6OjquOByOewMNq6ur6x09PT3TpADwxgPoA4C3BiqPr2ECmAAmgAlgAkERiItLeiouPtHkiQjoFxY4xS89cHqGKS0ta9tIgUF1uo9CKDkPu5bLq+VwgRQA3DreCo/HO7+PZg+kKnJINBgMjxsMplSj0TSyOSywVwBYicRAi+3t7WUOh+PpnVIH9/b2fqmnB0UE3IgH0NfXd+lABowbwQQwAUwAE3hjE7hw4cKb4+MTvxGXkKQnHQE3pwdOJ9IDe4ICZUJ6eqY0KyvruoSfZbNrM9m1HCAEAKeOEAF1dfzr5g2PXvo6ne4JnV6f1tamH9HrPZkBDcaN7IAoMZDZYlk1m631Vqv1xwaD4aZg/8d1dfXk9qCogBthgdf7+vo+FWx9XA4TwAQwAUwAE9iRAFr+l5CQ8kxiYrLGPz1waioSARmQlp4J6RmZkJGRtZ6emVWZnpNzYseGD6gAi8X6G4tdC4QAqOUCh7AC8HIPqPmgm2lqanqPRtP61ZYWXVZrq26kVacDna4NUHZAJAD0BjI9sHnVZLJITBbLK0ajcdfTE2az+T+6u7vHqWGBe3t7m4IeKC6ICWACmAAmgAnslkBiYsoXkpLTJMkpRHpg5AfgFQDUsMDZkJmVDVlZ2bysrLyzu+1jN+Wrq9k/rWGx1wkBwOZALWEF4KhQit7dtLPXsgpFy20ajeZXak2LUKPRLmm1LdDS0gotrTpobd0QAG16w6rBYJDo9aZXzGYzba/9oXrd3d1PUbIDeqYBent/sJ82cV1MABPABDABTCAoAikpKXclpaRlpKSmL6SmpUOazwqQBRmZWZCZiURADmShxEDZucrs7LzvHHRegOpq1o+ra1jrNSw2sFi1wGZzgM3h9LLZ7EOLVaDX69+tUCi+0KxSRSuVKptKpQaVWgNqjQY0Gi0gAaAlBEArEgBrOp1eqtMZfrrflz71R+nu7s6jCgDkDDg8PHwjtQw+xgQwAUwAE8AEDpVAamrqB1PT0/+cmpbu9k0DZCIRQAqAHMjOyQVveuDh3Nz8S3l5eR/d76AqK2t+UFVds1ZdwwJSALDYtRMsFu8z+22bWh854zU1NT0sk8kvyOWKRrmieVnRrITmZiUolSpQEgJADWq1RwBotC1rLS0t0paWlp+q1ep9felTx0Eeu1yud3Z2dU1R0wN39/YmkffxHhPABDABTAATOFICaClgWlrml9MyMmvTM7JWt0kPDHl5Bev5+YUN+flFP8zOzn7/bgdaWVn9/cqq6rWq6hogBEANG4mARRaLte/pBqbZ/B9SqfT+xsbG3zc2yuoaZU2zMlkTNDXJoUmuALmiGRSKZkIANJMCQKWeVqs15RqN5gdKpXLXc/q7eX6n0/kV/7DALpfrjt20gctiApgAJoAJYAKHQiA5N5eRnpXzl4ys7I4schogJxdycvMgNzcfcvMKIC+/APILCqGgoGihsLCkvKio6Hkmk/m+nQZUWVn964rKqvXKqmogBEA1C4mANRaLtafohEKh8H1isfhJsVjyr3qptEEikc5LpQ0gbWiEhkYZNDbKAAkAGSkA5ApCACiale1KpTq2uVnzOHLK22ncB3Xf6exkegRAF3inAWQH1TZuBxPABDABTAATOBACaPVAZmbu+azs3JzsnNzJnJw8yCEEQL5HAOQXQn5BERQUFkFhUTEUFZUsFZWU8opKSn5cWFFxC3UQqK2KispXKyqqoKKyCggBUFUD1dUsqGKxfkUtu9UxWtbI5YpuFwgE3xMKRYlCoVgvEonXROJ6ENdLoL5eChKJFCSkAGhoJARAo0cALMvlclFTU/OvZSrVJ7fq4zCv22y29zidnXNIAHR2kQKg+4XD7BO3jQlgApgAJoAJ7ItAdnb2O3Jzc7+cm1vAzM3Ln88jrAAUAVBYDIVFJVBUXALFJaVQUsKE0tIyWwmzPL60vPzpsrKKlPLySiivqPQIgMpqqKqqQVv0VgNjsVgf4XB4X+VyeRF1PIGEx+NP+7IDCj3pgYUiMWwIAAnUbxIAssHGRllWY6P8a0ql8r1b9XNU151O58tOZyd0dnZ6BEBX95DD4Xj7UfWP+8EEMAFMABPABPZFIDMz8z25uQXfzssvZOUXFC4QFoAAAqCklAmlzDJglpVDWVkFlJVX+AmA6hL0VY+sA2w2+xNoGoDFZoejiIBsNnfIFxXQm9FmCpkAACAASURBVBfAlx1QQGQHBAESAaQAENdDfb1kvl4iFUokDf8jlUpPAsCb9/WgB1y5o8NpdDqd4EQCoLMLurp6wg+4C9wcJoAJYAKYACZwNASYTOaN+flFXy0oKM4vLCoeJywAxaVQXMIEnwBglgOTKgA80wBzlZXVKVXVNY3V1axp32oAFBDIFw9gIyywNy8ANT0wEgCrQqFYKRLVvyoWix89qtgBeyHb3t7+SEeHEzqQACCsAF1r3d3d+15NsZex4DqYACaACWACmMCBEkDhc4uLix8rKimNKy4pcRICoLQMSgkBUO6xABDTAP5+AN7VAL54AN6ogCgiIAclBqoDIjsgj7/E4wnkfD4/XCAQ/BeXy73uZv1gATocHaV+6YFrg62Ly2ECmAAmgAlgAq8pAoWF5Z9gMpk/K2WW1TLLymfRNEBAPwDKckAUEMgvLPAwh1MXXsvjnWcyFe98TQHwDtZisdDbHY5lqgBwOp3XNfnSa5EjHjMmgAlgApjAa5AAl8t9e1lZ2WPl5ZWRFRWV2orKqtXKymrPagCKACCCAlHyAnj9AFa4PJ6uro6XzuPxfiIQCO5jMplHtnRvv7jb29v/2e5wgMPRAWgawOl0dhw3/4T9PiOujwlgApgAJoAJBEUA+Q5UVFQ/XllZfam6uqapupq97O8H4MsOiKYAuDxyGoD0A1gRCIRmgVCYJxCJfikUCh9CIiOozo+wUFdX1/vt7e0T7e2kAEAioOMXRzgE3BUmgAlgApgAJnB8CdTW1t5UU1PzpWoW6xKLVdvAYtfO+QTAZj8A4PEEwOcLgI9WAxDLAcUg8qwGWBCLJa1isaRYKpX+VSqVPtfQ0HDH9RQGNpvtX3Z7O5ACwNHRMYniAVB/iQ984APvZdBoz/lvNBrtdgaDcTcjJGTTdMFtt932dlSWRqN9iNoOPsYEMAFMABPABF7zBJBDIYfDua+2lvtzDodbyOHWOQlHwDo+8Hh8jxWAWA7oFw9AjAICUeIBSBugoaFxtaGx0dEga2LJZLIImUzxg6ampjMSrfaDhwnKZrOF2mz2GVIAeKYBnDH+fYaEhNwcSqNdQhuDThti0ENSiGNGyGOhdPpVBp22SqPRbiXrhYaGfIlBp61/mE5/hLyG95gAJoAJYAKYwOuWAPL6r6ure4jHE/ySJxDkEVMAAuGaLx6AqB7EZFRAMiAQGRUQhQVGEQE35QUgwgIvKhRKZ7NS2aRUqZhKpfqqSqX9o0qrfU6r1T6k0Wg+ttf5eqvNVmCz2QEJAHt7O7Q7HKvt7e0f2+4HYtBDdB8JCfGV8QoASSiN9juyXhidXsSg01RYAJBE8B4TwAQwAUzgDUcA5QIQCoXnhGLxz0QiUapIXC8X10smiYiAEikEmRcAmpWe7IBbpAdeaGltdbS26hQ6XRtbp9Pn6vX62LY2w1/1etMrRqPxOyaT6asWi+Vxq9V6v9lsvttqtT5ttdrWPQLA7hEA7e2VO/1AgQRAKI32UwadLkd1Q0ND38Wg07iMUBoTC4CdaOL7mAAmgAlgAm84AkKh8CNSqfRJqbTx99LGxrSGhkZpY6NswJsXgMgOKCezA16THlhDTQ8M2pYWaGlphdZWHbTq2kDX1gZtbXrQ6w2gNxjBYDSC0WgCk8kMZrMFzBYLWCxWsFptgASAze6xAqBgQDv9EAEFQGjINxh0uuDDN9/88dDQkG8yaLSXsQDYiSS+jwlgAm94AmFhYe/8CI32mQ/T6Z8Po9O/wAgJORMWFvaBNzyYNygAlBNAJpOdkMkUzzc1Kf4mb27Oam5urvdMA6iWlSo1ICuAWq0BtUYLGm0LaLVUAaADnY4qAAxgMGwIAJPZIwJIAWC1eUWArb0lGORbCYAwesgPQ2m036MXP/IZwAIgGJq4zGueAINO016z0Wis/T4Yg0Yr8W83jE4PmJkrlB5SSZYNC6Vd3m/fuP7hEzhxww1vY9Bp0Qw6bY5Bp4H/RqfTN2WrQyO6/fbbXzNryw+f4BuvByaT+Ra1Wv1hlUr1sFqt/rZaq/2tRqOJ1Wq1RS0trQ0tLTpba6tulhQAbXqPFYAUAEbThhUACQCLdcMKYLfbXwyG6JYCICzsA+hvUBg9pAq1gwVAMDRxmdc8Af8/3OT5h0NCPrvXh0NONsiLlmxrY0//TaA2GXSanSyDxECgMvjasSLwJkYojU3+ZgH20zfccMObyBEjK0FYKO0CI5SWRF7De0xgKwIKheKder0+rNVkukuv1z9qNBq/rjcaXzaazX8ymSyXTCZLotlszrZarUyr1S6w2Wx8s9kclLhEDn5hYWEMsu9QGu1vDBrtKXTOoNPy0BQAOg4LpSWE0WinyHJ4jwm8LgkE+OPt+ZoLpf1zrw/MoIf8KXC7WADslelxqseg0b4W6PcNo9OmGHTaGoNGU5DjRWusGXSakyhPo2WR1/EeE8AEMAFM4DoTCPSH3HvNutehMWg0feB2sQDYK9PjVC+UTi/c/PuGxN56663v947xLR+76ab3keNl0EPcvrK7EADo6yuUTg8npodotBq0XCs09OYnqJYFsg+8xwQwAUwAE9gDAd8fZ8887jT1PCwk5I7dNklE19qYE/abBggsAEJDb34gNDTkcbSFhd185277xOWPlgCDTlNT/p/03HDDDW/ZagS7FQBISDDotAr04kcBWZAvAYPBCGN4grakh9JpDYH8C7bqH1/HBDABTAAT2IIA5Q85MGg0lteMu+dpgLBQ2j98bdJoCt8xIQoCC4AthoYvH1MCDDrNSv6uoXQab7th7kYAECFb6TRVGJ3+VQbj5vsZdPpLYXT6j9A0wq0f+hAN9YNWGSALExYB21HH9zABTAATCIIA+Yec2IfSmMgRhnJt19MAVIe+sNCQX1DaAgYdC4AgfpJjX4QRSuvw/a40WvF2A96NAED/98Lo9G+j9ogVBqG0fu8KERWDTltg0GjfRfeQxSiMTmvE0wHbkcf3MAFMABPYgYDvDzn6QkcCwOO05VvWtRuTPJ1Ov3ejPXo7+kO9cY6Wih24AHgLmqZAX4xhoSHfCg0NecY7bbGlSXoHHDeEhIR8NIxO/wqajiC/Oneqg5KGMEJCHg1FAUVotK+hCGIMBuM/d6q33X1iJQWN9lRoaMjzoaGhz9Lp9If32+YNN9zwVmJuPTTkS6jdMBrtSTqd/undvkipAgB5VW/3HMEKABSExftSJ5rzCgA22XZYKC2SQaf1kucMGi0LxR4gz/EeE8AEMAFMYJcENr2gQ2lMtFabQaeNb1wP+b9gm/T+kfZNHwQrABg0msjrKY68xZN36g+Zf9EyHQadNrIxzk1r0ccZ9JCY0NDQLZORoNCfZJ/ekJ9vDqPR4lFiEEqbaww6rYwaO5wcG7EOnkb7HoNOawm85JG2ygilNXuXFfmWxJH1A+2R8xwjlPZP9KKjjMEnxggPezpNG0qjvbKbNfVIxDHoIfkMOm2Tj4evj1BaP4MeEnvzzTeHBBoXusag02wkL0YobdlXl06b8V2n05xhNFqmJ7Qq4fmPfs8VSlnUP7pGbGFhH/oE2V9oKO1nYaEhPyfPrxUAIf+D6pH30cs/lEaLI8/xHhPABDABTGCXBCh/nAkLAKqO/ohTrtuCbPJNDDqtm6yHviyDFgC7iAOAXhQMOm2e7GeH/TD6cg40fgad5iLrogh26GVCnvvvQ0NDP0VtA517X/zUl/M2x3T5LR/8IJ3ahv8xiqa3zYs/UNv2IObB38qgh/zLT9QEaou8NoMsA/5jQ+cMOm3Jn8sW5xwGnf6/W9wj+yH26JnJvlAAKPQ7kOdeAdDhyeAWksJAIsW7XhuVQZYa5LNClsd7TAATwAQwgV0S2PSHOpTGRNXR1xX1ejDTAJtf9vQ21M7ma1tPAVD9BrYLBMSgh/yZOi7i2DNPXIC+YNHXOoNOG/QrMxtoNQNVADDo9ItbfMUjUdRMRcpgMD4ZwPKAvnIlRJpRekgagx7S5P1ap77werd6YRNf/nRaz+Zx09sZdFq5R5iEpCBnu2uFD719G0vAm7xf/dQxoOMudN1r7UC8xjb3iwI40X9FfWZ0fOgWADo9nJqXnRQAaJyEYyqN9nXqmJD1YLv/K9Sy+BgTwAQwAUwgAIFNf/y9AgDNFW9+yYX8K0DVTZeoX9BhobQ/opsHKQDCaLRzfi9V5BT2sv8StJCQkHczQmlRm56LTkNxwjeZ4TcJgA2T9hiKWId8CTwe6CF8Bp3+E/JBkZd6GJ3WuantUBo7NDT0I2QZcu8VCtJNZek09f9v70zAbSmqe3/u8H1Gv2ci5HJ6rao+1xvDM2oGHKLBp0meGuchxqgxxtkEjfoeRhyeqMkLCJnEoEYcg4pJREENKsQ4gLOC4gAKAuExCMokIFzGy73nfau7eu/avbu7VvWwh3P/5/vOt3t31/ir2lWrq1attf/++9+pCFN8ZtbIxkcnd4vme/HM/8xslOdbF96kzgf5YYrrUpoS/irRTyieF58iQEh7lZb175Bjd0WY8ucQOgDG0PPFgFSRl78FYJlfJEKAb8FN9D7ETkARHp8gAAIgAAKRBCYmqLEAsCJvs96z8wLJbjFMP3Hh9xDRDgnfpwBgmL7plUcmydFycVXZSuVfLyuMTQgATOtSflFEq0qruGeJ3uCVYd0pwNUqHDp9ilMm4yQHF+kVn5b5u0UYMbJT3K/6zBQOPR0Nw/Qf5XCy3VBaLbjWGHOvcjj/uygaTgpYfH5ZuCrCDyEAiP6B2GkX4VPy8QWAlZWVzZKn6H14ZfjUGtEDi+/4BAEQAAEQiCRQTDzZpy8AJMnDJ57Z1QPqkhYN+HHY3K+2hO1LAJCBfpy+bCUk76wrS3E/Mx4jZmlHb9aTcaYEAKKXFnGrPnfs2PFzlpPrxunRpdu2bbtrVVj/npuw/WV20WTPJrki3OQyfFjp0hp6u0yWbovgL4t0is8JZczc/sKzi2dNn06xcry6ULFiIPGHEACydJmPkBWY/JqOEn8DRXlTTg6Wo4Ai3IiegpxYKZ7hEwRAAARAoAUBb0IbKQG6ZPy3epl0a7cBTLbvnWvh+5rcfQkATpFtNDFV7elXVV3eImUPWbTm0yT5LT9MWQAIHfmbFHIyIWS0XO2nW3UtCm4TnJPkQD+c218v6nfp2to24z+PvbZMZ3v5/ajuTb6crqzc+KsAdasRQwkA2dYT0UliTEq2W/bbb7//5pVxi7gZzny1E31NnnvPcAkCIAACIBBLwJsoygJA5hHLe165DeDcwhZvuHf4E2lvAkB+TDCbIGWpPraOVeFLAsDoeFlVWLnnjucVk/R6jLfE7Az/aCWC1o2hV/v5iJc8j7Pk8VPRfncnGCZWC/x4Vde5noDviTF5V1W4unuW6dvjsiSXVYUbUACQ7Lbk1iT5u6LHIPoYxiRPNESvFIVMOSYqeh5V5cI9EAABEACBCALjwT43BORHLU9c1tr7+s/lWo5mjdPgz/rPexMAmM7x8viMn0fb6wkBgOhzoXQMJ/8yLgPdrH2rlnTlTdaLK6spE5OyM4IjnvRGAoZ3fa019GFL9DxfuKorr6x0eHHF+NJIibEujn+/dAR0XbY+/OdyPbAAkGUnRo9S5j9xboQPMyZ5oa8EWC4TvoMACIAACEQSmJgspvdVN09YcmM+opy8bzrYmOQF/vMeBYBrRuUMmJ7182+6nhAAmE5oCivPRNluVAaufjNuSsMy7RzHpxPLYcXT3aQuQKUwsCdXhuRX1G0TpESP8/IRRcWnlPNq+i6a9X78qnxmIQA0lRHPQAAEQAAEeiDgD/ZVilXufL17M800w0e5pml6Z8950K3bt2/fZ/SwPyXAzRNn9CNcyvplKV+XBIDjys/L38XHvceqcjukHMf/nh3DG7/hn+I/K67lDV8sGFqmK728qlYF5N6tNhfIJrYIxPKgH7d8+qHIq+5z6qRDut/+5bAQAMpE8B0EQAAElpCAP1lUCgDifW08ca372wCZ1zb3LGX+93L1e1wBGFv+G2YFICwAMH/G4yCKdVF/mTObMcepFQA/MdGrMMY8SpQYDdP3vXyrhIEP+HGnfDlErgCkRH/n54cVAJ8urkEABEBgAxHwB/sqAUAM6OTW44ol6fE2gIQv4jub9xNkehMAMlv1ef4pJ/85kUnLL9ErALIPP57Ao3QAnKU/b/KePJIYqoIxZi3l5E/l2F9JkMjSdL4MsmSMMQ/xyik6AC8Kpe8/t0wf8OLvnpcOgF8mXIMACIAACAxAwBvsp04BFNmVzpVnvgGMMXfx9rV3Vmlm9yYAMH15VE6iy4tyhT7FWJBojRuiV4kVPN8KXwsBQJz0jCZx3459sBy5FcNR3PIpgFB8/7k4OJLz8X5Z5BRBEabiFEDQZkIRVz4t01le2pUrHdgC8InhGgRAAASWlIA32NcKAMz8AD9c5riG6KnFvTqXsH0JAOVlaTGzq8GdMr+3KKM1dL1YlCvixQoAU/4RnLnjIr2mz8yqnSc8+G/swlKOuElZxR2u6FU0pSXP3IqC72VvQqegbFdAe2Ihc7AzYTxpWllR8ocAEGohPAcBEACBJSAwmiBlgpo+BTCqgSW6YBRWTOJ6S+JyTnsU0LvoSwCQCXOUd17ON3nZVF7KROr7M0g5+bgfMFYAcCsehb0DeZu/uGrVw89DruU4m2Uan2Jgutp34FNW2vMd4pTT8r/7SoVlAay0YrNe5+HPT0+ufX8OGW+i55XDyPc4ASBz/ZuvfjT0r6p8cA8EQAAEQGBAAqWJtda8qmicF2FTph94y//X+hOaX9S+BABJc8JAjaHbU6IH+XmVr52Hv9Gyu+9K1qU3cgcsRxnL8au++wwyFobeV3YyVIq3VTzWFdzyz0mLitmSPtMtRRg55lfHs0jbmOT3ivDyWd5SEJ2BknOfq0N+DtwKh2c6ma4QoafI0/+MFABGVgkN0xf9dHANAiAAAiAwRwL+RNK0AiAugSfCuiVtw/yeuuL3KQCkRL874dfe0PV13u2cJ7w9XnlPK0/UsSsAUscdO3bczZ/8XPonVBnoEQ+Bk7YDMv2BC0vmbTN0wtArqwgtp4jN+yquztDPVV74nbLKUA5riP7KCyOrOz8WGwHlcLI9YIhemh8rHOs4VCl1FnF9BuXVhyJM8SnbGl45dlmi5wqbbOujRsAo4uITBEAABEBgQALe4Ny4BSBFsEznToQXIaDBbWyfAoDkn7mtdYKHV45zxTmQmM61ht5niS73nq3L98I7oY+xjQAg8Y0x9ys5BZIJ+xanmHeUnON3E/9tE+VgurrOfHC2TVAuN9NthunT4trYLekfZ5m+VUpzT53rYNF3kKOZpfDrbvVGFCOF1/snDT0VAsD4pIfPrLiOEQAM81vKZSi+p0SPLdLEJwiAAAiAwIwJFINx9hnYo83MsvoTsKEfNymY9S0ACJrMGQxTeXIdL/X75WM6h5nvXYW0rQAgaYlr3ZKiXV3+xf0z0gqDOn65jDG/MnncspiMaz9v9h0v+Wl511ss89EThpQm+RTlKz53akwHxwgAwr/q6GLW34gO8cqKSxAAARAAgVkSsLlv+Wuzz3xPuzZ7N5jnYZmulTfT2sDyxk70ID998cpXFT43b0su3eSDVWH8e9uT5B7Z26tsA1RNaNnbdPLauj1sScsZ2CnyjDoqJ/Fln94tnY/2uEtlkS2Ib1ii55Td//p18a9FqdBtX1xUSquYoOXzakt0rDDw4zZdM/P9nS7CTTXpXikWH0V3oCmd4pllOrNo16YtoCJ83g+Sr0wLInx0EQafIAACIAACIKAmkHkiTJIDjTFPFkM5KfMfuPP5m9SJ9BDQWpuKEl3K/CzL/Gy5Xl1dTbokLfvkoriYmuSZ4mNBTgfI9kPTiksoPzHqI6sywsnxeopzrbwlFLeP56JDQUT3kdWOKgNDfeSBNEAABEAABEAABEAABEAABEAABEAABEAABEAABEAABEAABEAABEAABEAABEAABEAABEAABEAABEAABEAABEAABEAABEAABEAABEAABEAABEAABEAABEAABEAABEAABEAABEAABEAABEAABEAABEAABEAABEAABEAABEAABEBgLyAg5nnTNLVrRA/MfMwTPc3m/0+XT7mX+bNPkgPFLGyVe9wlx7SFme8ubnulnsYkT3T1f5qY4M3qblcfLGHEY9+S1xXFH5hA5nPCmDWbJAemzI/xf0tybYx5lPQp8bcgTqqa/F8MXFQkDwIgsJcR2Gytva9lfrk19JHMwY6h22sczvgObUrXyXWW6ezcfS2/LiX6n+IYZ9FZGmO2ZRM88xGW+bOW6UIbV3/xavjD3FEPv0KEJq3joFmySdP0zuJ8KPQvwt8sy7UB89qaTeREr7JMH7VM51mmXfG/J7rGMn9X0jBErzLGPBS+FzZgb0GVQGAeBORtxBC91U77sC9N7LWubDXhdlnmz1iipy7SxCJufS0nh7oBVlOPuDDi4ZDoWEv0sEVZIRCBTDMJiZOfefTHJc9zk/A1nLw78/RY5d2yn3u3WaKTxMFUF4dSS84axQcBEGhJYLMxyTMs0xmayaDXMIZ+3LLMfUXbakzyx5bp9F7rFR7YL0k5OXjey7oQAPrqRhPpSJ96oax8zbhPrYvwOlESfAEBEACBOgLZvjUn35n9QDVaQdhdV7Yh78vKgzH0Mst00RzrLisIV1iiQ+a1EgIBoN9eJu6rZetnbn1q/gJ1v0CRGgiAQP8E9t133583zO+xTHvmNljlb8kzFwBSot9NmX4w53qXtw/Olu2X/lu6OUUIAM18tE+JaD/RlZl7n4IAoG0yhAOBvZOAaOhb5vPnPljNWACQUwnW0PsWQOgpT/7F993W0JtmqSwIAaD7GCCnQiwnly3E7wkCQPcGRQogsFEJiAKaZbphIQarGQoAcozKMp2zQPUuJv3pT0OnyhvlLPogBIBulFPmp1imWxemX0EA6NagiA0CG5XAGvPvWKadPQ5Wsn1wY8f0Bt8CMCb5/QUTeqYn/WmlwYtFaBm6L0IAaE8461dxR0ND7b678+8TAkD7BkVMENioBMQ4jWU5QzxSvgsNRuPnRJeLvoAhekl27ni//ahk5Gfz9u3b95Gz5MaY+2VGgphfLnHcXnuTnsGgAoAxyR+1PG89rj/TLZbpNEP0t6LdLYJUmq7+htR3bW2bkU9rVw+QyTTX/uYjLdHnLNNNrXi7NjJMP2Hmew/ZJyEAtKObJsmvd2jfi6yhYyzzQbJ9sLq6mpROg2y11v6i9Ctmvr8c7zNEr7SG3m+JLmjsUxAA2jUoYoHABiaw2TJ9o3HgmBYMdhvmf5UJouuZ9SRJVt2xqFMs0x2lcgwmAKTMf1KRnz+xN13faomOFwttbQ2tiGa/tckjnN5B222XK0RnY6i+CQEgnqz0B2fIp6n/lJ/tyuwB5Iqem+JzHcew1qYijFtDp07ps0AAGIPCFQiAwMqKvGmUJt3y4FT+fpq8yQ/BzhizXd6kva2DQQSAlOixLSf/m1KivxNLgH3WX05dWObXWaafRraFtM3FQ+kEQACIb2VL9IaoNiT6xFCGlKy198wMd+WrVOsWAkB8gyIGCGxUAvvvv/+dZClZPWDlWuhbhuaRmdoVi4OGbu87L1k2t2J1b3pVoyzolL+fePdt27jv8vjp7dix425tjl+mTF8S2/F+Wn1cQwCIoyhbXZ7wWu4/5e+7LSevXVlZ6fTGrymhrAq4LYLLNeERBgRAYC8gYJmfrZ8Ik0NnjYSZH9BnntkAHdonnRYMbkhN8sw+yxFKSxy9xOpkpIb+KZRu7HMIAHHEsr346f5Tnviz77LtFZd699B9/566lwgpgAAIzI1AZnNfMWClnPxn173+uVXSyzh7C1LU1xOKLhWFPi+JmV3mvgeirMbtEcuNfRYQAkAcTUv0Pa/vVE78+fPkg3EpIzQIgAAI9EhAvO4pzyjvGWqPssfqBJNy+/4Ng/LUCYjzhl7yDxVaFCQt07m6SSUr/0Xbtm27ayhd7XMIAFpSKyvZMrvOcuZtQ+ls6EuLkCAAAns1AXfuXzEhJl9ZdlCZlT+mH0VMpJeIQuIi1NtNLBfry568ua9yQwDQk7RET1O20Uf1qSIkCIAACAxAwDK/SDdg8esGyH6mSVrm1+vqmr1F3zjk0bo2FV9j/k3lao0IdLf2JbxAANC3liH6S00fSzn5U32qCAkCIAACAxCwzEdoBixL9JwBsp9ZkrlmdnKdqq5M62IcaGaFi8jIeSdUrNjQekr0zxFJ1waFAFCLZupByvxeTR8TQ1hTkXEDBEAABGZJwJ0PDk4oyz5gqQUdmfw5efcs2yAyr02W6GuaSUasGyZJ8kuR6U8FhwAwhaT2hjX0YVXbWHvf2kTwAARAAARmQcAyvUM1YBE9fRblGSIPZ5VNa1znClktGKIcfaWZmX6dtpZYI8TxkV3zhQCgJ2g4+Zjm9yTupvWpIiQIgAAIDEDAMP+NasDi5OABsp9JknJ+X1PHLMySbHWICWJlna7oahwIAoC+m1qiYzXtYkzyDH2qGyuk9MftRL+ae0nkl4shpNzyZ3J4aug1YpXUmNVH9rF6tQjkRPlY6iL2F0SvSHyDtDUdvgj1WZQyiH8MGZuMSV6Q9RtDh7l+dKhlfoUo5IrelJx0W5QydyjH1h377Ufyu5F+JD5AenlR1RotSTn5eIfCzzWqNfR5zaBsmX64srIyuIXDPmBIJ1DWad0SPbVLnhAA9PRSQ/+ga5fknfpUlz+kTHr5WMOfiXSQdIVl+qj47Cg5FxsEiijOZic55DRHzb8cJQ5lLqt0YpTLOTqrWp3blW3lJckTqtLKvEjW5O+Xax6TW3YsWVG2tdXVX66qW4d7W/Jj3Mm7rKH/0v3OMoXuXZbpDMt8pDjo6pC/OmpK9Di/naqujTFrTQlKfzdEL7VMJ9d6qiW63HKzPRGxJZOa5H9bTt4owpI4ERvla4mergR52PMYQAAAIABJREFUY59ny0cFGPgi4lz2ulhEHLg4vSZvmL6oa7vmDhIqFASAEKHx89Qk/0vXJvQjcQQ1jrkxr6xdfbAl+kRLnxvliXOnYX5LaODsQtI5ByvnW/rO59flIbZSnJfPUpwp+yLueXJ4VVqW6URNP5LyVsUf8p4h+itF2faID4o+yiHzjvOREnOEu5a/YfqmrD4NadQuZfp/QUb12+pb8pUwujaYRm7Qbk8d5/zkG79OVgzusc8+vyD+e6yht4uAmcVJ09QqM1lPDf11XUaLej/CydFVyzYgR9Ttmi4rGxAA9L3b6WfUDj4TvzWiP9envFwhM/fXhj45Ud8465tNDG8RZ0tdt7aqiHYRALK3q2j33jUCQJI8QcXO0Cer6jHkPct8vqJsp/VQhs3u1NPVivya+kvds9OHsvDaVgAQo3OW6cuR9a0UAOStX1ZMnJfd062hr4uPGfH9I3N5SvSgrI0s04XKDHcOBayHzlKZhGxd6OqW/GNlAgt8M03TfS3TbZr6GWMe2rYqEACiyG1JmX6maRPLdBUR7YhKffEDb3LLljuVDOoGZ8X95Dt982srAKScHDzldlkl8FQLACsrK1uVDtpu62UvWNmvZNLQtGtXvykiQIpzM01encIYut0yv1xZfXWwNgKAbJO1cCEuv5MpAUCEY1HwlwJbokNEkHLXx8uWcP48eVdWodTQ30dAFOt4jXsXakoDB3QQbtTUTd7cBi7OIMk7f++KwbK9IScIAHFNZ5k+oOlzEsYwfX9iTy4uq4UKLYpthvlftXXvKdzVNkkO7AtEGwHAOVPb064+tQLAilafRFYe+qp/KB3ZglHU85ouSo7WJo9o6RJdMQ5Wb8U4mym96X/FCgCiy9GgLxKq15QAIEv9Rb8QAUDc1+fjOH+12JpJid6WtbdoqFqm3YqGzQoikikz/3aos8z7ubOcF4JX+Ecf3B3rEDy0lufkeFrb/CEAxJHTviUVv7dssLCrB8TlslihZX8xwj5F+Depent2g7mh6+W33geRWAEgTff77xGunyvqXS8ArCXJrxV9pOnTOWnro/qhNLZaJlHKrKiHf6/9aqoYnBP7JeE8/Px6ujb0vr70AmIFABFAOtR5SgBYI3pgodMmAkDu8C/5jm/gTmwAjRpce355VMh86eT1i7xvnjL/2ai8TZ02b/gRi2W60PtyoEvb1gsCQDw5y/xVVd8b98ubRIGwrwEovsTtY2RKWnrjVFWTxy0299GhWq2r4XqlKPy2r0UeM1YAaLFfW6p/vQAgJcq114MT3K5ZOJZKmR9Tw36iTm1NqDv2d2jyqAlzlds2aZ+GocO69iGJHyMAtHBQN8G7agsgd/LHR2d9yG0ByMq9nJ5wqzObJgzeuVWAm2rAljMcfyf6nkgbfUDrOw1r6BhVfYie23fes0ov15Al1fJj20ECAkB8azplwBZvMvzVtgNofCl7ibE1Tus9m8wutpy8WYwh7dix425+KdI0vbMx5l6yL+vSVfXt7Hdu6OtdX0hiBIDsqN5YgBuPiVH3mgUAp0+hSJtf7HMc4lqOm4XH03ZO49wkqP+9ZC+gdLK85IkeSKndN8lYZ3NFyncodSkKxrvlCF9XfhECwGa9+/BaQXBqBUDKbzk53NrVA6QPFb5HMsN/RM8TH0BT9TSGXh1u4MpC3CHahWKooCu4PuNrlySXTbGxzMgyqbwEjrQ+ywkEvkMACACqeWyZjmr5e7pNJshZKnfVVCF4W/YRI+p4pc1PPmwNJuwCyMtFjDKYIXqVNu2qcBECwKZMf6Nmss+eGTpMJiGx2SHnz92RyKfJeWzL/N2cW7MA4BR9b1Uw7kPrvgpJdi9/o6TwCk2Ll6ns6CRH+Gnh5GOy9VJb2NIDY8xd3FapUjE1uazrkXetABAwUneTJfpQpsVvVx8sW0LSl4xJfk+U+lLmf3PbT5UCgAhFlpN3Sh7FiRkRuOUEjZwQKGHKvorm6acVna2QlsqfN8p5TZHiqxKf9T3dfhXdWpIeZ13Mzvk5QxHltpj6njL/YZvMIAC0obayIr8D5RLuVFu53+BPRbt8Ufun7CeqxwpDnxI9gXYkV1asTKY1k23p/s4uWwFaAcASPayUb96Ghv7LmOSJKysrQZ2iQiAIMbGGPlKZ1ySP3aJFHkqr7fPAROX6b3KdTLYxeciRtCZBqlTvGxzbmCxGYUX5TfuyJML7KGKLC60AULNVKKsQb9Os2IqxoNDxfLd1c5RlPlp+R2JNsLZKmTIP0+kl8HUDVM395DJD9JJC6qjNbMAH7gSARrHxnAGLMZOk1VsdzH/RpkAQANpQy+PIqphlOrfT70msnuUmqnvTUm5fozxmtsTKdJWmXk7buHPZc2WmyhXIiXFINNXb1i9CAPhQue5y5HgIy3yZVbnJyX6ivkU5RFhsW+9QPM1Lhlg+DKVTfp6vhoTbNNMR6UFRNjcMp7JjcLOYGi6XV/tdIwDIxF203ejT0PXGmEdp8xkknNPo/dyoUIrOVxP2Ytl7mMcbjOwL1ZSp9OPhzw4CcYaJak8CyHHPNsWCANCG2jiOEwLO0PXHxsHwh8Ykf7wIioL6o47urPEYR6crpbfFm4wx29pkpBMASHSlJuxvyMqpnN1vk6cizhabmXxt7Bti8vtrirSig2SmfzWa+ZETtOi6KDX+r5VtguiC10TI9HNyHYLSXFDm296RmkYAsDxl6e82UequKfbMb4s5QrFrrlfCqRMUMrvNmZndzm8BWgpi+EY14Bp6vzbNRQ2ntgho6O1t6gABoA21yTiiedvxqI8/WJ2dMv+BZpl5shT9fMv2s3XHhk/rW/iXiV2ztVe3xxkioBQA/LZYl/PbXbY3QmWS53KOWzGe7WHmu2vSiwnjrPFN1LmiLKfHpClhlSfPdoljqNi0Q+Er377L85ehH7e1oKoUACaYGkPPD5V75s+dr4Cw8kcZXvX3c8QpwiwGLkv0+IpOOgE8e27oTTOH2nOGYtlJVVeiY9tkDQGgDbXqOKJ9a5k0Sl3TfXX6N/WtKU3e6mx7vauyrmno+i5LqE0FtpwcGurvYu+9KY26Zy0EADmCd5+69Pq6z8z3DtVZnndVgqwqr5iQDeVdaJlXxa+652y0KF4um5Ukq9LW3Mv2zhUWO9eYH61JrxymhQDwgXIaC/NdpErNHlCok4yfJ98R7dghKygKb+P8yks7/vdhOtiQdSunLYoxqroSHV+Oq/kOAUBDSR/GDeax9r4bBILkK9JG+hK0D+m21hS6NfyK9rk0xxTBorwEX9H/97RRiosVAEbW1JqL3MtTy/SNinqW+8WZvWTmEhFPcopV4BtiPTUqt5B+NIRORcFHdBaCPNuummqcAY0F+p3ik6co18J+ig9zzfJbEOq44icP5fM7ZX6WrhztTeQuSkPJEpmmrm2tAUIAGKSlN+VbN/rjT8E2JvqQOBMZpLQuUct8hKIcFwytAGyJTgqVQ8aAWBZxAkBy3SzNOFvmF4fqLM9jjsiF+Oj0i+L0PNzRxpvDdRnWO2tuLc9/Gay8Fhfx0X8xKwDCODqDeUWQs8niTtCqlCgqgZYl1pssJ6/te8CQJalwB6N1sX0wL5Z95SsGVTR1tVgB6At5b+k471/iO0DxVq34PYkWMdFLh1IUtEwXhfqaIXplb4BqEtLYLJmwdFaTTvl2jADQRuu9nF/M9+wMN5NYTSyPoaXv/PqYdJvCapzTxJphVo7NV/U9J1TUU0wbB43fiRJkRdzGWxECwEysODYWts3DbGmISI7CKPZxQh2WMkUaa+1925SlKo5aMY7oDVXxl+medgXAtlR4xArA8L0hU6wz9Knw4B7+Lbk0zujzTVAIOOW/0mRTKo+h24fa+/dbQSX0Gvq6H0dzHSMAGGMeokmzzzBiGEbRR87uI0/lG/K3Y/PSrN6IIazYdNuE15hyFsM7sWlHCACnxKa9UOHlSIU4o1B0yuaBI5dqby48GHWtpPPQpciTj+ia17zjq3UAOG6prqgXBICCxPCf4mSrxjiIoi9PTcbXp8xP6avUqaHXKH7nJ/eVX1M62Upk8E2YboxVOI4QAC6KTbupPtpnopSmaIP1RmMvyswywzEhxrllR2WKKyvOPkvwrXtW3lmz1exQHVu4C9YLAMNuc6gbpmtAN0n0o9hEdGxXa4IRSoAzkTS78m2KLycrNIOCHCVqSqfuGQSAOjLD3Xd2zL+taddAmD02P+nS+Yy65tiWCAnDUZlIeZNlCjp9ibUHoBUAnPvYiQLN6MsW5zipWSDs7tRG4/lvZ+zxRzFlG+ivshr8s6G2sMptpDoOyPHeDbUCQBtF1XIdFuq7O3//hVAjK55/OVaz1AehtZ4l/sv9eMt4LfbVFTzXLSwBLl3zyvKjZTpT176lFQDvzUYm765n8jUTzyzdhFumq0NcZNsiptHVAkDuuTEm6d7CWuYjQ/UWr29dMlR5/mtxrFijyDhD98YrmdMp73dSydXQh2NZKgWAK2PTXZrw7hx+t4HL0OdjbUsXgCJ8sn+hiLOsn1o76TK4takjVgDaUOs1zmZnd/+cygEqNICNn5/Y1lqdU0BrfuvM8uGX5/o3fNDwn2EBIHb/VisAzNNiW+48p17YK/pIl2V0y3RckU7tp119cGwv1zmP4s8M33eK/kmigBvq19GOljQCwCwFndh26iv8JmPMky3TDxWQKxvBQYq2IOjMr1amOVGWjpJyX6C6pCOeGCfqVNehiR7WJh8IAG2oDRJni9NtuUTV3hX9oO2Kl3jMbJvnPOMZkzwppiW0AkDs1kJMGTRhNXoibbf85KXLeZlrGj9bKRrqFACDE3JTuYZ4doamTfwwGgHAttha8PNYmmtZenRa+cElu8rBop2mvuwRKo7M0B1tVxkWpQEsk2rLpe0ZcQgAi9LSeTlEP8Yp5N1Q+XupmPgnw/FBsTVyOglDDK7Dpkn09Ji6KgUAcb8a/VISU45QWDeehthd0kZRUeP5r62p5bEb5IWb5OtZEn0v1B7l5xoBYKnO/5cr2Oa7nKeUs7ktzjzvSpPkt2Lz1JxhlYFRjrvEpr1I4TV7odbQ9W3LDAGgLblh4xlj1pTHwsqD285Y5yrijXBSiFiWATxOy1opAOwctmXDqTuvrWFjOklyYDi1yRA2fBz1FjHmMxlL980yXbqE/eg8Xe3GoTQCgOgfjGPsRVcp0WMrPCGVB6ny97NipVmlH21Rjot+I1qU5nKGZMqspr+3OBNd1BECQEFiMT/FQ6Bl2hk1sBr6fExtNMpbUfkHVyl6EjByN8rqqqoEgNxJjDrNoQIaTv4lzDxOgz1z8xw08pZ8sG2dVC8rs+ob+nwGEQAW0vlP24aNjbe2uvrLluh74Q48HgiMSX4/Jh9xjKFKv6WFvJiyDBVWznmr6sh8dNsyQABoS2528bI9+szr5vj3EuwXEW+HcoIkmJ5+QJ0WUIeKO4QAQHTB7Fq2Pid3QiTAMrks5kidWJEMtXMXBchoQXWofhGX7iACgDjaq2/dveDJvvvu+/OW6VuhDuc9j3I5qZ24LNM1MT+SRWoanSELEl/h4oWx1Z+WY+yycqvCIFItAee3Xa9wS3RSbWKlBxAAfMGKzy/hmdfXzZYpqBAqVhO1BVR4/hPb+Ju06ZXDQQDw+tHeLgBI53BL2Fd4k3yjRGuMuVe5U9V9FzsCWterxqz+j7p0Fvm+Vs/BWpu2rQcEgLbkZh9PzP9aJq1y4G6tMxtsAXgDNy+MALBiOXljcOw0dIymJ2arsiHT7kSHaNKqCyMvW8Hyxr2dN84XPeWFFYC6Bu3jvt6ULa2nkQY4DNN/KDvBO/qoyyzTEN8Jqrq10GL16wEBwKex+NdKZyv5wKl8C7FEz9P0tSHdt86CvEoHYIEEAKW7XjE4E7QEaYneEGjj20RHoEs7WE4uC+QhOllLb55dpQSo/O114b00ca2hU8Mdg9atoU/GVEpvJY+u3bFjx8/FpD3vsJbpKCWzw7qUFQJAF3pziStLw2dp+kbK/F5NCUX/RpPe9iS5hya9RQ2zbAKAcNQ5tFl9ZIh50F5LD7pSlunsUD+ao5nlECL1cwgAalR5QK09e8t0YUzSsvStP3bIL45Je55h5Sy4Zboy9GOS58aY+3UpKwSALvTmE9cYepmmb1iir2lKqPQMt76sW2kFg2UUAIxJXhhq65CgJy59Q2nEWlUsmPqfSsdxM3Eo5Zer72sIAJFEnalRjU908fAV9WeZTg51bnkujdbVXnpUwToE1mjrZnXuuPwvRYQA0KGh5hTV6QKE90eVljDTNLW631B/3gfngW4ZBYBt27bdVaFcd6144qtjKlbpGts37yetlf+KfK2h9zXmk+//n1mEX9ZPCAAtWs4yXaToHPJGe5eY5GN0DGTLICbteYTdf//972SZLtaxopd1LSMEgK4E5xJfLGGGDcUw3aAsnWwr3Bjuc/w6ZXoLGWwZBQABqbLdnyRPqIG+xTD9pLltk9fWxI26bTk5tDmfTNlSXvLmamkxqlIVgSEAVEAJ3dJ6PZPVglBapefiQlM1YYqBIjlOVYq/UF8t8+sVPyJ5+7uxBaupukIAmEKyFDd0Cld0q7YyiiNi0To62rxnFW5pBYAkeXh4TKg24GOMeVRjXEO3i2+VPtpAa1Ja7Fr0kd+80oAA0IK89kibRqO1nL3Sdna2ZJoy/1s5/qJ8d0d1NG92622dgZTrCgGgTGQ5vov558aBPV9uFRsYqj/LyTsV6d0oK1SqBBcw0LIKAGLHJLSCmjL9THSHytgtN3vEE1fS5Thtv2fmqxXH/MSIW9s8FiEeBIAWrSAdVDHAaJcsyyXYqhUw8jIsnnlgt/R/uoKRCDI7ux7ZKQBCAChILM+nUxIN6wBEWLUzJnmGpu/JltvykJos6RILACupob8OtY9YDvVr7Dz/NdqNENPtfpyu11ZjsbKD6fKu5esjPgSASIpq971MrRVExPRi6AfiPb+ljQOiyGpHBVdb/csk7OTwqMQbAkMAaICzoI+sXT3A68u1goDYydBWIbMTzxRW1I08qqvNfxbhllkAkCOYNmTIx9CHfY4Koe7ivq2kWqZ3aPrmMm8DQADwe5niWmtprK0/c1eETcpjKMWAec12ol9VFH/wIJb5dZofjQtzcayiZFMFIAA00VnMZ4bor3T9JXlzTA00fuizY7d29YCYdBcl7DILAMJQ4Rr8Bn+LJuQwbQiXtSnR41R9swe7A/PqV0sjAKSG/i8R3WdeoIp8LSdfUXWKjp77jDHblVsNuRBAdPm8hQCl5mwhtKzHOk0q2qDuEwJAHZnp+9bQm5j57tNPZnpHtrtUPgFi+4plfpHqd0r0uS4242dKy8ts6QUAhcXGNeZHuypvtZxc19Ced3QxIe5hLV9uDZ86yE4D7DHGPKQceRm+L40AYImOz4735MffNs8DriV6bkMnHE1ssrxFRDu6ljFl/jNlfnnehq7vwwhGbLlFUherWFFlJTo2Np9QeAgAIULj5+4N7JrUJM+c1wRoDL1a2WduFYdc49KHr7Zv376PZbpJk74hekk4xX5DNJ111+S07AKA83/SeFwzJXqbsGDm325sxwG3clJDf9+Y91hR8Dypk6btegyzqas9mGUTALKJzjB9UzpFjyCDScnbdYSDiNOCCSoDWEPvV3bAQgDZZQ0d1rVjKIu3kibJr1umMyLLeO4QttghAGhbbWoJ9jRmvr8+dveQ1q4+WHn+XzxEHt8mR8vJm5X98jbpO23yaBMnn7yTd7WJW8RZdgFA6qEwtnORhAspDRqTPKng0vfn2to2Y5luUfUjok/Myi6AOKcTvRgxpNWlzkspABSNkTJ9SfZp+lb+KAN1g9VPi3yDnz06TxC7/5bpG8E8x5JoIQh8O8a9ZrnOoe9pmu5rmP/GGro9smzXDrWVAwEg1Grj5zV7sKe4ibCzJbVxTtNXKfNjFBbhin4sx0TVbmL93KIGbzEelCQP9+P3fS1bLiknH89+Ly2FmqJMG0EAkHYNjR1i2TFl/vf6cMllbY5bFxw1n3FKzXRC19WdQJk2u5XhzFvhXi0AeJ3iUsvJ4TEueAOQs8erq6uJNXSMZdrl5TUamKruyepE30uqbiBTWR8sl8kwfdqYzMFGL9smcr4/m/j1rlx9XreuMf+Ohn2bMBAA9NRqBADXVny+KHMmSfJL+hTDIUWvxVmCC2vojwXaU8Ip14eIMEYlxoFuN0Sv7PuFwhizzf1mxlsSEACk0cQK5IXlMcv/ngmLRBf49yav+ztFVNeLpP0s09WT+fpul6euz5Bxsi69tvflZVfmF78cEADGA0U+eGWdJXmzWHJqc75ctNJT5j8UIzs6k6ITjb/LJsmBbRu4KZ7oFERYCfQn3eL6YjG4I8JAjOa97O8bYx5qOXlty5WIIv9bYxW5mnhUPVMLAOJ62dBHZvkvbzJVZZ7XvWYBYNynDdP3DdHfykAs++qx5b3HPvv8gugZWKaPqpdSx7/pncaYX4nN0w8vb2NSB3/QVFyf6YTmTishmRvs/AVieq8bAkDWTKK939Qe7nmdwLi7D10rv7/UXVui5zSVs+LZzZaTN1prf7EuTc190StwbrPPrMhjHQLAeLAoJpryp0iYJ4tCSWqS/yOW9lLmZ4nfcHFUkxp6TWroH/KlOXnzoTuqQOvu9WOHuq5jyBuZZbpEV5bxID4VPl+2P88SfULOusoAL298steWCQnM73GOic61TLdNxQ8zL7fBjdYmj6irV1/3tQJAD/Up1y/4nZnv3Vc9+0hHKwCUWO2xzOfn/YaPzpX4+CCZ4I2h54tnP/k9ZXvvhj7p3u7qBu8gM2OSF/RRV6e/Mz0Jh/vx2fK7cF4qg37qZVtMBCX5DVmmc0rsJusLASBrWvdi09RHat+8ZXWzj/6hTcNy8sHGNq3uT7Lqc5wYNpKVBEVeW3K9Kn6RJToppMgKAaAa+uSPbQZhnBvLTm8Mis6x4rYDtFb2Zs6h4gdyYVc3vxouEgYCgJbUlBLgIvSTUhn4SH1twiEt0VP17rYrheebLNH3cuFHJoLkXU6J7YT8aHByWUXfL9XJSxcCwKjRrKHPR7Fz47ms1I4SmcGFs1pZ+SYeUf5LDNMXZfXRcPLurB8Rfcga+pRbqRpvEynmLQgACkgRjVP/g23Ix03+M/MK5RQDjxu6Xp3TJzqpDyc/2t82BAAtqcUWAGS/XF8TfUi3lNr0ttnq99/qdwIBYNRwLZbXpZ2umNVJp1FBV1ZWnJXJs1q1ecMc0jY9CAADQFU3hiylEx3id5BZXju7BPrTCTNiJcYz3PnyWeLACkAE7ZZbAENPkDfLVkJENaKDytZfT9ta3VhAABi1nRwJtpFKxbJtOUpgxhfihbWjPlS3vuON43uNAJAa+if1xOwBGi5O8p1ZLW039W/nm+CE4erpLVuGud4o+5+i+NVU5qGeYQVAT9YynbggfSYbDOVIr7X2nvoatA+ZHeslunyO9f9y16OwG+EYoN+CkYbE9qTpfvv78Wd9nRk/Y37vHPvQTsv8F13tDiyNHQA5MiLKey00enuTtlxjXyxvEV3B991h5fSBGIaYU4e8QjRelUoufVd9lB4EgBEKzcVWS/TnKo9nYcGvy2/sXNmf7/vobAiAbE05t8Gz2xIgukDGsD7qutEEgKC1P78PGvp8qH1n9dwSPT7k3rjnMXmXbDmLu+I+6rhMAsCovtJZRKu/F414v2PVX++2RJ+TgWoe+06jiisuUqIHiTQd5Uegvt5NA7u45jxRrHAtChMIAIoOMh1kszHmUaKQpLR73tQntM92Zcp0RI/v+8z9dPWa77ijeh/uqCDYVO891tCpxiR/1KfBmo0mAGQ2ARrP+49XIsUzYHOrzvZpfnQ8OdgyXdrzZO/3qytl26Nv2xxLKQD4zSvHqzLlntxk7rdbnDX2IY+v8yXCE8XqkhgE8vNchmvRWHUuND/Qs6B0iVhMG9jaVSvE2XGvGZ/v19oSWDQ7ADWAN8sRJLGNL94sLZMoO/VxDFR+V5fktjX42XJcrib/ud2W42j5MWGSMWRPx4H8WjlGK8eM+3pTK4PJbHME+rphfks53iJ/t8zPDv2epA/5XgIXqT6ZzQmTPCn77Ri6vmMfkpWps6QN3RHq4DHUNiyyrfVAP5ItszZpzyvOFtkfMsY8WYzX5Ect6ITsDZ7pW+5sstgGOM/m30+zRB8yRG9NOTlYzvEugJe03tllNgSInirntN3b3qct0+mW+buOSYT9g36PaPVeWSTYJ4GtYmEzO0ZH9AZZfsyM+uRHt2SylN+S/IvNiG/Jka5ceOCj8wlw9ZFydLXPAg2dVuZIKFva5ddne9OGTs3HisxOSFHfs6yhr8tKRr5/nRwqjJw10sGPAw/NAOl3JrAlTVd/w3mlPMpw8rF8vM2EateHsv4kv5lTneG5oyS8mEiOdX7VubRIYO8mkEnfUW8+/Pq9mxhqDwIgAAIgAAIbhIAz9zveBgnoBhiiV22QqqMaIAACIAACILB3E7BMR8XsXc3zPO7e3VKoPQiAAAiAAAj0S2CTwk/35CqBoWPmrc3dLwKkBgIgAAIgAAJ7IQE51hdrU0CcKW3btu2ueyEuVBkEQAAEQAAENg6B3Dxn8pWY7YCU6Qezsua2cUijJiAAAiAAAiCwYARyX9T0pUgh4GeW+cV9WDtbMBwoDgiAAAiAAAjsPQRECGjpOOYLa8y/ufeQQk1BAARAAARAYIMRcN66TotZCSjCGqZP2yR5QgvrXZuwnbDBOhKqAwIgAAIgsHwExN61s6Y4eQIgYCugEASsmMY09BGxRLjG/Oi1JPk1MZMqVtcyj4bW3tMSPcyY5IVibc7ZqD5j+UihxCAAAiAAAiCwwQiIrWvLJL4F2gkB8fEgAGywPoTqgAAIgAAILDEB8ZkwoPc0X7iAALDE/QRFBwEQAAEQ2IAEMucwTDcPvBoAAWAD9h1UCQRAAARyxNWmAAAC6UlEQVRAYMkJiJa/5cyjlf/W3uc1BIAl7yMoPgiAAAiAwAYlkB0TNPT2gbYEIABs0H6DaoEACIAACGwQAsz8AGvokzbKpXBQmRACwAbpH6gGCIAACIDABicgx/ss03G2H/0ACAAbvL+geiAAAiAAAhuMQGY8iOhpluh4y3RltLKgoR/D1fAG6xSoDgiAAAiAwN5HIE1Ta4keb4kOsZwcbojemhL9szV0jGU+UgwEWeaDUqLHMfPd9z5CqDEIgAAIgAAIgAAIgAAIgAAIgAAIgAAIgAAIgAAIgAAIgAAIgAAIgAAIgAAIgAAIgAAIgAAIgAAIgAAIgAAIgAAIgAAIgAAIgAAIgAAIgAAIgAAIgAAIgAAIgAAIgAAIgAAIgAAIgAAIgAAIgAAIgAAIgAAIgAAIgAAIgAAIgAAIgAAIgAAIgAAIgAAIgAAIgAAIgAAIgAAIgAAIgAAIgAAIgAAIgAAIgAAIgAAIgAAIgAAIgAAIgAAIgAAIgAAIgAAIgAAIgAAIgAAIgAAIgAAIgAAIgAAIgAAIgAAIgAAIgAAIgAAIgAAIgAAIgAAIgAAIgAAIgAAIgAAIgAAIgAAIgAAIgAAIgAAIgAAIgAAIgAAIgAAIgAAIgAAIgAAIgAAIgAAIgAAIgAAIgAAIgAAIgAAIgAAIgAAIgAAIgAAIgAAIgAAIgAAIgAAIgAAIgAAIgAAIgAAIgAAIgAAIgAAIgAAIgAAIgAAIgAAIgAAIgAAIgAAIgAAIgAAIgAAIgAAIgAAIgAAIgAAIgAAIgAAIgAAIgAAIgAAIgAAIgAAIgAAIgAAIgAAIgAAIgAAIgAAIgAAIgAAIgAAIgAAIgAAIgAAIgAAIgAAIgAAIgAAIgAAIgAAIgAAIgAAIgAAIgAAIgAAIgAAIgAAIgAAIgAAIgAAIgAAIgAAIgAAIgAAIgAAIgAAIgAAIgAAIgAAIgAAIgAAIgAAIgAAIgAAIgAAIgAAIgAAIgAAIzIrA/wfOTcNsqP3HzQAAAABJRU5ErkJggg==;" vertex="1" parent="1">
          <mxGeometry x="221" width="72" height="72" as="geometry" />
        </mxCell>
        <mxCell id="C1_RdyR0-82RKuUjunUg-26" value="" style="shape=image;verticalLabelPosition=bottom;labelBackgroundColor=default;verticalAlign=top;aspect=fixed;imageAspect=0;image=data:image/png,iVBORw0KGgoAAAANSUhEUgAAAgAAAAIACAYAAAD0eNT6AAAAAXNSR0IArs4c6QAAIABJREFUeAHtvQeYHcWV961v33cx2H5xWL+A8O5nLwpgsDEGY2xsg3JAgARIAskB735rG4O9XrAx9jpg1jajRDSggEASiihLo5yliZo8mnAn53tnpNFoRprRjCbW95wRDVetGzpUdVV3//U8enpuh+qqX506/9PV1VVDhuAfCIAACIAACIAACIAACIAACIAACIAACIAACIAACIAACIAACIAACIAACIAACIAACIAACIAACIAACIAACIAACIAACIAACIAACIAACIAACIAACIAACIAACIAACIAACIAACIAACIAACIAACIAACIAACIAACIAACIAACIAACIAACIAACIAACIAACIAACIAACIAACIAACIAACIAACIAACIAACIAACIAACIAACIAACIAACIAACIAACIAACIAACIAACIAACIAACIAACIAACIAACIAACIAACIAACIAACIAACIAACIAACIAACIAACIAACIAACIAACIAACIAACIAACIAACIAACIAACIAACIAACIAACIAACIAACIAACIAACIAACIAACIAACIAACIAACIAANwJs2Rc/3bvsumd7lg9N7lk+9FTP8qHMvf+v7+ldPrS+Z9nQ9J7lQxf2rbhuMnt9+Me4wUJCIAACIAACIOAFAt3Lr5/Vs3xoi3sF31Cw0tK7/PrfsPX/fJUX6gxlAAEQAAEQAAFbBHqXX/ernuVDBzwu/h/2ZvQuH9rQ+95199qChotBAARAAARAwM0Eet8bOrFn+dB+v4j/R+W8vqdn2dAn3Fx3yDsIgAAIgAAIWCLA1g/5Xz3LhxZ9JIqGutE/fJL2xnXX/cwSPFwEAiAAAiAAAm4l0PvutWO8IeJ2Apfre3pXXDfarXWIfIMACIAACICAaQLdy4b+DQHAUEZjAjAw0LT54AIQAAEQAAG3EuhZPnQVAoCLvQf0dYBb6xH5BgEQAAEQAAFTBHqWD12JAODD1wctbNkXrzQFECeDAAiAAAiAgBsJ4BXAh+I/OLCRJgtyYz0izyAAAiAAAiBgigANfkMPQHgQcP1bpgDiZBAAARAAARBwI4EPPgMsRBDwYRBw3I31iDyDAAiAAAiAgGkCvcuvn+DPiYA+FP3weQ3qTAPEBSAAAiAAAiDgVgI0Ah69ABQQXN/j1jpEvkEABEAABEDAEoHeFdc/hyBgKLMEDxeBAAiAAAiAgJsJIAhAAOBm+0XeQQAEQAAEbBDwexBgAx0uBQEQAAEQAAF3E/BzEODumkPuQQAEQAAEQMAmAb8GATax4XIQAAEQAAEQcD8BPwYB7q81lAAEQAAEQAAEOBDwWxDAARmSAAEQAAEQAAFvEPBTEOCNGkMpQAAEQAAEQIATAb8EAZxwIRkQAAEQAAEQ8A4BPwQB3qktlAQEQAAEQAAEOBLwehDAERWSAgEQAAEQAAFvEfByEOCtmkJpQAAEQAAEQIAzAa8GAZwxITkQAAEQAAEQ8B4BLwYB3qsllAgEQAAEQAAEBBDoWTZ0kZdWERSACEmCAAiAAAiAgLcI9Cz7/G09y4eeRgDgrXpFaUAABEAABEAgKgEvij8FMlELjAMgAAIgAAIg4HcCXhV/BAB+t+wPyj9qTehzo7fXTR2zM/jniftOvT/pQPPhKYfP5E051lr9YOq50w9lnO+cntPdMz3nQu/ME70D9P/Rwj42O8AG/z9W2Mdmnugd/P9Idhd7JKuLTU1rZ1OOnmET9p9iY3cG2b1batm31lWwO94tYl9+I5uNmJfChiUkcfl/Q0JSx7CEpDMX/ydXD0tIqhw2Jyl72ItJe4a/mLR62IvJr9+QkPT88ISkJ2+Yc2zK8BeP3fzPL6dexaP6K5rarylpbJseaDz7fKCxbW0g1JYdCLVVBUJtZwKhtp5AqI3hv9oMyutLWbDyHXam5CnWUTiBdeeNZH05/5cN5Hx88D/9TfvoGJ0TrHqX0TWoV7XrlUf9VJak9XatvmnAS93+4WXh4QORhksIjNpSfdvYnaHfTTxwasf9R1urHjp+vn1mfk+/JuROb2fk9bCpqefYhH0n2Xc2VrPb3ylgX3rlOJegwGBw0XRDQlL6sISk94YlHHt2eELKhC/87djQeNVZ2nj2zkDo7MuBUFtBINQ2wMPRIA1nxaSsoYo1lc9jXSfuZCz7Hy397zrxDdZUMZ9RWqg/Z+vPCd5Vpemsa/WXWLhgeu3veL4Ox11KYMzqqi+M3dP4x0kHmpOmprW3PHqiV5rQmw0sZub1sCnHWtm9W+vY7e8WspEL0pwMCuhep4YlJO0flnDsf4YlJE26Yc7+T5W3tFwdaGz7dXGordgJ54N7iBGU8obA4FN8f87VlkQ/UrDQn/Mp1lLyc1beUIJAwCM9Xn4QfwpmXCpvyLaewD3ra/513J6mV+47cqbo4cyurlnFF7vnzYqviudTWaYd72Bjd4XYne8F2I0OBwTD5yQNjF6Y2fefm4vZ26m1LKumBY7eZY6+JNg8+MTfn/NpbsKvDwYoqGgu+z0rCZ2EfbjMPsIDbr+IPwIAvYq67De9t594oHnX1NRzLbOKBz58J6+iiPPME5WVxhiM2l7PbluSz4bP4TOWwOBrAzZyTjKbuCSLPZdYwjbmhVhRUMzTarhTwt/WGVfWZbEL+bcJE359INCV/zVWWZ+NIMCFQYCfxB8BgMsEn7JLoj/5cEvajNyePp6i6ua0pud0szE7goPBgFER53neN15LY09vDQwGA8UudHpeDi4aqlYxkU/9evHXfvfnfoY1VK1BEOCi9uA38UcA4JIAYMzOun+bdOh09ozcboj+B18eRAtYHsm5wEYnNrBbF+Y6PW5g8H7ffD2d/Xp7gG0vaITzl+z8QxWL2EDOVY49+Wvi/+E250rWWPEq7ECyHRgJcP0o/ggAFA4A7tlb8S/j955c+VBmZ2c0scP+2OMcHs44z767sZrd+JLjgwgHg4FRb2Wyv+wrZxnVGDNgxAnzPKex4jV5wq/7qoC+FOBZNqRl/XVQJHZ+FX8EAAoGAGMTG5+iT/QeK+z3zTt90YEMsaRPDWm8AM+uf6Np3Twvmf14fQHblBeEEDjwNEjd/iznSmUCAMpLQ9Va1L0DdR9J4GPtqypJZV2rb/L0p34k9NH+KyiB/svSqMPsf4/bHfrLtPT2dtFi6Pf0p6W3s7tWlbJhc5KlBAPjF2exN5NqWFFDKwRBgCBU1uey/tzPqiP+H/QG0DiEyrpM1LmAOo8l8LGO+V380QMgOdaYuKdm6Ph9JzdPz+nu9bswO11+mrFw8PWAw58Uar0Gd//9+ODrAXxSyK87tyR0ytHR/h++69d1+Ufb33XidkafI8YSJRzjZw+xWEL8L/YKSJZAf96ehH/SweYDMwt6B5wWPtzv0nEDNIXxdzfVsBHzU6X0CNz2Uip7YW8Zy609A2Gw+XR4quwF5Z789cHAybK/oZ5t1nMsYTdyDOL/0SsBfyqwpFLTnPv0xC9z+l0EAJcGABqPmfm9gz0CIzmuUaA97RvZ3vZy6mCPQF4dXg0YceL6c2gWPpqRTy+4qv2mVwHl9ZgxUF9/Tv2G+H8k/ngF4FAg8EBi6OMT9p3aAOGPLL6aCKuwnZ7bPbhokawxAne+ls5eOlSJMQImnxJpkR7VxD5aflpK/hO9ACbrl0eA4OfR/hgE6JDY628zNjH4G5qaVwVxQx6MByAPZXayO94tlPJagHoM7n0zg63MqIdQGBAKWoyH59z+0YSb137qqcACQs6869cCB4j/pU/+WkCg1yv85kTg3m214+8/1loP0TUuuiqyokWJaPliI934Is55ZHku21fchEAgRiBAq/rxEmen0mkqfwl1GqNONeHmsYX4RxZ/vALgJPbhyXxrT/1nJx84leanuflVFG6eeZpVNDC4MuEISeMDbpybzH6/s5Tl12OgYCRBsLOkr1OCr79PV8FdCAAcCAAg/tHFHwFAuHJz+Hv0juCTj2R1dfMUH6SlTg/CI1ld7GtLC6T1BnznjeNsXXYDhCNMOGhAHcu+wnU9AJTn8voy1GVYXUYK7uzsg/jHFn8EABxEn5KgaXvvO9SS56UleBF4RA88aFZBp5ck1l4vDE9IYv+xvpBlYEniQfEMVr7jQvH/x8E8B6uWIwAQFABA/OOLPwIADgEADfKbjkV6fDdt8fScC1J7A+56LR29AaE25qbR//rXAC0lP0cAICAAcOOnfjQd8ekDv4w6ZS+JtYj/HCTQn0nQp32TDjYfwVN/9CdlP/Qi0DLEw+emSHktQL0BtAzxiQb/jg3oKJzg2h6AjsLJCAA4BwBufPLvWjWSVQWSBm2hKXWBEKGPFjz4U71tlnr0joYpD2Wcxyp9cZbm9UMAQGWcdvw8+8qbOVKCAHo1MGZRBttd5M8vBXryh7s2AOjOG4kAgGMA4Hbx18Y7OBkE2JRC/10+fl/Tu1ipz99P/ZECm0cL+9k3V5dKCwJunp/M3jhW4ztB6cu9xrUBQF/udb6rL03keG+9Iv4al5YDPz8a7amd537/KbjFEt+1q/xqGugXyfljHwICzQbG7W5kw+fKWWmQegOe2lTECny00uBA9idcGwAMZH8SAQCHHgCviT8FASWhttzeFdc/x1PsI6VlUQ79ddmEHaE7sFQvRF4T+XjbqWnt7ObXMqT1BkxaksWOlvlj1bmB7I+7OAD4OAIAmwGAF8X/g16AgdLQuc+JDgL8peQWSjs2sfEpzOEP8Y8n+vrjM/K62W1L8qUFAV9/NZ1tygt6WmDI+Q9kXuneACDjyg8Hf2ldv9ganyLYw+L/QbttfZgkS2QQYEES/XPJuN2hl/G+H+KvF3ejv2cV9bO7VpVICwJumpvC3kr25rgAzfkPpH3MvQFA2pUsfAQ4xB/iH24DxY1n/6ipraggQEsfWx0BWrYXn/hB/I2Kfazz7tlSKy0IoE8F/7jbWzPOaeJP7zQHjrp4DMCRTwx+8oUgwLjwk0CG13+k99oq7rNWx62rwmVJRBAQnj7+HjJkyKhl1Vfed+RMUSyHjmMIDMzawLg9TWz4HHmDA3+2oZAVemBwoH6Sl/59V7u2B6B/79UffvNNE8FQ2cKfAPH35YGBvv5VFHt9nmzUbYZelLuXXf9nffo2fg/o0/f1b1rI54Hkc6fMOnecj4DAiA3cd7iFyVpQiL4QmLUyz9ULCkV68uvb+lnXBgB9W/7pwwCAnLi1p8TLRdKrgUOk+rchfpewF5WOzTqtiiTIHHsCTkZK35f7JmyuuGZq6rkWI44c50DwrdrAA0ltbOT8VGmvBKYuy2E5te6bOTDqk9+qa10bAPSsuvYyEbLxtOjp3oOo9S9oilweAQGHumyOJsacegKORUvfV/vHrK76wrT09nNWnTquQ0BgxgYeTG2XtpgQ9QRMfjvLVYsJxXP+A0lXuS4IoDxHExkOwuGpYCBe/UfjKHM/pzq8EEuI7QYBvcuuezZW+r44NnZnw8hpGZ3nzThwnAvBt2sDNFfAjS+lSesJmLgki2VUtygvFEa6fft2fNp1AUDf9s9EDQBIuGx2HStfr0ZfUxipf5lCH+nePOsungjbeB1whq3+fz8TL31PH6dlfB/O6Oyw68xxPQICKzYwLb1Dak/AuMWZLFPhZYUNP/mtvJaxzCvcEwRkXsF6Vl7e/a8XE05Pka4NBgzXv0KvAXjXmREBttATMNC97PrHjKTt2XNGrQl9burx9jYrjttv1zxeMsCeKO1nz5T1sd+X9w7+/1N5L/trRc/gf/pb20/n0Ll0jd84WSnvgynn2AiJYwKmLM1muQqOCTDr/GlEvX65XVV/h4/+14u+/jdvQTH65C37PLP1r+cm47eIujIqwNSd37N8aL+Bcvf3Lr/uV0bT9eR5NNp/alr7GSsO24vXfC/A2M9L+9n/VPSwhVUX2JqaTra7roOlNJxjBTam6qRrKY1ddR2Dab5VdYG9UNEzeC+6pxdZWinTlGOtUr8OeHh5rlJfB1hx/r2rXdILQE//EQb/xXLcIoRFtsDHur+V+o/Fz4ljourIjAD3Lr9+Qs/yoUUxylvYu+z68WbS9Ny5DySGPu73T/1+WtLP/lLRw1ZUd7H99e0sP3jW8W5Cuifde3l112BeflLq7x4D+kRwmMR5AugTwSIF5gmw4/z7dn5K+V4AGq8Qw0FHPSZKYGIJsYxjdurfClce14isG7MCzNYP+V+9K64b3b1s6N96Vgx9j/53Lx/6V9pHx8ym57nz/TjJzw9LBtjzFb1sZXUnS20457jYG3Uk1FvwXk0n+1NFL6M8W3madvM14/c0SRsUSF8HPLGxUKpt2B7wtWIoG0hR94uAgeSrWM+KoVFFPp4Y8RxcZrRNOnme7fqXMBZAdJ14ToBlFmjSgeaDbhYIM3n/t5IBNqeih22rO2+rG99JBxB+L3p9QHlPqOhhP/JRMPDdjdVSg4C/7CuXEgTwcv69a65Rc0Bg5hWsd+01lsVfCw5EC054G3Tyb171r3FyYutEXcjUS0/de/yuplfNCKgbz/1+gA0+6W+tdafoR3M4FAxsrj0/2DNAZXRj3ZjJs8wFhGjtAKcXEOLt/Ps2/5NyrwIoT7xEyQnhidYWReznXf+8OMdKx6k68JQIyyrMuB3BX9DKbGacsJvOpXf6i6u62HGFu/d5OQ4q46LqC4zK7KY6MpNXWoHyq4vlLSX8pXkpbHO+M0sJi3L+9J29Kl8B9G2L/c1/LKGJdswpAeLVbqOlI6r+o3Hjsd9J9rI00zP3HbWl+rYZed39ZhywW859urSPra7pdGUXfzSHYHR/UbCNbao9z35d1ufJQGBGXg/70qvHpb0OuOPVNJZccVro6wDRzr9vm/x1AuJN+GNHkJwUIqPt0sx5ouvfDtto1zrN3DNCLKMgNOJ/anrHWbcIutF8PlfWx3bWdQh1zmYassxzi0NtbEddB3u23HuBwIOp59jwufJWELxvaTYrEPRlgFPOf/B1gIxJgjKvYDy7/VURJF5t3an6j8bNyn6nxZ9Yy9BNz9zzviNnAkZF1Q3n/VdZ3+BTL69G6LV0aL4Br/UIjN0ZktYLQF8G/HJLMfdA02nnT4PvnPw6gEb702BEKyJj5RoZwmTHdzhd/1aY6q+RxdgzYux0QcbvblrkBlE3kkd6372+5jyjp107Dc8P1xIjejXws1LvjBH45poyqUHA68equdmdTOffl/hpsV8IZF7B+nd/ivWsuM4x8deESpZAmfUpMutfY2V2K5Ot07rpifuN2Rp8gAZSGRFXlc+hb+FpcF+BhIl6zDZs1c4/ETw7OKvhDz3w1cCjhf3sy29kSQsCbp6fzPYFTtoOApRw/quuZYPTBvN8LUDCv/dq0zP8mRWieOfLFCoj7V+J+jc5V4Bspp4QZCcLcdeu8qsfyuzsVFnYjeTtufJeluyDUf1GHIedc2hyof8u73V9MEirB8ocDzBhSZat8QDKzfC28lpGPQLUXW/1awFa0rcv8TOGFvaJJ968jouclc5OO1Su/g0EAiqwdFI7PXGvSYdPZxkRWFXPoQl81tZ0oruf4+sOei1AX0v8u8snFBq1vV5aLwCNB/htYomlXgDln/xWXcv6tnx28Cl+4Mgn2EDqlWwg80o2kP3xi//pb9p35BOD59C5Zufz5yXwRtKR/dSqDxSUr/8IwYAqDD0hyk4VYmxi8Dezit07UQyN7k/DU78lkdE7nUi/aQ6B37m4N4Bs+2tLC6QFASPmJLF12Q2m6scLzt8LZYjUHpzYB3b2xm05pZ2uv8+Y1VVfmJ7b3afqk32sfH2/hA2+6y/i+NTrRON24z2oN2BFTSf7gUvHBkzPucBGLkiVFgTc9Xo6y645YygI8JLz91JZnGq3YGZP/KmeXC/MThXArZ/80Qj/A3XthhyqUw3XD/c5WN/OnnDplwLjdsn9NPAXBj4N9KLz92KZRLV1sLIv/ggADEYPY3eG/jPWE7aqx35b3ssyG5xfildUo3dbulnBs+z3LnwlQK8Cblsib6pgehWwMS8UNWj1svP3ctl4tV8w4iP+CAAMBAA06v+RrK5uVUU+Wr5eqexmNJ0tr0aHdKyxpDp4qbLbdV8JPJTZyUbMS5H2KuDeNzNYfv3lrwL84Pz9UEar/gRsrPmhaLwNSKC/T5l84FRaNJFVcf/3Ahff90ercOzn24CM8qRxAVQ3KtpMtDzdu7VOWgBAXwX8flfpJQGsn5y/n8pqtA2BCX/f5W91j1P6exLr75tVPOAap/14YIDRUr1GGxTO49+gYjGlJYfdNHHQrKIBdsvr8iYIunFuMjtYenGCID86fz+WOVr7AQsxviqOBPr78APJ505FezpSbf/jJQOM5qqP1oCwX0wDMst1T10H+5GL5guYfOi01F6A763OZ352/n4uu9a2wECc7/K3wscoPX3zr5rIR8sPTUCzrx4j/TWHofqWvhD4/1wUBNz+jry5AehVwMF3pjs+972RCXGincN7khc/C6Cfy+6EH4shgf49NGpZ9ZUPZ3VeiCa4Ku2nmf0OQfxd1/NBQYBbZg58KOM8GzZH3rLBE+avZV3L/tkVQQBv8ddEwI9C6Mcya/Xt1Na/Kh+j5BP2ndqgkshHywst5rMP3f6uE3+tce+vb3fN64C715VLfRXw3luPKx8AiBJ/zV78JIh+KqtWvzK2MWTQn4cmbK64ZmZ+T3800VVlPw342w3xd634a42d6tANAwOn53ZL/SzwW/O2s3PLvqBsECBa/DV78YMw+qGMWn3K3vpT5WOUetK+UztVEflo+aDPybZgtL/rxV9r/PR1gBs+EfzO+kqpvQBvv/kfSgYATom/Zi9eFkgvl02rP5W2MaTQf4fGbjt5rRue/ldUd3lG/FRqDDLz8m51l/Kfm87M62Ej58tbJ+DOuTtZ67IblAoCnBZ/zUa9KJReLJNWX6pu/afyMUo86UDzwWhP3arspxn+VDUm5Mve5zpumDHwuxurpfYCvPnGE8oEALLEX2tnXhJML5VFqx83bGPIob8OjUms//zMgt4BVYQ+Uj7+u7wX0/t6eEVDmjaY1m+IVPeq7JuZ38tGzJPXC3DH3F3s7LIvSg8CZIu/Ji5eEE4vlEGrD7dt/aXyMUo7ad+p7ao42Uj5+EnpgNCFfUobz7Jg63nWer6bdfX0sb7+ATbA2OB/+pv20TE6h851m6G7Jb9ZDWcZreAYyQZU2fdtyWMB3nnz36UGAKqIv2bTygvoqmtZ39bPsv59V7OBo59gA2lXsoGMK9lA9lUX/9PftO/oJwbPoXN7Vl0rtY6jzfFA+1Wrf80OrGxjSKJ/DtF3/9Nzu3tVcbD6fNDa8qKW9K08dY61ne9m/QMk98b+0bkUDNC1VowO18R+VUCTOn2/RN11Ax7J7pI6L8A98zZLmxega/VNrKokVTm7pzxR3mIJl6PHVl7L+hI/zQaSr2Is+x8t/R9Iuor17fg061mpTjCgav1b9an+UfkYJR2/5+QbetFV6TcNELNawdGuK2k8y1o6Lgw+4RuT/cvPopCB0ihpjC1o0fKA/dG5LVF8UOCd7wWkjgXYvugRx8VO9Sc/FXoCeldfO/gUzzKvsCT6EYOFzCtY/96rGaXtaBCzfOgl91O9/q340xiy6J9D09LPd6gk+OF5eY7e+3N+701P7hd6+y5XdIt7Onv6WHkTXgtYaYDRrikOtbHfKTweYGpau9QAYOqC5Zc4Z9HC4BbnLy0IWDF08Imfq/Drew4oENj9Kdbz3nWO1j3ZllvqP5o/ibbfPyofpaRjExufChdclf6maX6PN/DtZq9ubh98v29R66Ne1tvXz6qasR5BtIZmZX96wzmlpwu+bUm+1CAgfckoR4TAbc7f6SCgd+01trr6Iz7168U/7De9VqB7ig76tPTdVv9mfE0UWfTP7vuPtlapJPrheVlb28m165+e/GlAn6h/FASgJyB6t76Zhqmdu6qmU9kBgeP3npQaAPzqtb8IFwG3On+ngoC+Lf/EhD71hwn/JYFC5hWsb/M/of5t9g77R+kjlHTM6qovPFrYp6SDpe5f6gbWhMDult7TX+jh1+0fLYigrwVofIHd/OL6i3VPNvB7RV8FPFbYz25ckCYtCLhlzkHW/O5wYSLgVvHX2o7oIKBv22f5veePJvRx9vclfgb1b0MnIsiif3ZN3HdyU/gTtyp/0yI/qZy7/mmwnlP/mtsvIACw0Sg1B65tkxvOKbtewLfWVUgLAGip4BVv/kiIALhd/DXbERUE9G3/jHTx13oEBr8U0A3Y07rvrW69Uv+aHUTb+kftI5T0oYzOTlVEPzwfi6v4jvqnrn9xHf+XhxX0mSBeBfDrvaHGu7DqgpI9VdPSO6QGAPctWM09APCa8+cdBAx2+8d5MtfE2aktz9cBXqv/aOJP+yPIoj92jdlZ92/hoqvK30+U9LMTQb5d6PSdv9P/aJ6AWIaHY+YChILgWfZEqZoTBN26MFdqEJD39t3cggCvOn9eQUDvmmvkvPOPF3BkXsFlYKBX6z+av/WH2kco5aRDp7NVEf3wfGzgvMofzdpnZpIfXoEC3RMzBpoT+WiNVNv/vqIDAkdvr5caALz4+rNcAgCvO3/bQcCK6xwd7W+292Ag5SrWs+LSb/fNvALwev1rfiR8G0EafbCLsX9Qcea/X5X1cR34RxVNU/fK+kf3Djc2/G0vIKABgU+XqTdodXrOBakBwLfnbWXdy6+3FQT4xfnbCQL6dn5Kmff+0YIDq+MB/FL/eh/sA7W/vIijdwSfDH/qVuXvxLoO7oJJXfGy/uE1gD3B1zdW+r2t7rySYwFuXZQnNQjIWnKP5QDAb87fShBAs/BJ+dwvXte//njmFabXEfBb/Yf7lcvV0Qd7phw+k6eK6Gv5eK6sj7v4U0XTZ3my/tEMgeHGhr/5BATPlqvXCzAmsUFqAPCXvz9nKQDwq/M3GwTQQj7RnrpV20/TBhvt+vdr/Wu+2AdyrysiY//c6yUkAAAgAElEQVQwI7enTxNeVbY7BTz9UyWLnPgnXmBB99YMDVs+4k8cE2s7lOsFcONrAL87f8NBwEqXPP1rvQHUC2BgASG/1z/5Ep06ev/n2B3131dF9LV8PF3K/92/JrgmFvmLp+emj9O9tXxgyy8AIJZkM5r9qLK99a0cqb0AJ5Z+E09+JuefMBIE0Kp+qj3lx8tPvAmCIP4X/ZH3FV9XwkkHmw+o4jC1fLzPeeR/uNgiAOArvOFsZf5N00Rr9qPK9rsbq6UGAG+8+TNDAQCc/6VtIl4QYGdJ33hCLeo45TnaawDU/0f1r5NH7/+clt5+ThWHSfn4aUk/KzQZtZsRHrwC+MjYzXBT/VyyGbIdlWz5gaQ2qQHAYy8vjur0NTGA84/cHqIGAauudd3TvxZU9Ky6fPlg1P+l9e99xQ8r4T3ra/51dvGAUk6T96x/euHCIMBLDV7Px82/F1YrNjtg8QAbKXFtgJFzjrCWZcOiBgFw/rHbQqQgoG+r/Pn+NUE3u+3b8tlLbAH1f3n9h8mj9/8cv6vpVZWemL4XYNyX+9ULGj4DvNzo9Yzc+puWiv5+gCkV0N65olhqL8DORdMucfp48jdn//ogwE2j//UBQvjXABD/yHbgfdUPK+F9R84UqxQAPF/RK3yQnMyJgBrOYCIg0cHFHxRbKXDsrpDUAOCPr/3+sgAAzj+y849mm+FBwMDRT7j2FcDAkU8M2gLqP3r9h8mj9/98OKvzgkoBwFaBg/+0xo2pgKMbv8bIzduNtWpNDCR7caApC1ZeEgDA+Vuzfy0IGEj7mHsDgLQrGeo/dv17X/U/KOGY1VVfmFWsTnfpj0oGWIHAwX/hoibjNQBmAYzd8MLrx87ftEgQ2ZIqge0s2eMAEo5+OA4Azt+eDVIQMJB5pXsDgIwrWVUgSXgvq532K/ta/wQAO4PPq+IkKR8JlT2OGabTywHTp4cVJ885Vj7ZjUj2/f9W0aNMAEC2ffs7BVJfAxxePAlPfpweLgayP+7eACD74/BBcezANwHA5IPNySoFANtr+c/7H0uIWjoumJ7Ix+oFp9svoOHFaXix6srsMXqVpJJt37u1VmoAsODN3+DJj5P9DWS7eAxA9ifhh+LYgW8CgKlp7S2qOMnHHez+18SkpLGN0dz8ov91dvcxupd2X2zFszgROsseD6jzGmDKsVapAcDMpej25dXu+nKvcW0PQF/udfBDCAAuxjiP5vf2qxIAODH6P5IDKG86y3r6+oXFAL19/awcXf9SnI5KXwPMzOuRGgDc/kqalDqI1Obcvq8nf4RrA4DuvJGwAwQAQ4aM2xX8miriT/lYWd0pzTCrmtsZCTXvfxRYVJ1ql1Yutztau/lfXt2l1GuAm15OlxoEpFWehi3Gcf5GbK6jcIJrA4COwsmwgTg24ItXAGN2NvxBpQAgtUHuALmyprPsfHcvtxiAuv2pd8GIQ8E5Yl4JHGs4p1QAcPtSuQMB12Q3wB7jOH8jbfFMyVOuDQBaSn4OG4hjA74IACbtO7VTlQCA5m830vBEn0Pv6ZvbL7B+G6sF0aU04A/v/MWIulkb+EmpOuMAvr2hSmoPQML+CiXamdk6VO38YNW7rg0AGipXwAYQAAwZMuVYa6UqAcBfK5z7/M+IM6End/pm30wgQOfSNfjUTw3h1+r5BYU+Bxy/t0lqAPDTDYVw/nGcv2Y3sbbl9WWMZV/hwiDgCkZ5j1U2HGtjvugBmJZ+vkOVAGBFdZeSRkkzBtK0wSTs9LUArSJIT/j0n/6mfXSMpvelc9F41BJ/qo93FRoH8GDKWakBwP1Lc2CjHAIAsquuE99wXQDQWfAt1L+B+vdFAKDSFwD76zFQDsGDmOBhX327MuMApud2Sw0A7nwtHQJgQACMtMWmivmuCwCayl9G/Ruof88HABM2V1yjytM/rf6XH8TTsxGng3PMBwlkW2Rjqtj7yHkp0oKA4QlJLK+uFSJgQATitbWyhirWn/Mp1wQBlFfKc7xy4bgPXgGM3l43VRWH+FSpGgMAYfjmxdUtzJ4s7VcmAPjyG1nSAoBhCUlsX+AkRIBDAEC2TyPq9cvtqvq7pfSXqHeD9e75HoAxO4N/ViUA+B/FBgC6RdSQT+MBywvl6qwLcPu7hVIDgFWZ9RACg0IQr42VN5S4ohegP/czrLy+FPVusN49HwBM2Nu0TpUAYGEV5siP52hw3LjYR2L1ZtUFZXoA7l5XLjUAeOkwuoEj2YjVfafK/0f5XoCTZS9C/A2KP9mB5wOASQebj6gSAKytkTcDoNVGj+vsCbLT/FbXdCoTANyzuUZqAPD8bnwGxtP+SoLNrOvE7coGAV0n7mCUR55l9npang8AJh9pyVclANhd5+wKgF43XpTv8uBkZ12HMgHAmB1BqQHAM1uLIQYmngaNtKfK+lzWn/tZ5YKA/pxPs8q6LNS3yfr2fABw/7HWWlUCANlTABtp4DjnclF1E5MUhaYEnrDvlNQA4D/eL4AgmBQEI7beULWGsZwr1QkCcq5k9dXvo64t1LXnA4CpaedOqxIAFFioICMNEue4W7R51l9B8KwyPQBTjpyRGgDMfC8PoiDI5zRWvK5IAHAFa6x4A/VssZ49HwA8lHG+U4UA4EclAzBSi0bKUyD9kNbjATXWBJia1i41AJi0BF3CIu09VLGIDeRcJS8QyLmSNVa8Br9qw696PgCYnn2hR4UA4GeYAwAN1UZDNePInyhRYy6Ah7O6pAYA33njOGxOsM01VK1l9Omd03MC0DgEdPvb7/n0fgCQ292nQgDwq7I+OCPBzsiMSHr53KfL+pR4DfBIzgWpAcA3X8d0wE7YeWV9jqNfB9BofxqM6ETZvH4PzwcAqqwD8LvyXhgsAgBHbOC3Zb1KBAAz8nqkBgB3vJrmCG+vi4SR8pUET7Om8nlCewP6c65mzWW/ZyWhU6hXTr7U+wHAib4BFXoA/oAAAI2WU6ON55D/u1yNAGDmiV6pAcBXX0qFzTlkc5pNlteXsJaSX3CdNZDm9m8p+U/M8CegLj0fADxWqMb70Ocr0AOgOQls7b+7i8XwTxVqBACPFvZLDQBunp+MAECAaMSyPe0YLcbTVLGAdRZ8k7HsKyyMEbiC0ZK+TeUvsbKGatSjoHr0fAAwq1iNEdFYB0Cs6GmOB9s29kKFGusBUNujRXlk/R85BwGACu2hrKGcBauWDy4o1FE4iXXnf4n15V7DBrI/Mfif/qZ9dIwWHaJz6RoV8u71PCAAcGj5VAQACACcciYIAC4GHQgA0OacanNuvY/nAwC8AoATcGvjtJpvvAK4GADgFQDavtU25JfrPB8APIpBgOhKE/T+TFUngUGAFwMADAJEAKBqG1UlX94PAPJ7+1X4CgCfAcIZOdXo8RngxQAAnwGizTnV5tx6H88HANNz1JgI6BlMBISeCId6Ip4uxURANPAQEwEhAHCrMDuVb+8HAIpMBfwEpgJGAOBQAPBTZaYC7pT2BQAFAN99IwM255DNOSVYuA/foM7zAcC0jM7zKrwCeByLAcEZO+SMVVkM6MFUuYsBTX4biwFBMPkKptd4ej4AeDAVywF7zWhRnuhOTaXlgO+TvBzwo1gOGEG3Q0G3W32S5wOA+5Naa1ToAaA8pDScQ4NEgxRqA8kN55RYB4DsfeK+k1JfAfzH+4VCWbvV6SPf0QNov7HxfAAw5fCZPFUCgN11HXBICACE2sDOug5lAoDRO4JSA4BnthULZe03sUB5vRc4eD4AmHSg+bAqAcCamk44JAQAQm1gVU2nMgHAPZtrpAYAz+8pE8oagug9QfRbnXo+AJiwt2mdKgHAW1UX4JAQAAi1gTerLigTANy9rlxqAPDS4SqhrP0mFiiv9wIezwcAY3YG/6xKAEBztKMRea8RqVSnfy5XYyEganO3v1soNQBYlVmP9oaAGzYQwwa8HwBsDT6gSgDwc8wFgMYYozHyCCSeLFVj+Wtqc1/+e5bUAGB/yUnYm2B742GzSEPeQ5HnA4BRa0KfUyUA+F6AsfzgWTglOCUhNkC2RTamir2PmJciLQAYnpDE8uvPCOEMwZInWGDPl73nAwAq4Mz8HiXWAyDHvL++HU4JAYAQG9hX366M+M/I7ZYm/jQL4J2vpglhDAHiK0DgKZenLwKAaennO1R5Klpe3QXHhABAiA28U92lTADwYMpZqQHA/UtzhDCGYMkVLPDny98XAcCUY62VqgQAf8FAQDhmQQHQCwoNABy/t0lqAPDTDZgECGLJVyy9yNMXAcDE/c2JqgQAPy4dgAAKEkAvNlCjZSoOtbEflwwo0wPwnfWVUgOAOQcq0c7QzmADcWzAFwHA2J2h36kSAFA+MCUwInOjwm70vKR6daYAJhu/fWmB1ABgXXYDnH8c52/UtnCed/2VLwKAUVuqb1MpAHgPMwLCOXN2zssUev9Pbe2ml9OlBgBpVadhY5xtDIGA9wIBXwQAVEiVvgR4vqIXzgnOiasN/KG8V5nu/xl5cr8A+Pqr6VzZQvi8J3yo04t16psAYGrquRZVegFovfYTIcwHgEbIx7GSLZFNqWLfU462Sn36n74iFwEAAmzYgAEb8E0AMOlg8zFVHCTlY1vdeRioAQNFkBA/SNhce14Z8SfbvndLrdQA4I+7StG20LZgAwZswDcBwJidDX9QKQBIwOeAaKAGGqiRAOivFerM/09tTPYAwLUYAIi2xaltGWl/bj7HPwFAYv3nZxWr0036oxK8BnBzw1El7wXBs+xxhT7/ozY2cn6qtB6AkXOSWU4tpgBWxT6Rj/g9eDIZ+SYAoII+nNnZpVIvAHXdyqx83FvtxmmkfjYq1v0/Na1dmvjTFMATlmShTeHpFzZg0AZ8FQDcd6SlSKUA4E/4GgAN1WBDjRYMqDT6n9rW2J1BqQHAf20JwKZs2lQ0W8N+9z8w6OvQVwHAuN2hl1UKAGjltvSGc3BYcFiWbCCt4ZxSq/9R2/r68mKpAcCy9DpLLPWOEb+9J3ao08vr1FcBwJjVVV+YrdA4AHKYi6uwOBAa5uUN0wiThVUXlBr9P/j+f0GatABg5NxkllXTggAAATVswKAN+CoAoMJOTWs/q1IvwE9L+lmhwcoyIgo4x5qYuo1bQaiN/aRUnUGt1KbuT2qTJv70/n/aMqwA6DY7Rn7l+ivfBQATDzTvVykAoLy8j6mBEbGbDALX1nQq9fRPdvzdjdVSA4C/7CuHHZm0IwiwXAGWzd93AcC4xNBs1QKAX5b1MVrNTbYx4P7uqAOyFbIZ1ez4K2/lSA0AdhU1oQ3Bj8AGTNiA7wKAIYz9w/Tc7j7VnOeOug4YrgnD9XOwsr22QznxfyTnglTx/+br6Qii0X7gQ03agP8CgCFDhkw+fDpHtQDg1+gFQOM10Hjp6Z9sRTX7Hb29QWoA8GwiPv/zc1CMslvrvfRlADAmMfRj1Rwo5Yee7GDI1gzZL9y2Kjbxj9aOvrooV2oAsO1EI9qOgQDSL+0E5TTmR30ZAAy+Bsjp7tWclyrbZ9ALACcew4nT0//Tpeo9/T+S1SVV/O9+4zi6/2PYDcTQmBj6kZM/AwB6DXDodKYqwh+ej/U1mB7Yjw3RSJnX1qo38p9sd9T2eqkBwG8TSxA4IgCADViwAd8GAGN2hn4QLryq/E3zAuQHz8KYLRizERF16zlkE6p996+1Gemj/wsx+t+tdo18y+2d8G0AQAV/KLOzU3NiKm1phjc0DLkNQzX+f1ds1j+tvche/GciFv+Br8DDgmUb8HUAMHHfqfWaI1Np+8MAY8lYI8CyUasm3nbzc6zhHCObUMlGtbzcva5cavf/S4erYCcQQNiARRvwdQBwz96Kf3m0UL1BVeRcf1fei4FNFo3aruCqdD0N/PttWa+S4v9YYT+7UeLc/zfPw9z/Ktkq8uK+XktfBwBU+CnHWiu1pxnVtqsxRbDvI/uV1WoO/KO2Mn5Pk9Sn/yc2FPrePiC67hNdlerM9wHA6B3BJ1UTfi0//14ygOWCfdwLQMv9/luJWgv+aLZJ268uzpMaAGzJDyEA8HH7UElI3ZoX3wcABOCh4+fbwx2bSn9T928RGrnvHD11/dNrIJVsMTwvD6a2SxX/yW9n+c4m3CoyyLe6vRQIAIYMGTJ+V9Or4c5Ntb/fru6Cs/NZELS4qktZ8af2ceeKgNQAYGlaLdqEz9oEAgn+gQQCgCFDhtxcVHTF9JzuHtWEX8vP90sY21ffDofnE4e3t66DUZ1r9a/almb+Gz4nWVoAQDP/FQZb0R580h4g/PyFX2OKAOADAhP2ntyimqMNzw9NApMRPAen53Gnl9lwltFkUOF1r9rfd6+rkCb+wxKS2IJDlWgHHm8HmkBhK078iS0CgA8ITNxTM3Tmid4B1ZxteH5+U9bHCtHwPev8i4LqfvKn2eHMvB42cl6KtADg9lfSWF4dnv4hjGKF0S98EQCEEZh44NQ+zdGpun2pstuzAuiXRhetnPMqu5V+8qc28Z2NVdLEn57+/7avAvaPhwDYACcbCJM//Dlhc8U1M/N7+lUVfy1f72JQoOccAA301OpX1e2MvG6pT/9ffzUdT/+cHH+0IBT7/dWzANXXEZi4vzlRVQes5et7AcY21GLVQK84q4215xnVqVa/qm6/vb5S6tP/3IN4+veKzaMcagQaOvnDz1Fbqj89Pbe7T1UnrOXrBwHGEus6PPck7DfHsKuuQ9l5/jVbo+2M3G42QuK7/ztfTWN59Xj377f2gfKKDRSg+BEITNjbtC7c+an69w9LBhh9MoZGIraRiOK7v76d/Ujhmf7C7f5ba+Uu+vPqESz6I8oOka47/QePeosgf9hF8wI8nNnZFe4AVf2bpgs+iDkCXBcEHahvV3qa33B7n5beIfW7/3GLM/HdP979u66N8xBo0WlA7aMQGLur4VfhTlDlv+kpcjd6AlzjIPbVdbhG/Mnub3v7hNR3/xtygq6pW9EOG+n792ldRN1HkT/sJgL3J59tVFn4w/NGrwN2IghQXigoUHNLtz/Z16QDzVLF/4drTyhfpyIcM9KE0DthA1D6GATu3dEwelaR2rOyXRIEBBjbhK8DlBUMGu3/QxeM9tds6rHCfnbz65nSAoAvzUthR0pPKVufTjho3AOBgEgbiCF/OEQEJh9sTtYcohu29DkZLSQj0miQtnmntKKm0xWf+oXb+D2ba6WJP03686fdpbBjvPuHDQi0Aah8HAJ37Sq/+uHsrgvhjtENf9OMgTS1LMRaLgOautkNM/zpbfqhjE42fK68KX9HvZXBTjScgf0KdP7wDXJ9gwr848gfDhOBMYmhH88qVn+iFr0Tf66sj9HiMioYmh/zQIs3UR3o60X132Trty3Jl/b0P2JOEtuUh4F/fmwzKLOzQQkU3iCB+460FKnuuCPlj1aWw1LCzjYqcmI0P8OPSwdcJ/5kQ2N3BqWJP3X9/9eWAIJWPPnDBhywAYPyh9Pu2VvxL9Nz1J8hMFIQQGvL07iAIgcMyu8RPDF+p7qLEfNIdaH6vkeyL7CR81OlBQDf+ns6y6lF17/f2xHK78xDC5TdBIFxO4K/mFXszqc6Ep5ny/tYSsM5RNaCAqH0hnPsufJeVwo/2Qd1/X9tqbxv/qnr//1sdP1D/JwRP3BuYybkD6cSgfsOthxX/SkuVv5o5sDVNZ2sWJAI+rFREcuVNZ2umtwnko2M2lon7cmfuv7/eydG/fux/aDM8gIeqLpJAg8khj4+7fj5jkgO1E37flvWy46hN8B2b0hqwzn23y5+6tdsdmpaOxs+N1laADBxSRYraMBiPxBDeWLoR/Ym5Q+nE4HROxqmPFrovtHdmrPXtjQpzcKqCyw/iC8FzDZ+YvZG1QVXTeyj1bt++1hhH7vl71nSxP/m+SnsQMlJ28GY2TrE+RBbv9sAFN0igXF7Gt/SO1K3/v5JKV4LGHUE1N2/vuY8I2ZurW99vu9aVSpN/Knr/82kGog/XsnBBiTYgEX5w2VE4L4jLQV6Z+rm378s6xucShjjAyI/Ge2q62DPuPC7/lg2OWZHg1Txf2YbPvkzGnzivMjtElysc4GS2yBA4wGmHm9vi+Vg3Xjs12V9LLG2AwMFQ22DDLbXdrBfeUz4yS4fTDkr9b3//Utz8N5fwlMfBNO6YHqNnQ35w6VE4Lvbqm6dkdvT50ahj5fnn5f2M5rDvsCHToqm8KWufuoVicfJjcdn5HWzm145Lu3p/+uvprOUytPo9vVh2/KaiLq5PFBxDgTG7Aw9QSunuVEIjOSZ3ncvqr7A6Dt3Nxu7kbynNZxjC6sveOodv76OyVZvXZQnTfxvnpfMtuWHPG9LRuwN5+BpXKYNcJA/JEEExu0OvezG9QL04hDrN600+Mfy3sFxAgUe+nKAykJL9f6hvNd1K/bFqq9Ix8hG71wRkCb+NNnP0rRaiD+e/GEDCtgA1JsjgUn7T+2N5HS9uO/xkgH2t4oetrX2PHNjMEB53lJ7nv21oof9sMQ7I/rj2dp3NlRJE38a8f/i/go4fgUcv8ynTtxbnV4PjvKHpIiA174MiCcodJzmE6CegRXVXUpPLpRUf44tr+4afNKnPBspm5fOGbe7Uar4P7mpCOIP8YcNKGQDUG3OBEYtq77ygeSzTV4SDrNl+XHJAHuhooctq+4aXIlQxkRDecGzg/d+t7qLvVDewyhPZsvhpfMnHzrNhs+RN9Pf91bns8IgZvrD0686T7+oC6wFwFn+LyY3av2pTz6YfK7ZSwJipyw0duCp0v5BIX6z6sLgWgQ76zoGFyay8/qArqXFjSgtWt+A0iaxf7K03/Pv8s3Ux5RjrWzEvBRpT/+PLM9l+fVY4Q+CA/FXzQaECCASHTJk1JrQ56ame2+OADPCY/TcxwMD7ImSfvZ0aR/7XXkv+315L/tTee/g+3l6R09/0z46RufQuXSN0fT9fN6DKefYCInL+05Zms1ysbwvur0V6vZWTYRl5gdaLZDAmMT6zz+c0en6hYP8LKBuLvu09A5244I0aU/+4xZnssyaFogfxA82oKgNCJQ/JE0Exm+sH/FQxvnzbhYS5N19AwYfTG2XKv6T385iGRB/CJ+iwifzqVule0OlHSAwdtvJa6emtZ+BkLpPSN1YZ/cnn2UjF6RKe/J/8N1sll2Dd/4qOXrkBeMPItmAA/KHWxABGhPwYOq5024UFOTZPYHL/cfapL7zf2h5Dt7546kXPR8usQGos4MERm2p/rTfPxFEMCEumJhEn/rNlTfa//ur89mJBjz5R3rSwj48gatoAw7KH25FBG4uKrrCj5MFQfjFCT+xHb+nkQ2T+J3/zzYWsaIGfOevopNHnhB8RLMBqLIkAuP3ndzs9bUDIPpiRV/je8+WWmnv+4cnJLE/7i5Dl69LunyjCQH2+zNIkCR/uC0RGLM7ON/LqwhqAoWtmEBgVlE/+8Z7JdLE/6a5KWxxag3EH+IPG3CpDUCJJRMYtbPhpzPyuvshkmJE0qtcZ+R2s69KXNL3zlfT2FYs6Qvhc6nwocfjYo+HZPnD7YnAqMTQTfhMEAGA0WDlgeSz7EuvHJf25P/gO9kspaIZ4gfxgw243AagwIoQoEWEJh9uSTMqAjjPnwEDregnc1GfpzYVsUIM9oPwuVz40AOAHgBFpP/SbIzf3bTo0cI+zHPvw+V6YwV1jxX0sW+slPe+/5YFKWxRCt73Qzj8OVjOq/V+qfrglxIExmyru2daese5WIKAY/7pAaBpfW/5e5a0Ln+a1vdAyUk89eKpFzbgMRtQQvCQicsJ0CuBSQebj8wqxqp3fg52xuwIsuFzk6WIP33i9/TWACtAlz+Ez2PC59UnerPlulx5sEcpAuN2hp6ekdvd52cR9GPZH8m+wG5bckKK8A9LSGLf+ns625gbhPBB+GADHrYBpcQOmYlMYMLmimtogCAmDvJHtz8N9JO1mA899dNAPyzmg3fdZp8mcb77bCay4mCvkgRozoCHs7su+PGJ2A9lfjirk33tbXlP/d99I4Otz8FTP4TMfUKGOrNWZ0oKHTIVncBdu8qvnnyw+SjNAucHUfRDGWk2yHs210p71/+leSnsT7tL8a7fw129EEhrAul1btGVBkeUJjB6Y/VdU461VvpBIL1cxsmHW9jNr2dKe9c/a1U+O1x6Svp7XnrlQJ8Z0qJC9NXB7a+ksZGSBj/SGAj8BwPYwKAN9AxLSDo1LOFYxrA5SUuGzTn22I1zk/+P0uLop8zRIMGHMjo7vSySXizbwxnn2e3vFEoTmlFvZbLVWfXShZ8+L/zZhkJ283w5XzrAyUPoYQOmbeD8DXOSlt4w7+gIP2mtsmWlJYbH72taMyO3B18LKD6B0PScC+xba8ulzeZ312vp7NUjVawwKHfp3rz6Vvbr7QE2Ak/50oJACJ9p4UNdXdo71jMsIXneF/98+EplxdFPGRu1/tQnx+89uRKLC6n3tcDMvB723Y3VbMS8FClOhLrU/7KvnJHwyn6vebD0JBuzKEMKB4geRA82wN0G0r7wt2ND/aS1SpeVPhuceKB514z8ngEvdp+7qUwz83vYdzZWs5GShP9rL6exv5Lw18kXfgo8dhY2Dr7fhxPm7oQRUF36dAoezvKo/9e/HbtVaWH0W+YoEKAegUeyurrdJJpeyOsjWV3s2+sr2Yh5qVIc0d1vHGdzDlayvLoz0p/4tR4HevKnngiIP8QfNuBJG6j/4rzD1/lNZ5Uv76jD7H+P2x36y7T0dqwvIHiMwNS0dnbXqlI2bI6cQW0TlmSxN5NqWJFi0/fm159h4xfJ+9oBguNJwUEw6exTvhHeWf/8cupVyouiXzM4ZmfoifuOnanAioP8xgk8WtjPxu9tYl9dnGekgXA/h0bQ/3RDIduSH1LmaV976te2NOAPIgwRhg143waGv5j8gl/11TXlHpNY/3l6PTAto/O8F7rcZZThoYzzgwP7blwgp1t71MLMwYF9Gf7YitwAACAASURBVDUtygo/BQD0qR9G+3vf8UPcUccf2EA7XgW4JhQYMmRcYmj2fQdbjk/PudArQ0jddE96tz9qez37yls5Up5o6d3+c4klbFdhk9Kirz3505a+84c4QBxgA/6xgeEvJr/lIglEVgcJMPYPo3cE/33SodPZWIHwo1cEj+RcYKMTG9hXF8np4v/m6+mD38xvPaFuF3+44If/TTP8YZIf/zh+iDzqmmzghoSkDswY6PK4YvSuxnvH7zu5eWrquRY/rT0wq3iA0WC+e7bUslsX5jr+9DpyTjKbuCSL/XF3GUssaGTFLp6jnqb3hShAFGADfrSB5EddLoHIvkbgnr0V/zJmd3D+5CMt+Q9ldnaSSLqp6z5WXqks09Lb2didIXbn8mLHl+IlwR+/OIv9cksxeze9zlNL8dLc/nD+fnT+KDPsPmmxph/YeowADSIcuzP0O1qZcGraudMz83v6Y4msSsdm5PWwKUdbB5/wb19awEbOd/Zb/TteTWPTV+QOPuGvyW5gObXqfKsf3n3P429a2AeOEGIIG/ClDaR5TPZQnFgERm2u+/LYxOBvJu47uW3K0dZymndA5rTE03O72YMpZ9n4PU3s2xuqGIn9TS+nOyZId76Wzu5fmsOe2FDIEvZXsLXZDSyt6rRrBu/xCABoJkI4f186f9S7et/oO10nJ2PpBY75hMCoLdWfHr2jYcrYPY1/pEWLJh5oPnTfoZa8KUdbqx9MPtc87fj5juk53T30n6Yvnnmid+Cxwv4PpzF+rKCPzTzRy2bm9zIahU//H0xtZ1OOnGET9p1iY3YE2T2ba9jd68rZ7e8Wsi+/kcV7zv32YQlJZ4YlHDs9LCGp8uL/YxnDEpJ2/8f7BeyZrcXs+d1l7KXDVWxVZj3bFzjJaOIbHgLq9jRuxGI/Tjtd3A/Cq4oNXPCJxKGYogisTqpgMv/HK5fbBVp0/vH0j6d/2IB/bSCe/8RxEIhJQKb4071jZm7IkCGiBdTt6cP5+9f5o+5R9/H8J46DQEwCCADaXP0qASIAEYAN+NcGYjp3HASBeAQQACAAgID4V0BQ9+6u+3j+HcdBICYBBAAIACAC7hYB1J9/6y+mc8dBEIhHAAEAAgAIiH8FBHXv7rqP599xHARiEkAAgAAAIuBuEUD9+bf+Yjp3HASBeAQQACAAgID4V0BQ9+6u+3j+HcdBICaBeJ/BFTW0styaFnY00MQ2H6/mPmdAzMzhM8C4Xyi42YHTGg33vZ3NfpNYwhan1rAdBY2DMznm1Zmf5ImuoVkgKQ1aIInSpGmS6R5uZeRHPmMXZbK5ByvY3uKTjOqU/tPfcw5WsjGLMlxbl6JsMJ7/xHEQiEkgXgAQfrw42MaOBRrZmqRKboFAzMwhAPBkAEBOnhx6ugPTNlNQQPeie4pywrzT9SOfm+amsAWHK1lRMHqPXGGwlS04VMkw++VHvRbx/CeOg0BMAuECb/TvjIpmbkFAzMwhAPBUADBpSRZ7L6NOyvLLtOTziuN1g8tA8xZsXun5lQ+J//vZwbi2rvmnddkNCAI+mI45nv/EcRCISUBrVGa3x0oaufQCxMwcAoC4TpGX+IhM59aXUgfXcYj1dGfW/qyeT3mgJ03Kk8gym0nb73xojQ+z9Tn/UKUy9WemrnmfG89/4jgIxCRgtuFp59PrgE0cxgTEzBwCgLiOkbdD4Z3exCVZ7FDpqbjl0OzKqe2x8mZ239Js6SLidz70usNKYEivA0YvxJiAeP4Tx0EgJgE7Dvdosf1egJiZQwAQVzh5CzbP9P5tbQEraGiNWwY7Nmjn2hMNZ9iP1p6QFgSAT9LggD+rdTjnQIW0uuPZTuykFc9/4jgIxCRgtfHRdTk1LbZfA8TMHAKAuOJpx3mIvPYXm4ssPdnZsUcr19LT51ObihwXEvC5OJBtX3FTXBuPVq97ik46Xm8i24yVtOP5TxwHgZgEojUuI/sLG1oRAISij1o2wtDuOVachuhr6MnWSreuXRZWr6e8OtkTAD4fjWLPrTX/yadWzzm1ZxAAxPTuOAgCOgLfC7CvzA6w12YHWOHsAOuYHWDMzn+7YjJiXiq75fWsC19fVpT73Y3V03TZxXLAcQIMu/x5X0/f9avc7a+Jh35LrwNoFD5vHvr0wOcj8Sc2+now+1vP12+/9f4Sv0EgIoHJ5exjs4vZW7MDrN+O4Ouv5dnghickszveLToxav2pT2qFMOsQ/HY+T/5206LR7EfK1BvwZ9QmDpeeEvp1APhcKv5kb0brJtp5dm3W7ddrfhJbEIhKYFD8A+yQXrx5/BbRgG5dmHdGCwKiNXzsv/jqQQR/q2la+ZxLtXoU+XkZ+CAAsNq2ol0X1enjAAhoBGYXs4U8xD5SGtEM0+7+O5YX5lP+VRMI1fJjlzOv66n73E3v/aPVI31eNm4x/1kDwedy8Sfbi1YPRvfzsl+3pqP5eGxBICKBD975c+32Dw8ERDUceh1w94bqqUYdgV/PE8XfbLo0w59X6mBZeh33sQDggwDAbJsycn5Ep4+dIKAR+GDAn62BfuGCr//biJFaPeeOZcXZXhEVUeWwypbndeMWZUqZ3lcUU5o2mOfCM+ATWfzJBu3WIU87dmNamp/HFgQiEpgdYEV60eb5W2SjueWNzC67DsLr14vkbzRtWr3Na5wT9vObZAZ8EAAYbUtmz4vo9LETBDQCswOsnafg69Mya7Bmzh8xP3XAa8LCuzxmeIo4l5aspRX3eJdLdnpplae5LCUMPtHFn+zRbj2LsGk3pan5eWxBICIBvWDz/i26sdh1EF6/XjT/eOnTd+28GNO790dX5rHbX0kz/Q7+jlfS2GMr89my4/zGItA8/fHKH+84+CAAiGcjdo5HdPrYCQIaAd6Cr0/PjvEauZaXuHg1HSMMRZ7zm8QS2wFAXt0Z9r3V+bbFVivnD9bks7w6+2sQPJsYsJ0n8EEAoNmliK3m57EFgYgE9ILN+7cIow5P06vCzatc4axk/L0opcZ2AMBT/DUGP1xzwna+3kqusR0AgA8CAM0mRWwjOn3sBAGNAG/B16cnwqjD0+QllF5NJ5yVjL93FDTaEloRn9xpHJYfr7eVt+0FjbYDAPBBAKDZo4it5uexBYGIBPSCzfu3CKMOT9Orws2rXOGsZPxtdwDgo+/l2RbZaOWetSrfVgCQUtFsO2/ggwAgmn3y2B/R6WMnCGgEeAu+Pj0eRhwrDV5C6dV0YrFz4pjdd+1fe9n8gD+j5aKBgXbqncYmGL1XtPNU5kODLWXzsXN/ujYad7/s1/w8tiAQkYBesHn/Ft3Q7DoIr18vmn+89GlJaDuMb56fLMyJD7f5mRlNCBSv/PGOUxp2+FAZ4t3D6nEV+NhhQ9daLbtXrovo9LETBDQCvAVfn57ohmTXQXj9etH846Vvt4t77CL+8+6H59lu/YenZeVv2fePl2fZ+ZN9/3h8VD+u+XlsQSAiAb1g8/4tuoHYdRBev140/3jp7ws02XrCfWZrsdCnuJzaM5bzR9fGK3+843btL176do/Lzp/s+9vlJ/v6iE4fO0FAI8Bb8PXpiW4Adh2E168XzT9e+htzg5YFluomqbyZ3TQ3xbbQRsvnvmLrAcqeopO282XX/qKVi9d+2fmTfX9eHGWlo/l5bEEgIgG9YPP+Ldrw7ToIr18vmn+89OccrLQVAFD90KeANGVuvHtZOW4nfzzWA7Brf1bKbOYa2fmTfX8zrFQ8N6LTx04Q0AjwFnx9eqIbhV0H4fXrRfOPl/6P1tqfcIfqiJbL/fYbx7kHAbSqX2HQ/EBFumbUQvvjE+zaXzz+do/Lzp/s+9vlJ/t6zc9jCwIRCegFm/dv0Q3AroPw+vWi+cdL/xuv2fuULLx+8uvPsNeOVbPJS7O5BgILDpnvpaAV/OKV3cjx8PJZ+dvIPeycYyVP4dfYuTddG56Wlb/t3t/t10d0+tgJAhoB3oKvT090A7LiFPx0jWj+RtLfeiJk25Hr62xnURP7xZZidutLqbaF+Ma5yWxddoPhPK7NbmAj5/J5JaEvl9nfRvjbOcdsfvTn27k3XatPz+xvu/d3+/Wan8cWBCIS0As279+iG5BZh+C380XzN5L+k5uKbDvyaPVGk/Hw6BWgIGD+ocqYrwOo25+e/HmJP7GLVi6j+43wt3OO0XxEO8/Ovd3Ax275RF8f0eljJwhoBHgLvj490QYezfFg/8UJZkTzN5L+lxeksFwbn9sZrUsevQKjF2awOQcqGI3wpzzTf/qbBvzxeOev52W0bNHO06fH+3e0+xrdbzc/Ru8T7Ty793f79ZqfxxYEIhLQCzbv36IbULSGj/3qBABkAy/sLbP9tGu0TmmswNupteyR5bm2Xw+obr9ez5/ROo92nmg+qqcf0eljJwhoBHgLvj490Q0kWsPHfrUCgFsWpLCUytOOBQFa/dNERM8llrDbOIwVEGHLWj6tbkXkKTxNq/nSrgtPy8rfWjpWt1bu6aVrND+PLQhEJKAXbN6/RTcmq47BL9eJ5m8m/Z9sKHA8ANDqmddYATPlNXKulj+rWyP3sHOO1Xxp19m5N12rpWN1a/f+br8+otPHThDQCPAWfH16ohuQVcfgl+tE8zeb/hvHamw7dbt1p1KvgN2ymOVv9nzZ+ZN9f7O8VDtf8/PYgkBEAnrB5v1bdIOw6yC8fr1o/mbTv3leMttR0Cg9CKB6V2GsgF37M8vf7Pmy8yf7/mZ5qXZ+RKePnSCgEeAt+Pr0RDcIuw7C69eL5m8lfZrRj+b4V4n95vwgm/lenuODBu0ysMLfzDWy8yf7/mZYqXiu5uexBYGIBPSCzfu36EZh10F4/XrR/K2m/62/p7ODpSeVCgLIFradaGT3cZ5pMBYju/YXK20ex2TnT/b9eTCUmUZEp4+dIKAR4C34+vREG79dB+H160Xzt5P+119NHxRc1eqgqKGV/XlPGdcJf6Jxslv2aOny2i87f7Lvz4ujrHQ0P48tCEQkoBds3r9FG75dB+H160Xzt5s+zar3/J4yRqKrWl1sL2hkFKTYLWOs6+2WOVbaPI7Jzp/s+/NgKDONiE4fO0FAI8Bb8PXpiTZ+uw7C69eL5s8rfep2F7FmgN36pdcU9LqCVzn16djNnz493r9l50/2/XnzdDo9zc9jCwIRCegFm/dv0QZv10F4/XrR/HmnP2NFHtuUF1SqN4AGLIpYipjY2bU/3vz16cnOn+z763m47XdEp4+dIKAR4C34+vRENxi7DsLr14vmLyr9iUuy2CtHqhxZQ8CIDewuamI3z0/h3hNg5N6xzhHFX0s31r2NHNPSsbo1co9Y51i9r1eu0/w8tiAQkYBesHn/Ft2QYjV+HGvjLlii61Of/ldeSmFPbSpiOwvlzx2wOLWGO0+7Nqrnxfu37PzJvj9vnk6nF9HpYycIaAR4C74+PdEGb9dBeP160fydTH/y0uzBpX9pWl9Z9fbj9QVcgwC75RDNX3b+ZN9fNF/R6Wt+HlsQiEhAL9i8f4s2cLsOwuvXi+YvI32ZvQJplacZ3Z9Xue3aH698REtHdv5k3z8aF7fsj+j0sRMENAK8BV+fnuiGYtdBeP160fxlpy9jrADNEcCr3Hbtj1c+oqUjO3+y7x+Ni1v2a34eWxCISEAv2Lx/i24odh2E168Xzd9s+mMXZbK5ByvY3uKTjLry6T/9PedgJRuzKMOysN76Uir7xZZitrOoSfjrgdzaM4yWNzZb9kjn27W/SGny3Cc7f7Lvz5OljLQiOn3sBAGNAG/B16cn2ujtOgivXy+av9H0b5qbwhYcrmRFwbaoAl0YbGULDlWyG+cm2xJXJ8YK/Gxjka08atzs2p+Wjqit7PzJvr8ork6lq/l5bEEgIgG9YPP+LdrQ7ToIr18vmr+R9En83882/m3/uuwG20EA5Utkr8C2/BACgFD0YE5rV0bsI9Y5WjpWt7HS9sOxiE4fO0FAI8Bb8PXpiW5kVh2DX64Tzd9I+i8dror61B+tHuYfquQisFr+tF4BWgI42j3N7r/z1TTbeTR7T/35WvlEbfX3M/vbbr7M3k9/vt37u/16zc9jCwIRCegFm/dv0Q1I3+Dx+9KnMtH846VP7/xjdftHqy96HTB6ofUxAdHyRTP6rThexyUI+OHaEwgA4vQCRKsHo/uj2YfR/Ubv49XzIjp97AQBjQBvwdenJ7phGXUEfj1PNP946dOAP6vs5xyosC2wkfI3Yk4SW5JaazlfWnnmHLDfS6GlZXUbqXw891nNl3ad3bxo6Vjd2r2/26/X/Dy2IBCRgF6wef8W3YCsOga/XCeaf7z09xVbH5W/p+ikkACA8kzjEmiOfzt2sD4naDt/du5P18bjb/e47PzJvr9dfrKvj+j0sRMENAK8BV+fnugGYNdBeP160fzjpZ9Ta/2dO10bL307x5/ZVmwrAKDgxs796Vq79mf3/vGul50/2fePx0f145qfxxYEIhLQCzbv36IbiF0H4fXrRfOPl75dvvHSt3N83KJMWwJMswLauT9dqzIfFfKnOh+79S/6+ohOHztBQCPAW/D16Yk2cLsOwuvXi+YfL/3iOIPE4vEfnpBkW2Sj5fHm+cm2BLiwodV23lTmQ+zj1U+s41S2aOyN7leZj9EyyDxP8/PYgkBEAnrB5v1btPHHckA4Zt8B262/vLpWWyLytZftf2oXrQx3vJJmK280i2G0tI3ut8vn9lfU5UMzJhrlEO08lflEy7NK+yM6fewEAY0Ab8HXpye6MUDkL/3sT89DNP946VM3uT5PZn4/tjLftohEy+OslXm28pZS0Ww7b57mw+EVicp8otmVSvs1P48tCEQkoBds3r9FNwYzYuLHc0Xzj5f+joJGWyK77HidbZGNlke78wFsL2i0nTcv80n0OJ9odqXS/ohOHztBQCPAW/D16YluDH4UdTNlFs0/XvqLUmpsBQBU1u+v5t8LQJP4mOEY6dy3kmtsBwA8+Pxgjap8qj3LJ57dq3Jc8/PYgkBEAnrB5v1bdEOI5Jix76PXAqL5x0v/N4kltoWW3gPzFDkSf7vvlsnGnk0M2BY4Xnx+uMb+rIRaXfLiQ2XT0rS6VZGP1bLIuC6i08dOENAI8BZ8fXqijR5i/5HYR2Ihmn+89Ce/nWU7ANDKtfx4PZu1Kp/dYWEOfrqG3vmvyKjnlp8JS7JsC5yX+Yxf7B0+8exc1eOan8cWBCIS0As279+iG4YmDthGDgRE84+X/sg5ySytyt5AQBXrNrWymdGUwvHKH++4l/nw+ITT7XzoS5G9xSfZnIOVbMwi/mtbxLOviE4fO0FAI8Bb8PXpxTNQu8dVFAeV8mSXL4/ryfmpxIRHXl7cz2+dAi/y+ds+8NHbGS1wteBQJZelro22S83PYwsCEQnoBZv3b6OGavU8fSPD70t7Aqxy5XkdrQhod0IXleqVysJzpUKv8aG6msTh9Yhmg17jsy67wbEgIKLTx04Q0AjwFnx9elojFrVVSRhUzIso7mbTtfvJnUps303n/2mil/hQXW3OD7IvL0ix/YpEszOv8Zl/yP5KkhqbWFvNz2MLAhEJ6AWb9+9YxsnjmErCoGJeeDDmkcbEJVmsKHhp74SKvOLlibpxxy/K5CZsGluv8AnntzEvxG7hFAR4jQ/ZEc9eJM2O9NuITh87QUAjwFvw9enpDZL373CHg78vF1jevO2kt+Cw+8cCzDvE7922nqUX+OjbIM+eAK/xmXNAnC1ptqX5eWxBICIBvWDz/q0Zoqit3uHg96VBgCjuVtK99aVUdqT0lGsHBB4qPcW+8hK/bm09Q7fzidb2ePUEeI3PnqKT3HuS9DYV0eljJwhoBHgLvj49vUHy/h3N6WD/xUCAN2+76dF37ycazrguCMivP8N4fPcfj59b+cRrb7yCAC/xyeGwWFI8e9L8PLYgEJGAXrB5/45noHaPx3M8fj9ul6+I67+3Op/RO1C31A2NXXh8Lb+Z9uIxdRsfo/XI63WAV/hk19hfLTGeLUV0+tgJAhoB3oKvTy+egdo9btT5+PU8u3xFXf/zTUWuGBRI4v/kpiLhXbV6zm7hY7Zd8eoJ8AIfvALQVAhbaQT0gs37t96x8f5t1gH57XzevHmm96O1J5R+HUCvKmhefJ5lNpOW6nystqUNOUEu38G7nQ8GAUqTPdxYI8Bb8PXpmXF4Vs616oT8cp0Vpk5eQ+/VaXCdavVxtKyZTV6aLU38tTqgCXUOK8jHbn3x+g7erXzoFdiohfw/J9XsRttqfh5bEIhIQC/YvH9rhihqa9cRef16Udx5pkuju2mKVBXGBVAe6FM/kaP9zbJTiQ+v9kKceX0H70Y+cw+K/wSQ7Cyi08dOENAI8BZ8fXpmnZ3Z83k5JK+mY5anzPPHLc5ky47XSZk2mKb3XZZeJ2SSH15MZfIR0T5oDQRebCgdt/BZm93ARs5N5lr2aBw1P48tCEQkoBds3r+jGSav/SIck5fS5MXZyXToyZDej6ZVil9FkFb1S9hfwe1p1AlOTvOhhY+oq50G8PFsG7RKngheTvIxw4N6PejJ3ynxJ7YRnT52goBGgLfg69MT0cDD0zTTAP14bjgrt/1NS8HSFLC/3h5gC1Nq2PaCRkaCnVtrfh4BuoaupTTeSq4ZTJPGH/BY0lcWV958UipPs8RBPtXs2cQAG784i4Uv6UvT+vIMAqhORLLjyceq76Ay0mh/CjKdeOev56n5eWxBICIBvWDz/q03SN6/rTZMv1zHmzfSSxIqWqrzvXl+ClufE+TSE+DERDiq8xSdv4hOHztBQCPAW/D16Yk2cL8IudVyiuaP9P0XEPDqCRD1CgA2+ZFNan4eWxCISEAv2Lx/i26MVoXRL9eJ5o/0P3K2fmLBoydgzgG+gwD9xN9oWSM6fewEAY0Ab8HXp2fUUK2e5xcht1pOq1xxnT+F3Uy92wkCaECcjHfiZsrnhXM1P48tCEQkoBds3r9FNyKrwuiX60TzR/r+DhSsvg4QuawybPIjm4zo9LETBDQCvAVfn57oxugXIbdaTtH8kf5HztavLCgIMDMwcF12A5epgP3K20y5NT+PLQhEJKAXbN6/zRirlXOtCqNfrrPCFNdA1M3awI1zkxlN70td+9HaFh2jJ38612z6ON+aTUZ0+tgJAhoB3oKvT090w43mbLC/bdARi+aP9K05Zq9yG5yE52AloxH+eXVnBv/Td/A06x/e+TtvK5qfxxYEIhLQCzbv36IdHYT+otBH44CnLeedrmibR/qoU4M2cCGi08dOENAI8BZ8fXoGDdVyl2A04cP+i4HB115Os8xWdN0hfQgZbECoDZzU/Dy2IBCRgF6wef8W3cAh9LF7ACa/nYUAIEGokwVf8FXVBtIiOn3sBAGNAG/B16eHACC2QIsOYJ7cVKSqc0K+IJywAZE28GLSIs3PYwsCEQnoBZv3bwQAcgOAxak1cLIinSzShn0pagPDE5JmRHT62AkCGgHegq9PDwGA3ACAViOjGdtE1wPSx2sG2IA6NnBDQlLHzX8+/EnNz2MLAhEJ6AWb92/RTkF0F7oX0n9iYyECAEWf0kS3D6Svjig7WhdzkpZEdPjYCQLhBHgLvj490UbvBYEWXYaDpSfZSEy+giAIQZBfbKB7RELSDeF+Hn+DQEQCswPsnF60ef4WGQCMXJA6IFo8vZL+bxJL/OL8UE4Iva9tYPiLSQkRnT12goCewOwAK+Ip+Pq0RAYAt7yR2eUVgRZdjvz6M+y+pdm+dowibRFp+7SrXblg61jq8Nd3fUzv5/EbBCISmF3MXtWLNs/fIh3jHcuLs0QLp5fST61sZne9no4gQDmnDfEU6Sd8lHZw5F9TPx/R0WMnCEQi8INi9uXZAdbHU/TD0xLV+IYnJLN73696wEsC7URZdhU1sbteQxAgyi6RLoIZSTZQd8Oco1+J5OOxDwRiEpgdYG+EizbPv0U1hjuWFeVRoZwQTa/dI73qNHvw3Rz0BKAnADbgCRs4lvrFeYevi+nkcRAEohGYUcSumF3CDvAUfi0tEQHAVxfltTyQGPo4lcdr4uxUeU40nGF/2FWGOQI8IQB46hbhZ1yQZvcNCcdexDv/aMqG/YYJDAYBAfZ33q8DeDYi6vanJ39N/BEA2J9kiMYF/OfmYgQCCATQG+ASG6BJfoYlJC3Gp36G5Q0nGiUwq4jdMjvAXp4VYAWzA6xde5K3urUbAIxYkDpAo/1pwB+989eXw6knZq/fh2YMXJJay36+qYhNXprN7ngljWEpYTxZ222/uN62DXUPS0g6eUNCUvqwhGMLh89JnokZ/vQqgN/CCARCbd12xG91UgWz+n9NcgWLVzA7ecO19nsQwBAMYQPWbSCef8NxEJBKIBBqa7bTwK2KP133fmpVf7zC28kbrrXuuMAO7GAD9m0gnn/DcRCQSiAQasuw09DtBACb02va4xXeTt5wrX0HBoZgCBuwbgPx/BuOg4BUAoFQ2xI7DdxOALAju64oXuHt5A3XWndcYAd2sAH7NhDPv+E4CEglUBw8+5idhm4nANibV/dyvMLbyRuute/AwBAMYQPWbSCef8NxEJBKoOjUqU8GQm0dVhu51QBgbXIlSy+oujZe4a3mC9dZd1pgB3awAT42EM+/4TgISCdQEmpbarXBWw0AErNrA0YKbjVfuI6PAwNHcIQNWLcBIz4O54CAVALF9WdHBEJtPVYaupUAYE1SJTsUaLzXSKGt5AnXWHdYYAd2sAF+NmDEx+EcEJBOoDjYNs9Kw7cSAOzMrkszWmArecI1/BwYWIIlbMC6DRj1czgPBKQSqK5mVwaCbWlmG7vZAGDz8Zpz6ektVxstrNn84HzrzgrswA42wNcGjPo5nAcC0gkUneq4riTUVmfGCZgJANanVvcdOlF7h5mCmskLzuXrvMATPGED9mzAjK/DuSAgnUBJ/ZlbA6G2eqMN32gAsD61qm9/QehhswU0kiv/IQAAC1tJREFUmg+cZ89RgR/4wQb424BZf4fzQUA6gfLG9v8bCLUdNeIQjAQA1O1/oODkrVYKZiQPOIe/4wJTMIUN2LcBKz4P14CAdALl5exjgWDrC/HmCIgVANBo/13Z9alm3vnrCw4nZN8JgSEYwgbk2IDen+E3CLiKAI0LKA61vRUtEIgUANAkPzuy64qNfuoXCwgclxzHBe7gDhuwbwOxfBuOgYBrCNCMgcXBtkcDobZFgWBbeiDUdpKWEqanfFrVb9Px2vYdWbVFe080vGJkhj+jBYcTsu+EwBAMYQNybMCon8N5IAACEQjAcclxXOAO7rAB+zYQwaVhFwiAgFECcEL2nRAYgiFsQI4NGPVzOA8EQCACATguOY4L3MEdNmDfBiK4NOwCARAwSgBOyL4TAkMwhA3IsQGjfg7ngQAIRCAAxyXHcYE7uMMG7NtABJeGXSAAAkYJwAnZd0JgCIawATk2YNTP4TwQAIEIBOC45DgucAd32IB9G4jg0rALBEDAKAE4IftOCAzBEDYgxwaM+jmcBwIgEIHA7ty6rZFmG3TLvjXJlWxdSiXbmF7NtmTUsF259exwYYillZ1iJ+rPMDhmOY4Z3MHdCRuI4NKwCwRAwAyBvfnBN2nGQbeIvpl8bj5ezfYXBFl29WkEAyGIkhOihHs4Z2dm/BzOBQEQiEJgf0Hw2XUpVQNmxNVt5246XsOOFDeywoZWBAMIBmADHrCBKO4Mu0EABMwS2FdQ/31ad8Btwm42v/TK4FBRCIGABwQAT9vOPW2ryNqsj8P5IAACMQjsPVF3z4b0qm6zourG8ykQOBpoYsUQQjwNwwZcaQMxXBkOgQAIWCGwt7jpy5uOV593o6hbyfO2zFqWV9viSgeo4lMZ8uTvp3In69+Kf8M1IAACcQjsza+4ZltmzSkrgurGa6g3ILXsJIIAPAnDBlxkA3HcGA6DAAhYJXC46NQnt2fXVrtR0K3mmb4YwCsBPME6+RSLe1m3N6u+DdeBAAgYIMAY+4ddOfVpVgXVjdftzq1nxUF8KQBhsi5MYOcMOwMuDKeAAAjYJeD2CYPMBiKJOXUIAlzUFQzBdUZwVeNs16/hehAAAYME9uY3vOXVCYMiBQg0qyBeB/hTWFQTOuQnsh0adF04DQRAgAcBP0wYFB4MHCgIYlAYegJgA4raAA+fhjRAAARMEPDLhEFaIICvAyI/feGpFFxk24AJt4VTQQAEeBHw1YRBqZWYJ0DRJ0DZAoT7yw2CePkzpAMCIGCSgJ8mDNqWWYNuYAQBsAHFbMCky8LpIAACPAn4acKg5FJMFIQnXrlPvOB/KX+evgxpgQAIWCDglwmD1qdWYQEhxZ4AIYiXCqLfeFhwV7gEBECANwG/TBh0uDCEbmAEAbABRWyAtx9DeiAAAjYI7M6t37wmqYJpI+i9tqU1AwobMEug3540UV41expsuCpcCgIgIILA3vzgm16eMOhocSOeABV5AoQwqynMTtWLCP+FNEEABGwSOJDX8Kt1KZUDXusBoPJsOo4vApxy8LiPvwU+Xv3bdFO4HARAQBQBL08YlFN9Gr0A6AWADUi2AVG+C+mCAAhwIHAo0Hjv+rSqHq/1BGCKYDyZxns6xXHxNsLBRSEJEAABkQS8OGHQZrwGwNOv5KdfBBhtTKTfQtogAAKcCHhxwqCC+jMQQYggbECiDXByT0gGBEBANAGvTRiUVn4Kzl+i88cTsPgudtUZi/ZZSB8EQIAjAS9NGHS4CJMCqS4QyJ+3gwSOrglJgQAIOEXACxMG7c6tRw8AegBgAxJtwCl/hfuAAAhwJuD2CYO2ZmA+ADxhe/sJW/X65eySkBwIgICTBNw8YdDG9Go8/Ul8+lNdnJA/8cGRk74K9wIBEBBAwK0TBr2fWoUAAAEAbECiDQhwR0gSBEDAaQJ7T9TdsyG9qttNEwatSa6E85fo/PGELf4JW3XGTvsp3A8EQEAQATdOGKS6g0T+IJJetgFBrgjJggAIyCDgtgmDvOxcUTYED6rbgAwfhXuCAAgIJOCmCYNUd5DIH0TcyzYg0A0haRAAAVkE3DJhkJedK8qG4EF1G5Dln3BfEAABBwioPmGQ6g4S+YOIe9kGHHBBuAUIgIBMAnvzG95ak1TJVPxCwMvOFWVD8KC6Dcj0S7g3CICAQwRUnTBIdQeJ/EHEvWwDDrkf3AYEQEA2ARUnDPKyc0XZEDyobgOyfRLuDwIg4CAB1SYMUt1BIn8QcQ/bwAUHXQ9uBQIgoAIBlSYM8rBzxSyHmOVQdRtoVsEfIQ8gAAIOE1BlwiAEAHjChg1Is4Eqh90ObgcCIKAKARUmDILzl+b8VX86Rf7E96BkqOKLkA8QAAEJBGRPGIQAAAEAbECODRSHWldKcDm4JQiAgGoEZE0YBOcvx/mDO7iXhM7+QTU/hPyAAAhIIrA3P/im0xMGQYggRLABOTZQHGp9SJKrwW1BAARUJOD0hEFw/nKcP7j7nnt/aejc51T0QcgTCICARAJOThgEIfK9EGGwn/jBfpEY50h0Mbg1CICAygQOBRrv3ZBe1SN6/QAEAAgAYAPO20BxsG2eyv4HeQMBEJBMwIkJg+D8nXf+YA7mRQ2tt0l2L7g9CICA6gRETxgEMYIYwQactoHWItX9DvIHAiCgCAGREwbB+Tvt/HE/2FzrM4q4FmQDBEDADQRETRgEZwxBhg04agMtJc3N/8cNPgd5BAEQUIwA7wmD4Pwddf6RRoNjn5xR+FK4Fzee/aNiLgXZAQEQcBMBnhMGIQBAAAAbcMwGmirPnPmUm3wN8goCIKAgAV4TBsH5O+b8pTxxon7Vqd/i0NkfKOhKkCUQAAE3EuAxYRAEQh2BQF14ui6OMsb+Hzf6GeQZBEBAUQJ7T9TdsyG9qtvqhEEQHU+LDnodFBhfUBJqay072XaDoi4E2QIBEHAzATsTBiEAQAAAGxBtA60Pu9m/IO8gAAKKE0gvqLp2W2Zts9meADh/0c4f6fvZxkoa2+Yq7jqQPRAAAS8QsDJhkJ+dM8qO4ESwDaym+Tu84FtQBhAAARcQIIezM7f+uNGeAMEOEO+gFXgHjTqWEOgEWxOzGPtHF7gMZBEEQMBrBIxOGARxkCAOCAo8HRgWh1pXQvy95lFRHhBwGQEjEwYhAEAAABvgZgMD9M4fn/u5zFEiuyDgVQLxJgyC8+fm/D39VAs7iWsnZ0sa22Z61Y+gXCAAAi4lEGvCIDj2uI4dwo5XFvFs4GhJU9u/utQ9INsgAAJeJxBtwiAEAAgAYAOWbaAlEGr7Cbr8ve49UT4Q8ACBSBMGwflbdv7xngpx3Ls9B6dpVT8s7OMBp4gigICfCOgnDEIAgAAANmDYBgqKQ61PF5069Uk/+QyUFQRAwEMEwicMgvM37PzxRO/dJ/poddtfEmrLLQ62zStqaL3NQy4ARQEBEPAzgcEJg3LqMxEAIADwuQ10B0Jt9C6/MhBqywyEWleVhM7+oTjU+lBp6Nzn/OwjUHYQAAEQAAEQAAEQAAEQAAEQAAEQAAEQAAEQAAEQAAEQAAEQAAEQAAEQAAEQAAEQAAEQAAEQAAEQAAEQAAEQAAEQAAEQAAEQAAEQAAEQAAEQAAEQAAEQAAEQAAEQAAEQAAEQAAEQAAEQAAEQAAEQAAEQAAEQAAEQAAEQAAEQAAEQAAEQAAEQAAEQAAEQAAEQAAEQAAEQAAEQAAEQAAEQAAEQAAEQAAEQAAEQAAEQAAEQAAEQAAEQAAEQAAEQAAEQAAEQAAEQAAEQAAEQAAEQAAEQAAEQAAEQAAEQAAEQAAEQAAEQAAEQAAEQAAEQAAEQAAEQAAEQAAEQAAEQAAEQAAEQAAEQAAEQAAEQAAEQAAEQAAEQAAEQAAEQAAEQUJ3A/w9S+ql/Rn/7BAAAAABJRU5ErkJggg==;" vertex="1" parent="1">
          <mxGeometry x="880" y="246.92" width="40" height="40" as="geometry" />
        </mxCell>
      </root>
    </mxGraphModel>
  </diagram>
</mxfile>
